<svg id="Layer_1" data-name="Layer 1" xmlns="http://www.w3.org/2000/svg" xmlns:xlink="http://www.w3.org/1999/xlink" viewBox="0 0 136 110"><defs><style>.cls-1{fill:url(#linear-gradient);}.cls-2,.cls-3{fill:none;stroke:#49827a;stroke-linecap:round;stroke-linejoin:round;}.cls-2{stroke-width:5px;}.cls-3{stroke-width:4px;}</style><linearGradient id="linear-gradient" x1="27.83" y1="102.32" x2="103.94" y2="26.21" gradientUnits="userSpaceOnUse"><stop offset="0" stop-color="#43c6ac"/><stop offset="1" stop-color="#f8ffae"/></linearGradient></defs><title>ftp</title><path class="cls-1" d="M118.43,50.05a27.55,27.55,0,0,0-34.3-24.56,31,31,0,0,0-60.4,9.68A32.28,32.28,0,0,0,24,39a28.81,28.81,0,0,0,7.19,56.22l22.16,0H63.84l0-19.55-8.6,8.57a4.73,4.73,0,0,1-6.67-6.7L64.84,61.4a4.69,4.69,0,0,1,3.78-1.91h0a4.71,4.71,0,0,1,3.79,1.92L88.59,77.64a4.72,4.72,0,0,1-6.7,6.66l-8.56-8.6,0,19.55H84.53l24.7,0a23.55,23.55,0,0,0,9.2-45.22Z"/><path class="cls-2" d="M22.35,41.36C11.26,44.71,3.23,54.58,3.23,66.23c0,13.94,11.5,25.33,26,26.06H50.32"/><path class="cls-2" d="M103.59,92.32C116,92.32,126,82.78,126,71a21.36,21.36,0,0,0-13.67-19.64c-1-12.87-12.37-23-26.18-23-2.25,0-10.42.21-21.22,11"/><path class="cls-2" d="M81,23.72c-3.88-11.2-15-19.29-28-19.29C36.68,4.43,23.47,17,23.47,32.49c0,1.18.19,7.75.34,8.89"/><path class="cls-3" d="M62.94,105.81V75.11l-8.59,8.6a3.84,3.84,0,0,1-5.58-.17l-.2-.23a3.82,3.82,0,0,1,.16-5.25l16.8-16.75a3.41,3.41,0,0,1,4.83,0L87.58,78.58a4.36,4.36,0,0,1,0,5.63,4.51,4.51,0,0,1-6.48,0l-8.43-8.42-.08,30"/></svg>