<svg id="Layer_1" data-name="Layer 1" xmlns="http://www.w3.org/2000/svg" xmlns:xlink="http://www.w3.org/1999/xlink" viewBox="0 0 136 110"><defs><style>.cls-1,.cls-10,.cls-9{fill:none;}.cls-2{fill:url(#linear-gradient);}.cls-3{clip-path:url(#clip-path);}.cls-4{fill:url(#linear-gradient-2);}.cls-5{clip-path:url(#clip-path-2);}.cls-6{clip-path:url(#clip-path-3);}.cls-7{clip-path:url(#clip-path-4);}.cls-11,.cls-8{fill:#fff;}.cls-10,.cls-11,.cls-9{stroke:#48707a;stroke-linecap:round;stroke-linejoin:round;}.cls-11,.cls-9{stroke-width:5px;}.cls-10{stroke-width:3px;}</style><linearGradient id="linear-gradient" x1="28.2" y1="114.2" x2="104.66" y2="37.73" gradientUnits="userSpaceOnUse"><stop offset="0" stop-color="#11cb78"/><stop offset="1" stop-color="#4ca2cd"/></linearGradient><clipPath id="clip-path"><polygon class="cls-1" points="60.92 15.2 76.16 29.06 89.06 25.34 73.82 11.48 60.92 15.2"/></clipPath><linearGradient id="linear-gradient-2" x1="7.25" y1="125.08" x2="126.15" y2="6.18" gradientUnits="userSpaceOnUse"><stop offset="0" stop-color="#00f260"/><stop offset="1" stop-color="#4ca2cd"/></linearGradient><clipPath id="clip-path-2"><path class="cls-1" d="M111.34,15.06l-2.79-9.7a3.73,3.73,0,0,0-4.61-2.55L89,7.13,104.19,21l4.6-1.32A3.73,3.73,0,0,0,111.34,15.06Z"/></clipPath><clipPath id="clip-path-3"><path class="cls-1" d="M12.28,33l2.85,9.91a3.62,3.62,0,0,0,4.47,2.47L33,41.48,17.76,27.62l-3,.87A3.6,3.6,0,0,0,12.28,33Z"/></clipPath><clipPath id="clip-path-4"><polygon class="cls-1" points="32.89 23.27 48.13 37.13 61.03 33.41 45.79 19.55 32.89 23.27"/></clipPath></defs><title>mediaconverter</title><rect class="cls-2" x="16.36" y="46.56" width="100.15" height="58.82" rx="5.16" ry="5.16"/><g class="cls-3"><rect class="cls-4" x="11.32" y="-1.93" width="110.75" height="135.12" rx="6.89" ry="6.89"/></g><g class="cls-5"><rect class="cls-4" x="11.32" y="-1.93" width="110.75" height="135.12" rx="6.89" ry="6.89"/></g><g class="cls-6"><rect class="cls-4" x="11.32" y="-1.93" width="110.75" height="135.12" rx="6.89" ry="6.89"/></g><g class="cls-7"><rect class="cls-4" x="11.32" y="-1.93" width="110.75" height="135.12" rx="6.89" ry="6.89"/></g><polygon class="cls-8" points="17.76 27.62 33 41.48 48.13 37.13 32.89 23.27 17.76 27.62"/><polygon class="cls-8" points="45.79 19.55 61.03 33.41 76.16 29.06 60.92 15.2 45.79 19.55"/><polygon class="cls-8" points="88.95 7.13 73.82 11.48 89.06 25.34 104.19 20.99 88.95 7.13"/><path class="cls-8" d="M97.21,74.57a2.22,2.22,0,0,0-2-1.19H91.41A23,23,0,0,0,62.09,54.67a4,4,0,0,0,2.29,7.66,15.26,15.26,0,0,1,4.3-.62,15,15,0,0,1,14.6,11.67H79.52a2.24,2.24,0,0,0-2,1.19,2.22,2.22,0,0,0,.14,2.29l7.86,11.39a2.22,2.22,0,0,0,3.66,0l7.86-11.39A2.22,2.22,0,0,0,97.21,74.57Z"/><path class="cls-8" d="M75.6,89.09A15,15,0,0,1,55.39,76.77h4a2.22,2.22,0,0,0,1.83-3.48L53.39,61.9a2.22,2.22,0,0,0-3.66,0L41.87,73.29a2.22,2.22,0,0,0,1.83,3.48h3.66A23,23,0,0,0,78.45,96.56a4,4,0,1,0-2.85-7.47Z"/><path class="cls-9" d="M87.89,101.93H109a4,4,0,0,0,4.07-4V51.6a4,4,0,0,0-4.07-4H31.2"/><path class="cls-10" d="M95.11,74.23a2,2,0,0,0-1.79-1.08H89.84a20.87,20.87,0,0,0-26.61-17,3.63,3.63,0,1,0,2.08,7,13.59,13.59,0,0,1,17.15,10H79.05a2,2,0,0,0-1.66,3.16l7.14,10.34a2,2,0,0,0,1.66.87,2,2,0,0,0,1.66-.87L95,76.31A2,2,0,0,0,95.11,74.23Z"/><path class="cls-10" d="M74.05,88.86A13.6,13.6,0,0,1,55.7,77.68h3.66a2,2,0,0,0,1.79-1.08A2,2,0,0,0,61,74.52L53.89,64.18a2,2,0,0,0-3.32,0L43.43,74.52a2,2,0,0,0,1.66,3.16h3.32A20.89,20.89,0,0,0,69.21,97a20.67,20.67,0,0,0,7.42-1.37,3.63,3.63,0,0,0-2.58-6.78Z"/><path class="cls-10" d="M95.11,74.23a2,2,0,0,0-1.79-1.08H89.84a20.87,20.87,0,0,0-26.61-17,3.63,3.63,0,1,0,2.08,7,13.59,13.59,0,0,1,17.15,10H79.05a2,2,0,0,0-1.66,3.16l7.14,10.34a2,2,0,0,0,1.66.87,2,2,0,0,0,1.66-.87L95,76.31A2,2,0,0,0,95.11,74.23Z"/><path class="cls-10" d="M74.05,88.86A13.6,13.6,0,0,1,55.7,77.68h3.66a2,2,0,0,0,1.79-1.08A2,2,0,0,0,61,74.52L53.89,64.18a2,2,0,0,0-3.32,0L43.43,74.52a2,2,0,0,0,1.66,3.16h3.32A20.89,20.89,0,0,0,69.21,97a20.67,20.67,0,0,0,7.42-1.37,3.63,3.63,0,0,0-2.58-6.78Z"/><path class="cls-9" d="M21.37,47.09a4.21,4.21,0,0,0-4.22,4.21v48.92a4.21,4.21,0,0,0,4.22,4.21H56.1"/><path class="cls-9" d="M108.47,14.36l-2.35-8.52a3.41,3.41,0,0,0-4.33-2L15.55,28.65a3.4,3.4,0,0,0-2.59,4l2.36,8.19a3.4,3.4,0,0,0,4.33,2"/><line class="cls-9" x1="29.08" y1="41.26" x2="66.17" y2="30.66"/><line class="cls-9" x1="73.59" y1="28.54" x2="103.26" y2="20.06"/><circle class="cls-11" cx="16.36" cy="46.56" r="5.3"/></svg>