<svg id="Layer_1" data-name="Layer 1" xmlns="http://www.w3.org/2000/svg" xmlns:xlink="http://www.w3.org/1999/xlink" viewBox="0 0 136 110"><defs><style>.cls-1,.cls-4{fill:#fff;}.cls-1,.cls-3{stroke:#846e39;stroke-linecap:round;stroke-linejoin:round;}.cls-1{stroke-width:4px;}.cls-2{fill:url(#linear-gradient);}.cls-3{fill:none;stroke-width:5px;}.cls-5{fill:#846e39;}</style><linearGradient id="linear-gradient" x1="25.41" y1="111.61" x2="116.36" y2="20.66" gradientUnits="userSpaceOnUse"><stop offset="0" stop-color="#f7a12c"/><stop offset="1" stop-color="#f3f9a7"/></linearGradient></defs><title>unzipper</title><path class="cls-1" d="M120.51,32.94v-7.1c0-3.5-3.15-6.34-7-6.34H19.6a7.1,7.1,0,0,0-7,7.16V46.82"/><path class="cls-2" d="M121,28H87.58c-2.49,0-4.51,0-4.51,2.55h0c0,1.67-.58,5.83-1.49,7-1.06,1.35-2.58-.45-4.3-.45H16.65c-3.85,0-7,3.53-7,7.87V92.77A7.4,7.4,0,0,0,17,100.21H119.8c4.06,0,8.54-4.68,8.54-8.79V36.12C128.34,32,125.05,28,121,28Z"/><path class="cls-3" d="M116.85,95.83a6.75,6.75,0,0,0,6.77-6.74V35.37a6.76,6.76,0,0,0-6.77-6.74H86.11A4.14,4.14,0,0,0,82,32.76v5.92H65.72"/><path class="cls-3" d="M10.86,74.21V91.62a7.28,7.28,0,0,0,7.3,7.25H93.24"/><path class="cls-3" d="M52.7,38.79H15.81c-2.74,0-5,2.59-5,5.78"/><rect class="cls-4" x="53.06" y="38.79" width="5.75" height="3.33" rx="0.41" ry="0.41"/><rect class="cls-4" x="58.99" y="38.79" width="7.05" height="3.33" rx="0.45" ry="0.45"/><rect class="cls-4" x="53.06" y="43.71" width="5.75" height="3.68" rx="0.43" ry="0.43"/><rect class="cls-4" x="58.99" y="43.71" width="7.05" height="3.68" rx="0.47" ry="0.47"/><rect class="cls-4" x="53.06" y="48.62" width="5.75" height="4.02" rx="0.45" ry="0.45"/><rect class="cls-4" x="58.99" y="48.62" width="7.05" height="4.02" rx="0.5" ry="0.5"/><path class="cls-4" d="M58.49,57.18H55.87a2.81,2.81,0,0,1-2.81-2.8v-.2a.33.33,0,0,1,.33-.33h5.1a.33.33,0,0,1,.33.33v2.67A.33.33,0,0,1,58.49,57.18Z"/><path class="cls-4" d="M63.14,57.18H59.29a.3.3,0,0,1-.3-.31V54.16a.3.3,0,0,1,.3-.31h6.44a.31.31,0,0,1,.31.31v.12A2.9,2.9,0,0,1,63.14,57.18Z"/><path class="cls-5" d="M57.65,38.79a.37.37,0,0,1,.36.37v2.38a.36.36,0,0,1-.36.36H53.43a.37.37,0,0,1-.37-.36V39.16a.38.38,0,0,1,.37-.37h4.22m0-1.35H53.43a1.71,1.71,0,0,0-1.71,1.72v2.38a1.71,1.71,0,0,0,1.71,1.71h4.22a1.72,1.72,0,0,0,1.71-1.71V39.16a1.72,1.72,0,0,0-1.71-1.72Z"/><path class="cls-5" d="M63.88,38.79a.38.38,0,0,1,.37.37v2.38a.37.37,0,0,1-.37.36H59.66a.36.36,0,0,1-.36-.36V39.16a.37.37,0,0,1,.36-.37h4.22m0-1.35H59.66A1.72,1.72,0,0,0,58,39.16v2.38a1.72,1.72,0,0,0,1.71,1.71h4.22a1.72,1.72,0,0,0,1.72-1.71V39.16a1.72,1.72,0,0,0-1.72-1.72Z"/><path class="cls-5" d="M57.65,43.71a.36.36,0,0,1,.36.36v2.38a.37.37,0,0,1-.36.37H53.43a.38.38,0,0,1-.37-.37V44.07a.37.37,0,0,1,.37-.36h4.22m0-1.35H53.43a1.71,1.71,0,0,0-1.71,1.71v2.38a1.71,1.71,0,0,0,1.71,1.72h4.22a1.72,1.72,0,0,0,1.71-1.72V44.07a1.72,1.72,0,0,0-1.71-1.71Z"/><path class="cls-5" d="M63.88,43.71a.37.37,0,0,1,.37.36v2.38a.38.38,0,0,1-.37.37H59.66a.37.37,0,0,1-.36-.37V44.07a.36.36,0,0,1,.36-.36h4.22m0-1.35H59.66A1.72,1.72,0,0,0,58,44.07v2.38a1.72,1.72,0,0,0,1.71,1.72h4.22a1.72,1.72,0,0,0,1.72-1.72V44.07a1.72,1.72,0,0,0-1.72-1.71Z"/><path class="cls-5" d="M57.65,48.62A.37.37,0,0,1,58,49v2.38a.36.36,0,0,1-.36.36H53.43a.37.37,0,0,1-.37-.36V49a.38.38,0,0,1,.37-.37h4.22m0-1.35H53.43A1.71,1.71,0,0,0,51.72,49v2.38a1.71,1.71,0,0,0,1.71,1.71h4.22a1.72,1.72,0,0,0,1.71-1.71V49a1.72,1.72,0,0,0-1.71-1.72Z"/><path class="cls-5" d="M63.88,48.62a.38.38,0,0,1,.37.37v2.38a.37.37,0,0,1-.37.36H59.66a.36.36,0,0,1-.36-.36V49a.37.37,0,0,1,.36-.37h4.22m0-1.35H59.66A1.72,1.72,0,0,0,58,49v2.38a1.72,1.72,0,0,0,1.71,1.71h4.22a1.72,1.72,0,0,0,1.72-1.71V49a1.72,1.72,0,0,0-1.72-1.72Z"/><path class="cls-5" d="M57.72,53.54a.29.29,0,0,1,.29.29v2.52a.3.3,0,0,1-.29.3H55.58a2.52,2.52,0,0,1-2.52-2.52v-.3a.3.3,0,0,1,.3-.29h4.36m0-1.35H53.36a1.64,1.64,0,0,0-1.64,1.64v.3A3.87,3.87,0,0,0,55.58,58h2.14a1.65,1.65,0,0,0,1.64-1.65V53.83a1.65,1.65,0,0,0-1.64-1.64Z"/><path class="cls-5" d="M64,53.54a.27.27,0,0,1,.27.27v.3a2.54,2.54,0,0,1-2.54,2.54H59.57a.27.27,0,0,1-.27-.27V53.81a.27.27,0,0,1,.27-.27H64m0-1.35H59.57A1.61,1.61,0,0,0,58,53.81v2.57A1.62,1.62,0,0,0,59.57,58h2.14a3.9,3.9,0,0,0,3.89-3.89v-.3A1.62,1.62,0,0,0,64,52.19Z"/><path class="cls-4" d="M60.66,57.24H57.51a5.09,5.09,0,0,0-5.07,5.11v15.3A6.36,6.36,0,0,0,58.77,84h.63a6.35,6.35,0,0,0,6.32-6.39V62.35A5.09,5.09,0,0,0,60.66,57.24Zm1.69,20a3,3,0,0,1-3,3H58.8a3,3,0,0,1-3-3V71.77a1.89,1.89,0,0,1,1.88-1.9h2.78a1.89,1.89,0,0,1,1.88,1.9Zm0-12.78A1.6,1.6,0,0,1,60.76,66H57.4a1.6,1.6,0,0,1-1.59-1.6v-2a1.6,1.6,0,0,1,1.59-1.61h3.36a1.6,1.6,0,0,1,1.59,1.61Z"/><path class="cls-5" d="M59.86,57.91c2.14,0,3.87,2.12,3.87,4.74V76.86c0,3.27-2.16,5.92-4.83,5.92h-.49c-2.66,0-4.83-2.65-4.83-5.92V62.65c0-2.62,1.73-4.74,3.87-4.74h2.41m-2.49,8.15h2.57a1.37,1.37,0,0,0,1.21-1.49V62.72a1.37,1.37,0,0,0-1.21-1.49H57.37a1.37,1.37,0,0,0-1.21,1.49v1.85a1.37,1.37,0,0,0,1.21,1.49m1.07,13.18h.43a2.58,2.58,0,0,0,2.28-2.8v-5a1.63,1.63,0,0,0-1.43-1.77H57.59a1.63,1.63,0,0,0-1.43,1.77v5a2.58,2.58,0,0,0,2.28,2.8m1.42-22.68H57.45c-2.88,0-5.22,2.73-5.22,6.09V76.86c0,4,2.78,7.27,6.18,7.27h.49c3.4,0,6.18-3.26,6.18-7.27V62.65c0-3.36-2.34-6.09-5.22-6.09Zm-2.33,6h2.25a.46.46,0,0,1,0,.14v1.85a.46.46,0,0,1,0,.14H57.53a.46.46,0,0,1,0-.14V62.72a.46.46,0,0,1,0-.14Zm.11,8.4h2a.61.61,0,0,1,.13.42v5c0,.85-.49,1.45-.93,1.45h-.43c-.44,0-.93-.6-.93-1.45v-5a.61.61,0,0,1,.13-.42Z"/></svg>