<svg id="Layer_1" data-name="Layer 1" xmlns="http://www.w3.org/2000/svg" xmlns:xlink="http://www.w3.org/1999/xlink" viewBox="0 0 136 110"><defs><style>.cls-1{fill:url(#linear-gradient);}.cls-2,.cls-6,.cls-7{fill:none;}.cls-2,.cls-5,.cls-6,.cls-7{stroke:#7f4951;stroke-linecap:round;stroke-linejoin:round;}.cls-2{stroke-width:5px;}.cls-3{fill:#fff;}.cls-4{fill:url(#linear-gradient-2);}.cls-5{fill:#7f4951;}.cls-6{stroke-width:3px;}.cls-7{stroke-width:4px;}</style><linearGradient id="linear-gradient" x1="27.5" y1="92.58" x2="108.69" y2="11.39" gradientUnits="userSpaceOnUse"><stop offset="0" stop-color="#ff416c"/><stop offset="1" stop-color="#ff4b2b"/></linearGradient><linearGradient id="linear-gradient-2" x1="16.22" y1="90.82" x2="33.59" y2="73.45" gradientUnits="userSpaceOnUse"><stop offset="0" stop-color="#feffee"/><stop offset="1" stop-color="#f8ffae"/></linearGradient></defs><title>mediaplayer</title><path class="cls-1" d="M122.39,77.89a8.88,8.88,0,0,1-4.46,4.2C103.45,88.36,78.6,89.78,68,89.78s-34.36-1.42-49.74-7.52a8.77,8.77,0,0,1-4.85-4.56A60.81,60.81,0,0,1,8.65,52.09c0-5.52,0-17.44,5.8-27a8.33,8.33,0,0,1,4.33-3.45C35,15.81,57.66,14.39,68,14.39c10.63,0,34.33,1.42,50.58,7.76a7.13,7.13,0,0,1,4.11,4.1,66.87,66.87,0,0,1,4.66,25.84C127.35,57.32,127.35,67.71,122.39,77.89Z"/><path class="cls-2" d="M115.23,24.27a6.7,6.7,0,0,1,3.89,3.88,63.14,63.14,0,0,1,4.42,24.45c0,5,0,14.79-4.7,24.42a8.36,8.36,0,0,1-4.22,4c-13.7,5.93-37.22,7.28-47.25,7.28"/><path class="cls-3" d="M54.26,69.52V35.34a1.88,1.88,0,0,1,2.89-1.58L83.59,50.85a1.88,1.88,0,0,1,0,3.15L57.15,71.09A1.88,1.88,0,0,1,54.26,69.52Z"/><path class="cls-2" d="M56.54,66.64V37.15a4.24,4.24,0,0,1,6.54-3.56L85.89,48.33a4.25,4.25,0,0,1,0,7.13L63.08,70.2A4.24,4.24,0,0,1,56.54,66.64Z"/><path class="cls-4" d="M35.46,79.41c-1.84-.31-3.2-1.51-3.2-3A2.93,2.93,0,0,1,34.1,74a7.24,7.24,0,0,0-4.46-2.12,6.38,6.38,0,0,0-3.92,1.81A6.39,6.39,0,0,0,20,70.42c-3.48,0-4.71,2-5.89,4.84-.61,1.46.94,3.14,1.61,4-2.35,1.86-4.29,4.73-3.16,7.34a6.43,6.43,0,0,0,7.18,3.48A6.2,6.2,0,0,0,26,95.6c6.05.2,7.35-2.1,7.68-6.3a2,2,0,0,1,0-.25c2-.4,4.2-.7,4.6-4.53C38.64,81.29,35.45,79.43,35.46,79.41Z"/><path class="cls-5" d="M24,75.11a2.87,2.87,0,0,1,1,2.16,2.91,2.91,0,0,1-1,2.16c1.51-.12,2.69-1,2.69-2.16S25.55,75.23,24,75.11Z"/><path class="cls-6" d="M23.13,86.78a5.85,5.85,0,0,0-3,.57,2.32,2.32,0,0,0-1.32,2.27"/><path class="cls-7" d="M24.62,93.73c5.17.17,6.29-1.79,6.56-5.39,0-.07,0-.14,0-.21,1.69-.34,3.59-.6,3.93-3.87.3-2.77-2.44-4.36-2.43-4.38C31.13,79.62,30,78.59,30,77.37a2.49,2.49,0,0,1,1.57-2.15,6.18,6.18,0,0,0-3.81-1.81A5.45,5.45,0,0,0,24.37,75"/><path class="cls-7" d="M24.64,93.67a5.83,5.83,0,0,1-5.87-5.17A6,6,0,0,1,12,85.24c-1.07-2.45.76-5.15,3-6.89,0,0-2.6-5.29,2.68-7.53,0,0,2.36-2.38,5.94.61"/><path class="cls-2" d="M13.41,77.7A60.81,60.81,0,0,1,8.65,52.09c0-5.52,0-17.44,5.8-27a8.33,8.33,0,0,1,4.33-3.45C35,15.81,57.66,14.39,68,14.39"/></svg>