<svg id="Layer_1" data-name="Layer 1" xmlns="http://www.w3.org/2000/svg" viewBox="0 0 456 456"><defs><style>.cls-1{opacity:0.05;}.cls-2{fill:#2b2b2b;}</style></defs><title>background_a</title><g class="cls-1"><path class="cls-2" d="M159,296.62a3.59,3.59,0,0,0,1.22.2h.62a7.25,7.25,0,0,0,5.19-2.35,3.87,3.87,0,0,0,.89-1.36L228,132.8l61.22,160.64a6.37,6.37,0,0,0,4,3.63,5.91,5.91,0,0,0,1.48.19,4.79,4.79,0,0,0,2.78-.84,6.34,6.34,0,0,0,3.6-4,5.56,5.56,0,0,0-.6-4.26L233.63,113.58c-.4-2.14-2.2-4.16-5.63-4.16a7.28,7.28,0,0,0-5.19,2.37,3.54,3.54,0,0,0-.89,1.36L154.77,288.49a3.59,3.59,0,0,0-.26,1.37C154.51,293.16,156.2,295.69,159,296.62Z"/><path class="cls-2" d="M145.25,324.58a239.82,239.82,0,0,0,162.7.62,237.5,237.5,0,0,0,71.37-40.67,7,7,0,0,0,1.76-5.24,3.83,3.83,0,0,0-.25-1.38L275.75,3.7a3.86,3.86,0,0,0-.91-1.38A7.35,7.35,0,0,0,269.66,0H185.72c-3.42,0-5.22,2-5.63,4.13l-105.53,275a4.06,4.06,0,0,0-.25,1.38,7.15,7.15,0,0,0,2,5.47A235.29,235.29,0,0,0,145.25,324.58ZM265.77,12.67,367.65,278.05a219.5,219.5,0,0,1-64.43,35.54,230.7,230.7,0,0,1-76.46,12.84A219.56,219.56,0,0,1,149.67,313a221.51,221.51,0,0,1-61.92-33.72L190.24,12.67Z"/><path class="cls-2" d="M445.27,447.08,405.71,342.59a4,4,0,0,0-.88-1.35l-.15-.15a5.24,5.24,0,0,0-2.59-2.33,6,6,0,0,0-4.54.12,3.82,3.82,0,0,0-2.2.83,236.81,236.81,0,0,1-37,24.16,292.21,292.21,0,0,1-40.8,17.48c-60.14,20.31-128.55,19.53-189.81-2.91a5.44,5.44,0,0,0-4.9-.24,4.82,4.82,0,0,0-3.7,4.05L95.81,442.88H25.69L76.65,309a5.52,5.52,0,0,0,.61-4.22,6.41,6.41,0,0,0-3.59-4,3.9,3.9,0,0,0-1.74-.41c-4.56,0-6.51,2.42-6.88,4.8L9.89,447.66A4.06,4.06,0,0,0,9.64,449c0,.88,0,3.55,1.7,5.16A6.17,6.17,0,0,0,16,456H440a6.25,6.25,0,0,0,4.58-1.74A5.33,5.33,0,0,0,445.27,447.08Zm-85.12-4.2L348.7,414a5.21,5.21,0,0,0-2.22-3.77,6,6,0,0,0-5.47-.42,5.31,5.31,0,0,0-4.39,2.58,5.45,5.45,0,0,0,.33,5.72l9.47,24.79H109.56l19.35-51.09a293.13,293.13,0,0,0,193,1.22,279.36,279.36,0,0,0,74.7-38.58l33.73,88.45Z"/></g></svg>