<svg id="Layer_1" data-name="Layer 1" xmlns="http://www.w3.org/2000/svg" viewBox="0 0 147.51 44.8"><defs><style>.cls-1{fill:#bababa;}</style></defs><title>awoolo_footer_logo</title><path class="cls-1" d="M56.31,20a6.11,6.11,0,0,0-3.17.89c-.57.31-.85.56-1.24.56a1.35,1.35,0,0,1-1.2-1.41c0-.43.32-.85,1.06-1.31a9.31,9.31,0,0,1,4.84-1.23c2.26,0,3.95.63,4.87,1.9a6.15,6.15,0,0,1,1,3.85v9c0,.85-.35,1.27-1.41,1.27-.88,0-1.3-.28-1.3-.95v-.85A6.23,6.23,0,0,1,55,33.65c-3.18,0-5-1.76-5-4.41,0-3.21,2.79-4.91,9.57-5.44v-.46C59.53,21.15,58.65,20,56.31,20ZM53.1,29c0,1.23.85,2.19,2.83,2.19a5.55,5.55,0,0,0,3.6-1.38V25.78C55.12,26.27,53.1,27.09,53.1,29Z"/><path class="cls-1" d="M72.81,32a1.85,1.85,0,0,1-2,1.55c-1.17,0-1.63-.46-1.94-1.55L65.26,19.6a6,6,0,0,1-.18-1c0-.53.32-1,1.41-1S67.9,18,68.19,19l3,11,3.5-10.39c.32-1,.77-1.48,1.83-1.48a1.72,1.72,0,0,1,1.84,1.45L81.75,30l3.07-11c.24-1,.53-1.38,1.59-1.38s1.41.43,1.41,1a6,6,0,0,1-.21,1L83.83,32.07a1.78,1.78,0,0,1-2,1.51c-1.2,0-1.62-.46-2-1.55L76.41,21.79Z"/><path class="cls-1" d="M97.18,17.45c4.7,0,7.7,3.21,7.7,8.12s-3,8.19-7.77,8.19-7.66-3.21-7.66-8.12S92.49,17.45,97.18,17.45Zm0,13.87c2.83,0,4.59-2.22,4.59-5.68s-1.8-5.79-4.62-5.79-4.63,2.22-4.63,5.72S94.36,31.32,97.18,31.32Z"/><path class="cls-1" d="M114.88,17.45c4.69,0,7.7,3.21,7.7,8.12s-3,8.19-7.77,8.19-7.67-3.21-7.67-8.12S110.18,17.45,114.88,17.45Zm0,13.87c2.82,0,4.59-2.22,4.59-5.68s-1.8-5.79-4.63-5.79-4.62,2.22-4.62,5.72S112.05,31.32,114.88,31.32Z"/><path class="cls-1" d="M128.8,32.35c0,.81-.46,1.23-1.45,1.23s-1.52-.42-1.52-1.23V10.52c0-.81.46-1.23,1.45-1.23s1.52.42,1.52,1.23Z"/><path class="cls-1" d="M139.81,17.45c4.7,0,7.7,3.21,7.7,8.12s-3,8.19-7.77,8.19-7.66-3.21-7.66-8.12S135.12,17.45,139.81,17.45Zm0,13.87c2.83,0,4.59-2.22,4.59-5.68s-1.8-5.79-4.62-5.79-4.63,2.22-4.63,5.72S137,31.32,139.81,31.32Z"/><path class="cls-1" d="M41.82,43.93h-8.1a.35.35,0,0,1-.24-.12L32.22,40.5q-.18-.3.12-.3t.3.12L33.9,43.5h7.56L37.8,33.9a26.44,26.44,0,0,1-7.5,4,27.95,27.95,0,0,1-18.74-.24L9.22,43.81a.35.35,0,0,1-.24.12H.87a.24.24,0,0,1-.18-.06.35.35,0,0,1-.06-.24L6,29.81q0-.18.3-.18c.16.09.2.18.12.3L1.23,43.5H8.8l2.4-6.24a.11.11,0,0,1,.12-.12s.1,0,.18,0a28.05,28.05,0,0,0,9.73,1.74,27.65,27.65,0,0,0,8.89-1.44,28.51,28.51,0,0,0,4-1.71,23,23,0,0,0,3.63-2.37h.06q.24-.12.3.06l.06.06L42,43.63a.15.15,0,0,1,0,.24A.24.24,0,0,1,41.82,43.93ZM21.23,32.64a22.8,22.8,0,0,1-7.75-1.38,22.28,22.28,0,0,1-6.54-3.67.35.35,0,0,1-.06-.24L17.09.75q0-.12.18-.12h8.1a.35.35,0,0,1,.24.12L35.76,27.23a.35.35,0,0,1-.06.24,22.39,22.39,0,0,1-6.76,3.85A22.72,22.72,0,0,1,21.23,32.64ZM7.36,27.35a21.57,21.57,0,0,0,6.3,3.48,21.3,21.3,0,0,0,7.57,1.33,22.54,22.54,0,0,0,7.5-1.26,21.45,21.45,0,0,0,6.55-3.67l-10-26.12h-7.8Zm7.5,1.2H14.8a.28.28,0,0,1-.18-.3l6.49-16.93a.35.35,0,0,1,.24-.12q.18,0,.18.12L28,28.25q.12.18-.12.3t-.3-.12L21.35,12,15.1,28.43A.35.35,0,0,1,14.86,28.55Z"/><path class="cls-1" d="M41.82,44.56h-8.1a1,1,0,0,1-.69-.31.55.55,0,0,1-.14-.22l-1.26-3.3a.73.73,0,0,1,0-.77.75.75,0,0,1,.6-.38.81.81,0,0,1,.73.08.79.79,0,0,1,.32.51l1.07,2.7h6.22l-3-8a27.56,27.56,0,0,1-7,3.56,28.74,28.74,0,0,1-18.57,0L9.81,44a.54.54,0,0,1-.15.22,1,1,0,0,1-.68.31H.87a.83.83,0,0,1-.63-.26A.89.89,0,0,1,0,43.63a.59.59,0,0,1,0-.23L5.36,29.65A.86.86,0,0,1,6.28,29a.64.64,0,0,1,.28.07.85.85,0,0,1,.48.56.79.79,0,0,1-.07.58L2.15,42.87H8.37l2.21-5.76a.72.72,0,0,1,.53-.57.79.79,0,0,1,.67,0,27.7,27.7,0,0,0,18.13.27,27.86,27.86,0,0,0,3.91-1.67,22.74,22.74,0,0,0,3.53-2.31.61.61,0,0,1,.31-.13.86.86,0,0,1,.6,0,.84.84,0,0,1,.38.34,1.25,1.25,0,0,1,.11.18l3.81,10.06a.77.77,0,0,1,.14.44.81.81,0,0,1-.25.57A.87.87,0,0,1,41.82,44.56Zm-9.07-4.39v0A0,0,0,0,0,32.75,40.17ZM5.87,29.59Zm15.36,3.68a23.5,23.5,0,0,1-8-1.42,23,23,0,0,1-6.73-3.77,1,1,0,0,1-.29-.73.57.57,0,0,1,0-.22L16.47.59a.76.76,0,0,1,.8-.59h8.1a1,1,0,0,1,.68.3.51.51,0,0,1,.15.23L36.35,27a.57.57,0,0,1,0,.22.93.93,0,0,1-.24.69,23.38,23.38,0,0,1-7,4A23.52,23.52,0,0,1,21.23,33.27ZM8.12,27.14a21.21,21.21,0,0,0,5.75,3.1,22.13,22.13,0,0,0,14.66.06,20.9,20.9,0,0,0,6-3.27L24.82,1.74H17.88Zm19.67,2.09a.76.76,0,0,1-.21,0,.85.85,0,0,1-.55-.49L21.35,13.82,15.69,28.66a.64.64,0,0,1-.14.22,1,1,0,0,1-.69.3H14.8a.63.63,0,0,1-.19,0,.91.91,0,0,1-.62-.9A.85.85,0,0,1,14,28l6.49-16.94a.64.64,0,0,1,.14-.22,1,1,0,0,1,.69-.3.76.76,0,0,1,.79.59L28.59,28a.81.81,0,0,1,.07.59.91.91,0,0,1-.49.55A.63.63,0,0,1,27.79,29.23Z"/><rect class="cls-1" x="1.43" y="43.03" width="39.88" height="1.77"/></svg>