<svg id="Layer_1" data-name="Layer 1" xmlns="http://www.w3.org/2000/svg" viewBox="0 0 117.51 35.69"><defs><style>.cls-1{fill:#2b2b2b;}.cls-2{fill:#333;}</style></defs><title>awoolo_header_logo</title><path class="cls-1" d="M44.86,16a4.91,4.91,0,0,0-2.53.7c-.45.26-.67.45-1,.45a1.07,1.07,0,0,1-1-1.12c0-.34.25-.68.84-1a7.39,7.39,0,0,1,3.86-1A4.55,4.55,0,0,1,49,15.47a4.93,4.93,0,0,1,.76,3.07v7.2c0,.68-.28,1-1.13,1s-1-.22-1-.76v-.67a5,5,0,0,1-3.77,1.49c-2.53,0-4-1.41-4-3.52,0-2.56,2.22-3.91,7.62-4.33V18.6C47.42,16.85,46.72,16,44.86,16ZM42.3,23.12c0,1,.68,1.75,2.25,1.75a4.42,4.42,0,0,0,2.87-1.1V20.54C43.91,20.93,42.3,21.58,42.3,23.12Z"/><path class="cls-1" d="M58,25.52a1.46,1.46,0,0,1-1.6,1.23c-.93,0-1.29-.36-1.55-1.23L52,15.61a6.59,6.59,0,0,1-.14-.81c0-.42.26-.76,1.13-.76s1.12.28,1.35,1.09l2.36,8.78,2.79-8.27c.25-.79.62-1.18,1.46-1.18a1.36,1.36,0,0,1,1.46,1.15l2.73,8.3,2.45-8.78c.19-.78.42-1.09,1.26-1.09s1.13.34,1.13.76a4.35,4.35,0,0,1-.17.81l-3,9.93a1.4,1.4,0,0,1-1.57,1.21c-1,0-1.3-.36-1.58-1.23l-2.76-8.16Z"/><path class="cls-1" d="M77.42,13.9c3.74,0,6.13,2.56,6.13,6.47s-2.42,6.52-6.19,6.52-6.1-2.56-6.1-6.47S73.68,13.9,77.42,13.9Zm0,11c2.25,0,3.66-1.77,3.66-4.53s-1.44-4.61-3.69-4.61-3.69,1.77-3.69,4.56S75.17,25,77.42,25Z"/><path class="cls-1" d="M91.51,13.9c3.75,0,6.14,2.56,6.14,6.47s-2.42,6.52-6.19,6.52-6.11-2.56-6.11-6.47S87.77,13.9,91.51,13.9Zm0,11c2.26,0,3.66-1.77,3.66-4.53s-1.43-4.61-3.68-4.61-3.69,1.77-3.69,4.56S89.26,25,91.51,25Z"/><path class="cls-1" d="M102.6,25.77c0,.65-.36,1-1.15,1s-1.21-.33-1.21-1V8.38c0-.64.36-1,1.15-1s1.21.34,1.21,1Z"/><path class="cls-1" d="M111.38,13.9c3.74,0,6.13,2.56,6.13,6.47s-2.42,6.52-6.19,6.52-6.1-2.56-6.1-6.47S107.64,13.9,111.38,13.9Zm0,11c2.25,0,3.66-1.77,3.66-4.53s-1.44-4.61-3.69-4.61-3.68,1.77-3.68,4.56S109.13,25,111.38,25Z"/><path class="cls-2" d="M33.32,35H26.86a.28.28,0,0,1-.19-.09l-1-2.63c-.09-.16-.06-.24.1-.24s.24,0,.24.09l1,2.54h6L30.11,27a20.67,20.67,0,0,1-6,3.16A22.17,22.17,0,0,1,9.21,30L7.34,34.9a.26.26,0,0,1-.19.09H.69a.16.16,0,0,1-.14-.05.27.27,0,0,1-.05-.19l4.26-11c0-.09.08-.14.24-.14s.16.14.1.24L1,34.66H7l1.91-5c0-.06,0-.09.1-.09s.08,0,.14,0A22.42,22.42,0,0,0,16.91,31,22.06,22.06,0,0,0,24,29.83a22.73,22.73,0,0,0,3.18-1.37,17.56,17.56,0,0,0,2.9-1.89h0c.13-.06.21,0,.24.05l0,.05,3.06,8.08c.07.07.07.13,0,.19A.16.16,0,0,1,33.32,35ZM16.91,26a18.22,18.22,0,0,1-6.17-1.1A17.7,17.7,0,0,1,5.53,22s0-.09,0-.19L13.61.6c0-.06.05-.1.14-.1h6.46a.28.28,0,0,1,.19.1l8.09,21.09a.32.32,0,0,1,0,.2A17.95,17.95,0,0,1,16.91,26Zm-11-4.21a17.43,17.43,0,0,0,5,2.77,16.92,16.92,0,0,0,6,1.06,18,18,0,0,0,6-1,17,17,0,0,0,5.21-2.92l-8-20.8H13.9Zm6,1h-.05a.24.24,0,0,1-.14-.24L16.82,9a.24.24,0,0,1,.19-.1c.09,0,.14,0,.14.1l5.17,13.49c.06.09,0,.17-.1.24s-.18,0-.24-.1L17,9.59,12,22.65A.3.3,0,0,1,11.84,22.75Z"/><path class="cls-2" d="M33.32,35.5H26.86a.8.8,0,0,1-.55-.25.45.45,0,0,1-.11-.17l-1-2.63a.6.6,0,0,1,0-.62.63.63,0,0,1,.48-.3.7.7,0,0,1,.58.06.65.65,0,0,1,.25.41l.86,2.15H32.3L29.88,27.8a21.91,21.91,0,0,1-5.58,2.84,22.85,22.85,0,0,1-14.79,0l-1.7,4.47a.45.45,0,0,1-.11.17.78.78,0,0,1-.55.25H.69a.69.69,0,0,1-.5-.21A.72.72,0,0,1,0,34.75a.57.57,0,0,1,0-.18L4.27,23.62A.68.68,0,0,1,5,23.1a.46.46,0,0,1,.23.06.69.69,0,0,1,.38.44.62.62,0,0,1-.06.46L1.71,34.15h5l1.77-4.59a.56.56,0,0,1,.42-.45.62.62,0,0,1,.53,0,22.1,22.1,0,0,0,14.45.21A22.72,22.72,0,0,0,26.94,28a17.85,17.85,0,0,0,2.81-1.84.62.62,0,0,1,.25-.11.64.64,0,0,1,.48,0,.59.59,0,0,1,.3.26.49.49,0,0,1,.09.15l3,8a.67.67,0,0,1,.1.35.61.61,0,0,1-.2.45A.64.64,0,0,1,33.32,35.5ZM26.09,32v0S26.1,32,26.09,32ZM4.68,23.57ZM16.91,26.5a18.73,18.73,0,0,1-6.34-1.13,18,18,0,0,1-5.36-3A.77.77,0,0,1,5,21.79a.57.57,0,0,1,0-.18L13.12.47A.61.61,0,0,1,13.75,0h6.46a.78.78,0,0,1,.55.24.42.42,0,0,1,.11.18L29,21.51a.57.57,0,0,1,0,.18.74.74,0,0,1-.19.55,18.38,18.38,0,0,1-5.57,3.18A18.65,18.65,0,0,1,16.91,26.5ZM6.47,21.62a17,17,0,0,0,4.58,2.47,17.62,17.62,0,0,0,11.67.05,16.83,16.83,0,0,0,4.78-2.61L19.77,1.39H14.24Zm15.67,1.66a.5.5,0,0,1-.17,0,.68.68,0,0,1-.44-.39L17,11,12.5,22.83a.42.42,0,0,1-.11.18.76.76,0,0,1-.55.24h-.05l-.16,0a.71.71,0,0,1-.48-.71.52.52,0,0,1,0-.18L16.34,8.84a.57.57,0,0,1,.12-.18A.76.76,0,0,1,17,8.42a.61.61,0,0,1,.63.47l5.13,13.4a.64.64,0,0,1,.06.47.71.71,0,0,1-.39.44A.53.53,0,0,1,22.14,23.28Z"/><rect class="cls-1" x="1.14" y="34.28" width="31.77" height="1.41"/></svg>