<svg id="Layer_1" data-name="Layer 1" xmlns="http://www.w3.org/2000/svg" viewBox="0 0 90 90"><defs><style>.cls-1{fill:#2b2b2b;}</style></defs><title> awoolo_mobile_nav</title><g id="_14UeR8.tif" data-name="14UeR8.tif"><path class="cls-1" d="M5.93,76.66C3.22,75.48,1,73.91.83,70.59A6.2,6.2,0,0,1,6.23,64,18,18,0,0,1,9,63.88H81c.45,0,.91,0,1.37,0C85.87,64,88.49,66,89,69c.6,3.25-1,5.85-4.48,7.28a2.84,2.84,0,0,0-.54.39Z"/><path class="cls-1" d="M45,13.35q18.12,0,36.25,0a13.37,13.37,0,0,1,3.4.36,6,6,0,0,1,4.44,6,6.08,6.08,0,0,1-4.44,6,11.17,11.17,0,0,1-2.94.36q-36.7,0-73.42,0a12.05,12.05,0,0,1-2.94-.33A6.08,6.08,0,0,1,.82,19.58a6,6,0,0,1,4.56-5.89,14.27,14.27,0,0,1,3.4-.33Q26.9,13.33,45,13.35Z"/><path class="cls-1" d="M45.06,38.61c12.23,0,24.47-.07,36.7.08A10.38,10.38,0,0,1,87,40.39c2,1.31,2.48,3.64,2,6a5.74,5.74,0,0,1-4.33,4.58,13.32,13.32,0,0,1-3.4.36q-36.24,0-72.5,0A13.87,13.87,0,0,1,5.35,51,6.23,6.23,0,0,1,5.4,39a13,13,0,0,1,3.18-.32Q26.82,38.59,45.06,38.61Z"/></g></svg>