<svg id="Layer_1" data-name="Layer 1" xmlns="http://www.w3.org/2000/svg" viewBox="0 0 18 18"><defs><style>.cls-1{fill:#303030;}</style></defs><title>search_icon</title><g id="_5Yi3QO.tif" data-name="5Yi3QO.tif"><path class="cls-1" d="M.42,7.79V7.23a.78.78,0,0,0,0-.16A6.81,6.81,0,0,1,.66,5.73,7,7,0,0,1,7.11.49h.67L8,.51A6.36,6.36,0,0,1,9.36.75a7,7,0,0,1,5.11,6.38,6.84,6.84,0,0,1-.09,1.63,7.08,7.08,0,0,1-.89,2.37l-.05.09.07,0,3.93,3.93a.46.46,0,0,1,.14.2v.23a1.13,1.13,0,0,1-.08.24,1.57,1.57,0,0,1-.36.52c-.22.23-.44.45-.67.67a1.64,1.64,0,0,1-.76.45h-.23a1,1,0,0,1-.23-.17l-3.87-3.88-.07-.06-.06,0A7,7,0,0,1,7,14.53a7.48,7.48,0,0,1-1.23-.19A7.06,7.06,0,0,1,.44,8,1,1,0,0,0,.42,7.79Zm2.34-.28a4.7,4.7,0,1,0,4.7-4.69A4.69,4.69,0,0,0,2.76,7.51Z"/></g></svg>