<svg id="Layer_1" data-name="Layer 1" xmlns="http://www.w3.org/2000/svg" viewBox="0 0 18 18"><defs><style>.cls-1{fill:#fff;}</style></defs><title>tick_icon</title><path class="cls-1" d="M16.42,4.7A8.35,8.35,0,0,1,17.57,9a8.32,8.32,0,0,1-1.15,4.3,8.34,8.34,0,0,1-3.12,3.12A8.35,8.35,0,0,1,9,17.57a8.35,8.35,0,0,1-4.3-1.15A8.34,8.34,0,0,1,1.58,13.3,8.32,8.32,0,0,1,.43,9,8.35,8.35,0,0,1,1.58,4.7,8.34,8.34,0,0,1,4.7,1.58,8.35,8.35,0,0,1,9,.43a8.35,8.35,0,0,1,4.3,1.15A8.34,8.34,0,0,1,16.42,4.7ZM14.76,7.19a.69.69,0,0,0-.2-.51l-1-1a.7.7,0,0,0-1,0L8,10.22,5.46,7.69a.7.7,0,0,0-1,0l-1,1a.69.69,0,0,0-.2.51.69.69,0,0,0,.2.5l4,4A.66.66,0,0,0,8,14a.67.67,0,0,0,.52-.22l6.06-6.06A.69.69,0,0,0,14.76,7.19Z"/></svg>