<svg xmlns="http://www.w3.org/2000/svg" viewBox="0 0 384 512">
  <path fill="currentColor" d="M369.9 97.9L286 14A48 48 0 0 0 252.1-.1H48C21.5 0 0 21.5 0 48v416a48 48 0 0 0 48 48h288a48 48 0 0 0 48-48V131.9c0-12.7-5.1-25-14.1-34zM332.1 128H256V51.9l76.1 76.1zM48 464V48h160v104a24 24 0 0 0 24 24h104v288H48zm220.1-208c-5.7 0-10.6 4-11.7 9.5-20.6 97.7-20.4 95.4-21 103.5l-.7-4.3c-.8-5.1.3.2-23.6-99.5a12 12 0 0 0-11.7-9.2h-13.3c-5.5 0-10.3 3.8-11.7 9.1-24.4 99-24 96.2-24.8 103.7l-.5-4.2c-.7-5.2-14.1-73.3-19.1-99a12 12 0 0 0-11.8-9.7h-16.8a12 12 0 0 0-11.7 14.8l33.2 136c1.3 5.4 6.1 9.1 11.7 9.1h25.2c5.5 0 10.3-3.7 11.6-9.1l17.9-71.4c1.5-6.2 2.5-12 3-17.3l2.9 17.3 17.9 71.4a12 12 0 0 0 11.6 9.1h24.7c5.5 0 10.3-3.7 11.6-9.1l34.5-136a12 12 0 0 0-11.6-14.9h-15.8z"/>
</svg>
