<svg id="Layer_1" data-name="Layer 1" xmlns="http://www.w3.org/2000/svg" xmlns:xlink="http://www.w3.org/1999/xlink" viewBox="0 0 136 110"><defs><style>.cls-1{fill:none;}.cls-2{clip-path:url(#clip-path);}.cls-3{clip-path:url(#clip-path-2);}.cls-4{fill:#833ab4;}.cls-5{fill:#843ab3;}.cls-6{fill:#853ab2;}.cls-7{fill:#8539b1;}.cls-8{fill:#8639b0;}.cls-9{fill:#8739af;}.cls-10{fill:#8839ae;}.cls-11{fill:#8939ad;}.cls-12{fill:#8a38ac;}.cls-13{fill:#8a38ab;}.cls-14{fill:#8b38aa;}.cls-15{fill:#8c38a9;}.cls-16{fill:#8d38a8;}.cls-17{fill:#8e37a7;}.cls-18{fill:#8e37a6;}.cls-19{fill:#8f37a5;}.cls-20{fill:#9037a4;}.cls-21{fill:#9137a3;}.cls-22{fill:#9237a2;}.cls-23{fill:#9236a1;}.cls-24{fill:#9336a0;}.cls-25{fill:#94369f;}.cls-26{fill:#95369e;}.cls-27{fill:#96369d;}.cls-28{fill:#97359c;}.cls-29{fill:#97359b;}.cls-30{fill:#98359a;}.cls-31{fill:#993599;}.cls-32{fill:#9a3598;}.cls-33{fill:#9b3497;}.cls-34{fill:#9b3496;}.cls-35{fill:#9c3495;}.cls-36{fill:#9d3494;}.cls-37{fill:#9e3493;}.cls-38{fill:#9f3392;}.cls-39{fill:#9f3391;}.cls-40{fill:#a03390;}.cls-41{fill:#a1338f;}.cls-42{fill:#a2338e;}.cls-43{fill:#a3328d;}.cls-44{fill:#a4328c;}.cls-45{fill:#a4328b;}.cls-46{fill:#a5328a;}.cls-47{fill:#a63289;}.cls-48{fill:#a73188;}.cls-49{fill:#a83187;}.cls-50{fill:#a83186;}.cls-51{fill:#a93185;}.cls-52{fill:#aa3184;}.cls-53{fill:#ab3183;}.cls-54{fill:#ac3082;}.cls-55{fill:#ac3081;}.cls-56{fill:#ad3080;}.cls-57{fill:#ae307f;}.cls-58{fill:#af307e;}.cls-59{fill:#b02f7d;}.cls-60{fill:#b12f7c;}.cls-61{fill:#b12f7b;}.cls-62{fill:#b22f7a;}.cls-63{fill:#b32f79;}.cls-64{fill:#b42e78;}.cls-65{fill:#b52e77;}.cls-66{fill:#b52e76;}.cls-67{fill:#b62e75;}.cls-68{fill:#b72e74;}.cls-69{fill:#b82d73;}.cls-70{fill:#b92d72;}.cls-71{fill:#b92d71;}.cls-72{fill:#ba2d70;}.cls-73{fill:#bb2d6f;}.cls-74{fill:#bc2c6e;}.cls-75{fill:#bd2c6d;}.cls-76{fill:#be2c6c;}.cls-77{fill:#be2c6b;}.cls-78{fill:#bf2c6a;}.cls-79{fill:#c02c69;}.cls-80{fill:#c12b67;}.cls-81{fill:#c22b66;}.cls-82{fill:#c22b65;}.cls-83{fill:#c32b64;}.cls-84{fill:#c42b63;}.cls-85{fill:#c52a62;}.cls-86{fill:#c62a61;}.cls-87{fill:#c72a60;}.cls-88{fill:#c72a5f;}.cls-89{fill:#c82a5e;}.cls-90{fill:#c9295d;}.cls-91{fill:#ca295c;}.cls-92{fill:#cb295b;}.cls-93{fill:#cb295a;}.cls-94{fill:#cc2959;}.cls-95{fill:#cd2858;}.cls-96{fill:#ce2857;}.cls-97{fill:#cf2856;}.cls-98{fill:#cf2855;}.cls-99{fill:#d02854;}.cls-100{fill:#d12753;}.cls-101{fill:#d22752;}.cls-102{fill:#d32751;}.cls-103{fill:#d42750;}.cls-104{fill:#d4274f;}.cls-105{fill:#d5264e;}.cls-106{fill:#d6264d;}.cls-107{fill:#d7264c;}.cls-108{fill:#d8264b;}.cls-109{fill:#d8264a;}.cls-110{fill:#d92649;}.cls-111{fill:#da2548;}.cls-112{fill:#db2547;}.cls-113{fill:#dc2546;}.cls-114{fill:#dc2545;}.cls-115{fill:#dd2544;}.cls-116{fill:#de2443;}.cls-117{fill:#df2442;}.cls-118{fill:#e02441;}.cls-119{fill:#e12440;}.cls-120{fill:#e1243f;}.cls-121{fill:#e2233e;}.cls-122{fill:#e3233d;}.cls-123{fill:#e4233c;}.cls-124{fill:#e5233b;}.cls-125{fill:#e5233a;}.cls-126{fill:#e62239;}.cls-127{fill:#e72238;}.cls-128{fill:#e82237;}.cls-129{fill:#e92236;}.cls-130{fill:#e92235;}.cls-131{fill:#ea2134;}.cls-132{fill:#eb2133;}.cls-133{fill:#ec2132;}.cls-134{fill:#ed2131;}.cls-135{fill:#ee2130;}.cls-136{fill:#ee202f;}.cls-137{fill:#ef202e;}.cls-138{fill:#f0202d;}.cls-139{fill:#f1202c;}.cls-140{fill:#f2202b;}.cls-141{fill:#f2202a;}.cls-142{fill:#f31f29;}.cls-143{fill:#f41f28;}.cls-144{fill:#f51f27;}.cls-145{fill:#f61f26;}.cls-146{fill:#f61f25;}.cls-147{fill:#f71e24;}.cls-148{fill:#f81e23;}.cls-149{fill:#f91e22;}.cls-150{fill:#fa1e21;}.cls-151{fill:#fb1e20;}.cls-152{fill:#fb1d1f;}.cls-153{fill:#fc1d1e;}.cls-154{fill:#fd1d1d;}.cls-155{fill:#fd1e1d;}.cls-156{fill:#fd1f1e;}.cls-157{fill:#fd201e;}.cls-158{fill:#fd211e;}.cls-159{fill:#fd221e;}.cls-160{fill:#fd231f;}.cls-161{fill:#fd241f;}.cls-162{fill:#fd251f;}.cls-163{fill:#fd261f;}.cls-164{fill:#fd2720;}.cls-165{fill:#fd2820;}.cls-166{fill:#fd2920;}.cls-167{fill:#fd2a21;}.cls-168{fill:#fd2b21;}.cls-169{fill:#fd2c21;}.cls-170{fill:#fd2d21;}.cls-171{fill:#fd2e22;}.cls-172{fill:#fd2f22;}.cls-173{fill:#fd3022;}.cls-174{fill:#fd3122;}.cls-175{fill:#fd3223;}.cls-176{fill:#fd3323;}.cls-177{fill:#fd3423;}.cls-178{fill:#fd3524;}.cls-179{fill:#fd3624;}.cls-180{fill:#fd3724;}.cls-181{fill:#fd3824;}.cls-182{fill:#fd3925;}.cls-183{fill:#fd3a25;}.cls-184{fill:#fd3b25;}.cls-185{fill:#fd3c25;}.cls-186{fill:#fd3d26;}.cls-187{fill:#fd3e26;}.cls-188{fill:#fd3f26;}.cls-189{fill:#fd4027;}.cls-190{fill:#fd4127;}.cls-191{fill:#fd4227;}.cls-192{fill:#fd4327;}.cls-193{fill:#fd4428;}.cls-194{fill:#fd4528;}.cls-195{fill:#fd4628;}.cls-196{fill:#fd4729;}.cls-197{fill:#fd4829;}.cls-198{fill:#fd4929;}.cls-199{fill:#fd4a29;}.cls-200{fill:#fd4b2a;}.cls-201{fill:#fd4c2a;}.cls-202{fill:#fd4d2a;}.cls-203{fill:#fd4e2a;}.cls-204{fill:#fd4f2b;}.cls-205{fill:#fd502b;}.cls-206{fill:#fd512b;}.cls-207{fill:#fd522c;}.cls-208{fill:#fd532c;}.cls-209{fill:#fd542c;}.cls-210{fill:#fd552c;}.cls-211{fill:#fd562d;}.cls-212{fill:#fd572d;}.cls-213{fill:#fd582d;}.cls-214{fill:#fd592d;}.cls-215{fill:#fd5a2e;}.cls-216{fill:#fd5b2e;}.cls-217{fill:#fd5c2e;}.cls-218{fill:#fd5d2f;}.cls-219{fill:#fd5e2f;}.cls-220{fill:#fd5f2f;}.cls-221{fill:#fd602f;}.cls-222{fill:#fd6130;}.cls-223{fill:#fd6230;}.cls-224{fill:#fd6330;}.cls-225{fill:#fd6430;}.cls-226{fill:#fd6531;}.cls-227{fill:#fd6731;}.cls-228{fill:#fc6831;}.cls-229{fill:#fc6932;}.cls-230{fill:#fc6a32;}.cls-231{fill:#fc6b32;}.cls-232{fill:#fc6c32;}.cls-233{fill:#fc6d33;}.cls-234{fill:#fc6e33;}.cls-235{fill:#fc6f33;}.cls-236{fill:#fc7033;}.cls-237{fill:#fc7134;}.cls-238{fill:#fc7234;}.cls-239{fill:#fc7334;}.cls-240{fill:#fc7435;}.cls-241{fill:#fc7535;}.cls-242{fill:#fc7635;}.cls-243{fill:#fc7735;}.cls-244{fill:#fc7836;}.cls-245{fill:#fc7936;}.cls-246{fill:#fc7a36;}.cls-247{fill:#fc7b36;}.cls-248{fill:#fc7c37;}.cls-249{fill:#fc7d37;}.cls-250{fill:#fc7e37;}.cls-251{fill:#fc7f38;}.cls-252{fill:#fc8038;}.cls-253{fill:#fc8138;}.cls-254{fill:#fc8238;}.cls-255{fill:#fc8339;}.cls-256{fill:#fc8439;}.cls-257{fill:#fc8539;}.cls-258{fill:#fc8639;}.cls-259{fill:#fc873a;}.cls-260{fill:#fc883a;}.cls-261{fill:#fc893a;}.cls-262{fill:#fc8a3b;}.cls-263{fill:#fc8b3b;}.cls-264{fill:#fc8c3b;}.cls-265{fill:#fc8d3b;}.cls-266{fill:#fc8e3c;}.cls-267{fill:#fc8f3c;}.cls-268{fill:#fc903c;}.cls-269{fill:#fc913d;}.cls-270{fill:#fc923d;}.cls-271{fill:#fc933d;}.cls-272{fill:#fc943d;}.cls-273{fill:#fc953e;}.cls-274{fill:#fc963e;}.cls-275{fill:#fc973e;}.cls-276{fill:#fc983e;}.cls-277{fill:#fc993f;}.cls-278{fill:#fc9a3f;}.cls-279{fill:#fc9b3f;}.cls-280{fill:#fc9c40;}.cls-281{fill:#fc9d40;}.cls-282{fill:#fc9e40;}.cls-283{fill:#fc9f40;}.cls-284{fill:#fca041;}.cls-285{fill:#fca141;}.cls-286{fill:#fca241;}.cls-287{fill:#fca341;}.cls-288{fill:#fca442;}.cls-289{fill:#fca542;}.cls-290{fill:#fca642;}.cls-291{fill:#fca743;}.cls-292{fill:#fca843;}.cls-293{fill:#fca943;}.cls-294{fill:#fcaa43;}.cls-295{fill:#fcab44;}.cls-296{fill:#fcac44;}.cls-297{fill:#fcad44;}.cls-298{fill:#fcae44;}.cls-299{fill:#fcaf45;}.cls-300{fill:#fcb045;}.cls-301{fill:#7f496b;}.cls-302{clip-path:url(#clip-path-3);}.cls-303{clip-path:url(#clip-path-4);}.cls-304{clip-path:url(#clip-path-5);}.cls-305{clip-path:url(#clip-path-6);}.cls-306{fill:#fff;}</style><clipPath id="clip-path"><path class="cls-1" d="M112.15,76.79C114.46,71,115,66.86,115,60.23c0-16.62-9.08-31.39-21.39-40.7-2.6-2-3.8,2.52-6.94,4.78-4.91,3.52-10.7,7.48-9.35,8.13,10.77,5.17,17.07,15,17.07,27.79a26.82,26.82,0,0,1-.69,6l-8.22-6.11L84.4,84,84,92.87a3,3,0,0,0,4,2.94l29.77-10.43a2.33,2.33,0,0,0,.6-4Z"/></clipPath><clipPath id="clip-path-2"><rect class="cls-1" x="-2.19" y="-7.33" width="129.41" height="129.41"/></clipPath><clipPath id="clip-path-3"><path class="cls-1" d="M76.22,12.49l-13.34-9c-1.49-1-6.33,1.78-6.31,3.58l.08,7.47C34.35,18.82,19,33,18,56.26c0,.67,6.44-8.58,6.44-8.58s10.89,8.62,11,7.38C37,42.69,45.25,37,56.85,33.46l.07,6.2c0,1.81,3.75,2.28,5.22,1.24l12.28-8.67L86.7,23.78a2.81,2.81,0,0,0,0-4.24Z"/></clipPath><clipPath id="clip-path-4"><rect class="cls-1" x="2.67" y="-2.48" width="126.08" height="126.08"/></clipPath><clipPath id="clip-path-5"><path class="cls-1" d="M78.32,98.78s3.87-13.56,1.08-12.24a31.24,31.24,0,0,1-37.16-8L48.17,77A2,2,0,0,0,49,73.5L35,61.34l-7-6.07c-1.65-1.43-3.09-.76-3.84,1.29L19,70.45,14.52,82.67c-.56,1.53-.31,3.06,1.27,2.65l7.41-1.91A49.66,49.66,0,0,0,66.06,108c10.76,0,21.4-1.07,30-12.63C99.12,91.19,78.32,98.78,78.32,98.78Z"/></clipPath><clipPath id="clip-path-6"><rect class="cls-1" x="2.67" y="-7.54" width="126.08" height="126.08"/></clipPath></defs><title>ultimateconverter</title><g class="cls-2"><g class="cls-3"><polygon class="cls-4" points="-2.19 66.85 53.05 122.09 -2.19 122.09 -2.19 66.85"/><polygon class="cls-4" points="-2.19 66.19 53.71 122.09 53.05 122.09 -2.19 66.85 -2.19 66.19"/><polygon class="cls-5" points="-2.19 65.53 54.37 122.09 53.71 122.09 -2.19 66.19 -2.19 65.53"/><polygon class="cls-6" points="-2.19 64.86 55.04 122.09 54.37 122.09 -2.19 65.53 -2.19 64.86"/><polygon class="cls-7" points="-2.19 64.2 55.7 122.09 55.04 122.09 -2.19 64.86 -2.19 64.2"/><polygon class="cls-8" points="-2.19 63.54 56.36 122.09 55.7 122.09 -2.19 64.2 -2.19 63.54"/><polygon class="cls-9" points="-2.19 62.88 57.02 122.09 56.36 122.09 -2.19 63.54 -2.19 62.88"/><polygon class="cls-10" points="-2.19 62.22 57.68 122.09 57.02 122.09 -2.19 62.88 -2.19 62.22"/><polygon class="cls-11" points="-2.19 61.56 58.34 122.09 57.68 122.09 -2.19 62.22 -2.19 61.56"/><polygon class="cls-12" points="-2.19 60.9 59 122.09 58.34 122.09 -2.19 61.56 -2.19 60.9"/><polygon class="cls-13" points="-2.19 60.23 59.67 122.09 59 122.09 -2.19 60.9 -2.19 60.23"/><polygon class="cls-14" points="-2.19 59.57 60.33 122.09 59.67 122.09 -2.19 60.23 -2.19 59.57"/><polygon class="cls-15" points="-2.19 58.91 60.99 122.09 60.33 122.09 -2.19 59.57 -2.19 58.91"/><polygon class="cls-16" points="-2.19 58.25 61.65 122.09 60.99 122.09 -2.19 58.91 -2.19 58.25"/><polygon class="cls-17" points="-2.19 57.59 62.31 122.09 61.65 122.09 -2.19 58.25 -2.19 57.59"/><polygon class="cls-18" points="-2.19 56.93 62.97 122.09 62.31 122.09 -2.19 57.59 -2.19 56.93"/><polygon class="cls-19" points="-2.19 56.27 63.63 122.09 62.97 122.09 -2.19 56.93 -2.19 56.27"/><polygon class="cls-20" points="-2.19 55.6 64.3 122.09 63.63 122.09 -2.19 56.27 -2.19 55.6"/><polygon class="cls-21" points="-2.19 54.94 64.96 122.09 64.3 122.09 -2.19 55.6 -2.19 54.94"/><polygon class="cls-22" points="-2.19 54.28 65.62 122.09 64.96 122.09 -2.19 54.94 -2.19 54.28"/><polygon class="cls-23" points="-2.19 53.62 66.28 122.09 65.62 122.09 -2.19 54.28 -2.19 53.62"/><polygon class="cls-24" points="-2.19 52.96 66.94 122.09 66.28 122.09 -2.19 53.62 -2.19 52.96"/><polygon class="cls-25" points="-2.19 52.3 67.6 122.09 66.94 122.09 -2.19 52.96 -2.19 52.3"/><polygon class="cls-26" points="-2.19 51.63 68.26 122.09 67.6 122.09 -2.19 52.3 -2.19 51.63"/><polygon class="cls-27" points="-2.19 50.97 68.93 122.09 68.26 122.09 -2.19 51.63 -2.19 50.97"/><polygon class="cls-28" points="-2.19 50.31 69.59 122.09 68.93 122.09 -2.19 50.97 -2.19 50.31"/><polygon class="cls-29" points="-2.19 49.65 70.25 122.09 69.59 122.09 -2.19 50.31 -2.19 49.65"/><polygon class="cls-30" points="-2.19 48.99 70.91 122.09 70.25 122.09 -2.19 49.65 -2.19 48.99"/><polygon class="cls-31" points="-2.19 48.33 71.57 122.09 70.91 122.09 -2.19 48.99 -2.19 48.33"/><polygon class="cls-32" points="-2.19 47.67 72.23 122.09 71.57 122.09 -2.19 48.33 -2.19 47.67"/><polygon class="cls-33" points="-2.19 47.01 72.89 122.09 72.23 122.09 -2.19 47.67 -2.19 47.01"/><polygon class="cls-34" points="-2.19 46.34 73.56 122.09 72.89 122.09 -2.19 47.01 -2.19 46.34"/><polygon class="cls-35" points="-2.19 45.68 74.22 122.09 73.56 122.09 -2.19 46.34 -2.19 45.68"/><polygon class="cls-36" points="-2.19 45.02 74.88 122.09 74.22 122.09 -2.19 45.68 -2.19 45.02"/><polygon class="cls-37" points="-2.19 44.36 75.54 122.09 74.88 122.09 -2.19 45.02 -2.19 44.36"/><polygon class="cls-38" points="-2.19 43.7 76.2 122.09 75.54 122.09 -2.19 44.36 -2.19 43.7"/><polygon class="cls-39" points="-2.19 43.04 76.86 122.09 76.2 122.09 -2.19 43.7 -2.19 43.04"/><polygon class="cls-40" points="-2.19 42.38 77.52 122.09 76.86 122.09 -2.19 43.04 -2.19 42.38"/><polygon class="cls-41" points="-2.19 41.71 78.19 122.09 77.52 122.09 -2.19 42.38 -2.19 41.71"/><polygon class="cls-42" points="-2.19 41.05 78.85 122.09 78.19 122.09 -2.19 41.71 -2.19 41.05"/><polygon class="cls-43" points="-2.19 40.39 79.51 122.09 78.85 122.09 -2.19 41.05 -2.19 40.39"/><polygon class="cls-44" points="-2.19 39.73 80.17 122.09 79.51 122.09 -2.19 40.39 -2.19 39.73"/><polygon class="cls-45" points="-2.19 39.07 80.83 122.09 80.17 122.09 -2.19 39.73 -2.19 39.07"/><polygon class="cls-46" points="-2.19 38.41 81.49 122.09 80.83 122.09 -2.19 39.07 -2.19 38.41"/><polygon class="cls-47" points="-2.19 37.74 82.15 122.09 81.49 122.09 -2.19 38.41 -2.19 37.74"/><polygon class="cls-48" points="-2.19 37.08 82.82 122.09 82.15 122.09 -2.19 37.74 -2.19 37.08"/><polygon class="cls-49" points="-2.19 36.42 83.48 122.09 82.82 122.09 -2.19 37.08 -2.19 36.42"/><polygon class="cls-50" points="-2.19 35.76 84.14 122.09 83.48 122.09 -2.19 36.42 -2.19 35.76"/><polygon class="cls-51" points="-2.19 35.1 84.8 122.09 84.14 122.09 -2.19 35.76 -2.19 35.1"/><polygon class="cls-52" points="-2.19 34.44 85.46 122.09 84.8 122.09 -2.19 35.1 -2.19 34.44"/><polygon class="cls-53" points="-2.19 33.78 86.12 122.09 85.46 122.09 -2.19 34.44 -2.19 33.78"/><polygon class="cls-54" points="-2.19 33.12 86.78 122.09 86.12 122.09 -2.19 33.78 -2.19 33.12"/><polygon class="cls-55" points="-2.19 32.45 87.45 122.09 86.78 122.09 -2.19 33.12 -2.19 32.45"/><polygon class="cls-56" points="-2.19 31.79 88.11 122.09 87.45 122.09 -2.19 32.45 -2.19 31.79"/><polygon class="cls-57" points="-2.19 31.13 88.77 122.09 88.11 122.09 -2.19 31.79 -2.19 31.13"/><polygon class="cls-58" points="-2.19 30.47 89.43 122.09 88.77 122.09 -2.19 31.13 -2.19 30.47"/><polygon class="cls-59" points="-2.19 29.81 90.09 122.09 89.43 122.09 -2.19 30.47 -2.19 29.81"/><polygon class="cls-60" points="-2.19 29.15 90.75 122.09 90.09 122.09 -2.19 29.81 -2.19 29.15"/><polygon class="cls-61" points="-2.19 28.48 91.41 122.09 90.75 122.09 -2.19 29.15 -2.19 28.48"/><polygon class="cls-62" points="-2.19 27.82 92.08 122.09 91.41 122.09 -2.19 28.48 -2.19 27.82"/><polygon class="cls-63" points="-2.19 27.16 92.74 122.09 92.08 122.09 -2.19 27.82 -2.19 27.16"/><polygon class="cls-64" points="-2.19 26.5 93.4 122.09 92.74 122.09 -2.19 27.16 -2.19 26.5"/><polygon class="cls-65" points="-2.19 25.84 94.06 122.09 93.4 122.09 -2.19 26.5 -2.19 25.84"/><polygon class="cls-66" points="-2.19 25.18 94.72 122.09 94.06 122.09 -2.19 25.84 -2.19 25.18"/><polygon class="cls-67" points="-2.19 24.52 95.38 122.09 94.72 122.09 -2.19 25.18 -2.19 24.52"/><polygon class="cls-68" points="-2.19 23.86 96.04 122.09 95.38 122.09 -2.19 24.52 -2.19 23.86"/><polygon class="cls-69" points="-2.19 23.19 96.71 122.09 96.04 122.09 -2.19 23.86 -2.19 23.19"/><polygon class="cls-70" points="-2.19 22.53 97.37 122.09 96.71 122.09 -2.19 23.19 -2.19 22.53"/><polygon class="cls-71" points="-2.19 21.87 98.03 122.09 97.37 122.09 -2.19 22.53 -2.19 21.87"/><polygon class="cls-72" points="-2.19 21.21 98.69 122.09 98.03 122.09 -2.19 21.87 -2.19 21.21"/><polygon class="cls-73" points="-2.19 20.55 99.35 122.09 98.69 122.09 -2.19 21.21 -2.19 20.55"/><polygon class="cls-74" points="-2.19 19.89 100.01 122.09 99.35 122.09 -2.19 20.55 -2.19 19.89"/><polygon class="cls-75" points="-2.19 19.23 100.67 122.09 100.01 122.09 -2.19 19.89 -2.19 19.23"/><polygon class="cls-76" points="-2.19 18.56 101.34 122.09 100.67 122.09 -2.19 19.23 -2.19 18.56"/><polygon class="cls-77" points="-2.19 17.9 102 122.09 101.34 122.09 -2.19 18.56 -2.19 17.9"/><polygon class="cls-78" points="-2.19 17.24 102.66 122.09 102 122.09 -2.19 17.9 -2.19 17.24"/><polygon class="cls-79" points="-2.19 16.58 103.32 122.09 102.66 122.09 -2.19 17.24 -2.19 16.58"/><polygon class="cls-80" points="-2.19 15.92 103.98 122.09 103.32 122.09 -2.19 16.58 -2.19 15.92"/><polygon class="cls-81" points="-2.19 15.26 104.64 122.09 103.98 122.09 -2.19 15.92 -2.19 15.26"/><polygon class="cls-82" points="-2.19 14.6 105.3 122.09 104.64 122.09 -2.19 15.26 -2.19 14.6"/><polygon class="cls-83" points="-2.19 13.93 105.97 122.09 105.3 122.09 -2.19 14.6 -2.19 13.93"/><polygon class="cls-84" points="-2.19 13.27 106.63 122.09 105.97 122.09 -2.19 13.93 -2.19 13.27"/><polygon class="cls-85" points="-2.19 12.61 107.29 122.09 106.63 122.09 -2.19 13.27 -2.19 12.61"/><polygon class="cls-86" points="-2.19 11.95 107.95 122.09 107.29 122.09 -2.19 12.61 -2.19 11.95"/><polygon class="cls-87" points="-2.19 11.29 108.61 122.09 107.95 122.09 -2.19 11.95 -2.19 11.29"/><polygon class="cls-88" points="-2.19 10.63 109.27 122.09 108.61 122.09 -2.19 11.29 -2.19 10.63"/><polygon class="cls-89" points="-2.19 9.96 109.93 122.09 109.27 122.09 -2.19 10.63 -2.19 9.96"/><polygon class="cls-90" points="-2.19 9.3 110.6 122.09 109.93 122.09 -2.19 9.96 -2.19 9.3"/><polygon class="cls-91" points="-2.19 8.64 111.26 122.09 110.6 122.09 -2.19 9.3 -2.19 8.64"/><polygon class="cls-92" points="-2.19 7.98 111.92 122.09 111.26 122.09 -2.19 8.64 -2.19 7.98"/><polygon class="cls-93" points="-2.19 7.32 112.58 122.09 111.92 122.09 -2.19 7.98 -2.19 7.32"/><polygon class="cls-94" points="-2.19 6.66 113.24 122.09 112.58 122.09 -2.19 7.32 -2.19 6.66"/><polygon class="cls-95" points="-2.19 6 113.9 122.09 113.24 122.09 -2.19 6.66 -2.19 6"/><polygon class="cls-96" points="-2.19 5.33 114.56 122.09 113.9 122.09 -2.19 6 -2.19 5.33"/><polygon class="cls-97" points="-2.19 4.67 115.23 122.09 114.56 122.09 -2.19 5.33 -2.19 4.67"/><polygon class="cls-98" points="-2.19 4.01 115.89 122.09 115.23 122.09 -2.19 4.67 -2.19 4.01"/><polygon class="cls-99" points="-2.19 3.35 116.55 122.09 115.89 122.09 -2.19 4.01 -2.19 3.35"/><polygon class="cls-100" points="-2.19 2.69 117.21 122.09 116.55 122.09 -2.19 3.35 -2.19 2.69"/><polygon class="cls-101" points="-2.19 2.03 117.87 122.09 117.21 122.09 -2.19 2.69 -2.19 2.03"/><polygon class="cls-102" points="-2.19 1.37 118.53 122.09 117.87 122.09 -2.19 2.03 -2.19 1.37"/><polygon class="cls-103" points="-2.19 0.7 119.19 122.09 118.53 122.09 -2.19 1.37 -2.19 0.7"/><polygon class="cls-104" points="-2.19 0.04 119.86 122.09 119.19 122.09 -2.19 0.7 -2.19 0.04"/><polygon class="cls-105" points="-2.19 -0.62 120.52 122.09 119.86 122.09 -2.19 0.04 -2.19 -0.62"/><polygon class="cls-106" points="-2.19 -1.28 121.18 122.09 120.52 122.09 -2.19 -0.62 -2.19 -1.28"/><polygon class="cls-107" points="-2.19 -1.94 121.84 122.09 121.18 122.09 -2.19 -1.28 -2.19 -1.94"/><polygon class="cls-108" points="-2.19 -2.6 122.5 122.09 121.84 122.09 -2.19 -1.94 -2.19 -2.6"/><polygon class="cls-109" points="-2.19 -3.26 123.16 122.09 122.5 122.09 -2.19 -2.6 -2.19 -3.26"/><polygon class="cls-110" points="-2.19 -3.92 123.82 122.09 123.16 122.09 -2.19 -3.26 -2.19 -3.92"/><polygon class="cls-111" points="-2.19 -4.59 124.49 122.09 123.82 122.09 -2.19 -3.92 -2.19 -4.59"/><polygon class="cls-112" points="-2.19 -5.25 125.15 122.09 124.49 122.09 -2.19 -4.59 -2.19 -5.25"/><polygon class="cls-113" points="-2.19 -5.91 125.81 122.09 125.15 122.09 -2.19 -5.25 -2.19 -5.91"/><polygon class="cls-114" points="-2.19 -6.57 126.47 122.09 125.81 122.09 -2.19 -5.91 -2.19 -6.57"/><polygon class="cls-115" points="-2.19 -7.23 127.13 122.09 126.47 122.09 -2.19 -6.57 -2.19 -7.23"/><polygon class="cls-116" points="-1.62 -7.33 127.23 121.52 127.23 122.09 127.13 122.09 -2.19 -7.23 -2.19 -7.33 -1.62 -7.33"/><polygon class="cls-117" points="-0.96 -7.33 127.23 120.86 127.23 121.52 -1.62 -7.33 -0.96 -7.33"/><polygon class="cls-118" points="-0.3 -7.33 127.23 120.2 127.23 120.86 -0.96 -7.33 -0.3 -7.33"/><polygon class="cls-119" points="0.36 -7.33 127.23 119.54 127.23 120.2 -0.3 -7.33 0.36 -7.33"/><polygon class="cls-120" points="1.02 -7.33 127.23 118.88 127.23 119.54 0.36 -7.33 1.02 -7.33"/><polygon class="cls-121" points="1.69 -7.33 127.23 118.21 127.23 118.88 1.02 -7.33 1.69 -7.33"/><polygon class="cls-122" points="2.35 -7.33 127.23 117.55 127.23 118.21 1.69 -7.33 2.35 -7.33"/><polygon class="cls-123" points="3.01 -7.33 127.23 116.89 127.23 117.55 2.35 -7.33 3.01 -7.33"/><polygon class="cls-124" points="3.67 -7.33 127.23 116.23 127.23 116.89 3.01 -7.33 3.67 -7.33"/><polygon class="cls-125" points="4.33 -7.33 127.23 115.57 127.23 116.23 3.67 -7.33 4.33 -7.33"/><polygon class="cls-126" points="4.99 -7.33 127.23 114.91 127.23 115.57 4.33 -7.33 4.99 -7.33"/><polygon class="cls-127" points="5.66 -7.33 127.23 114.25 127.23 114.91 4.99 -7.33 5.66 -7.33"/><polygon class="cls-128" points="6.32 -7.33 127.23 113.58 127.23 114.25 5.66 -7.33 6.32 -7.33"/><polygon class="cls-129" points="6.98 -7.33 127.23 112.92 127.23 113.58 6.32 -7.33 6.98 -7.33"/><polygon class="cls-130" points="7.64 -7.33 127.23 112.26 127.23 112.92 6.98 -7.33 7.64 -7.33"/><polygon class="cls-131" points="8.3 -7.33 127.23 111.6 127.23 112.26 7.64 -7.33 8.3 -7.33"/><polygon class="cls-132" points="8.96 -7.33 127.23 110.94 127.23 111.6 8.3 -7.33 8.96 -7.33"/><polygon class="cls-133" points="9.62 -7.33 127.23 110.28 127.23 110.94 8.96 -7.33 9.62 -7.33"/><polygon class="cls-134" points="10.29 -7.33 127.23 109.61 127.23 110.28 9.62 -7.33 10.29 -7.33"/><polygon class="cls-135" points="10.95 -7.33 127.23 108.95 127.23 109.61 10.29 -7.33 10.95 -7.33"/><polygon class="cls-136" points="11.61 -7.33 127.23 108.29 127.23 108.95 10.95 -7.33 11.61 -7.33"/><polygon class="cls-137" points="12.27 -7.33 127.23 107.63 127.23 108.29 11.61 -7.33 12.27 -7.33"/><polygon class="cls-138" points="12.93 -7.33 127.23 106.97 127.23 107.63 12.27 -7.33 12.93 -7.33"/><polygon class="cls-139" points="13.59 -7.33 127.23 106.31 127.23 106.97 12.93 -7.33 13.59 -7.33"/><polygon class="cls-140" points="14.25 -7.33 127.23 105.65 127.23 106.31 13.59 -7.33 14.25 -7.33"/><polygon class="cls-141" points="14.91 -7.33 127.23 104.98 127.23 105.65 14.25 -7.33 14.91 -7.33"/><polygon class="cls-142" points="15.58 -7.33 127.23 104.32 127.23 104.98 14.91 -7.33 15.58 -7.33"/><polygon class="cls-143" points="16.24 -7.33 127.23 103.66 127.23 104.32 15.58 -7.33 16.24 -7.33"/><polygon class="cls-144" points="16.9 -7.33 127.23 103 127.23 103.66 16.24 -7.33 16.9 -7.33"/><polygon class="cls-145" points="17.56 -7.33 127.23 102.34 127.23 103 16.9 -7.33 17.56 -7.33"/><polygon class="cls-146" points="18.22 -7.33 127.23 101.68 127.23 102.34 17.56 -7.33 18.22 -7.33"/><polygon class="cls-147" points="18.88 -7.33 127.23 101.02 127.23 101.68 18.22 -7.33 18.88 -7.33"/><polygon class="cls-148" points="19.55 -7.33 127.23 100.36 127.23 101.02 18.88 -7.33 19.55 -7.33"/><polygon class="cls-149" points="20.21 -7.33 127.23 99.69 127.23 100.36 19.55 -7.33 20.21 -7.33"/><polygon class="cls-150" points="20.87 -7.33 127.23 99.03 127.23 99.69 20.21 -7.33 20.87 -7.33"/><polygon class="cls-151" points="21.53 -7.33 127.23 98.37 127.23 99.03 20.87 -7.33 21.53 -7.33"/><polygon class="cls-152" points="22.19 -7.33 127.23 97.71 127.23 98.37 21.53 -7.33 22.19 -7.33"/><polygon class="cls-153" points="22.85 -7.33 127.23 97.05 127.23 97.71 22.19 -7.33 22.85 -7.33"/><polygon class="cls-154" points="23.51 -7.33 127.23 96.39 127.23 97.05 22.85 -7.33 23.51 -7.33"/><polygon class="cls-154" points="24.01 -7.33 127.23 95.89 127.23 96.39 23.51 -7.33 24.01 -7.33"/><polygon class="cls-155" points="24.51 -7.33 127.23 95.39 127.23 95.89 24.01 -7.33 24.51 -7.33"/><polygon class="cls-156" points="25.01 -7.33 127.23 94.89 127.23 95.39 24.51 -7.33 25.01 -7.33"/><polygon class="cls-157" points="25.51 -7.33 127.23 94.39 127.23 94.89 25.01 -7.33 25.51 -7.33"/><polygon class="cls-158" points="26.01 -7.33 127.23 93.89 127.23 94.39 25.51 -7.33 26.01 -7.33"/><polygon class="cls-159" points="26.51 -7.33 127.23 93.39 127.23 93.89 26.01 -7.33 26.51 -7.33"/><polygon class="cls-160" points="27.01 -7.33 127.23 92.89 127.23 93.39 26.51 -7.33 27.01 -7.33"/><polygon class="cls-161" points="27.5 -7.33 127.23 92.39 127.23 92.89 27.01 -7.33 27.5 -7.33"/><polygon class="cls-162" points="28 -7.33 127.23 91.89 127.23 92.39 27.5 -7.33 28 -7.33"/><polygon class="cls-163" points="28.5 -7.33 127.23 91.4 127.23 91.89 28 -7.33 28.5 -7.33"/><polygon class="cls-164" points="29 -7.33 127.23 90.9 127.23 91.4 28.5 -7.33 29 -7.33"/><polygon class="cls-165" points="29.5 -7.33 127.23 90.4 127.23 90.9 29 -7.33 29.5 -7.33"/><polygon class="cls-166" points="30 -7.33 127.23 89.9 127.23 90.4 29.5 -7.33 30 -7.33"/><polygon class="cls-167" points="30.5 -7.33 127.23 89.4 127.23 89.9 30 -7.33 30.5 -7.33"/><polygon class="cls-168" points="31 -7.33 127.23 88.9 127.23 89.4 30.5 -7.33 31 -7.33"/><polygon class="cls-169" points="31.5 -7.33 127.23 88.4 127.23 88.9 31 -7.33 31.5 -7.33"/><polygon class="cls-170" points="32 -7.33 127.23 87.9 127.23 88.4 31.5 -7.33 32 -7.33"/><polygon class="cls-171" points="32.49 -7.33 127.23 87.41 127.23 87.9 32 -7.33 32.49 -7.33"/><polygon class="cls-172" points="32.99 -7.33 127.23 86.91 127.23 87.41 32.49 -7.33 32.99 -7.33"/><polygon class="cls-173" points="33.49 -7.33 127.23 86.41 127.23 86.91 32.99 -7.33 33.49 -7.33"/><polygon class="cls-174" points="33.99 -7.33 127.23 85.91 127.23 86.41 33.49 -7.33 33.99 -7.33"/><polygon class="cls-175" points="34.49 -7.33 127.23 85.41 127.23 85.91 33.99 -7.33 34.49 -7.33"/><polygon class="cls-176" points="34.99 -7.33 127.23 84.91 127.23 85.41 34.49 -7.33 34.99 -7.33"/><polygon class="cls-177" points="35.49 -7.33 127.23 84.41 127.23 84.91 34.99 -7.33 35.49 -7.33"/><polygon class="cls-178" points="35.99 -7.33 127.23 83.91 127.23 84.41 35.49 -7.33 35.99 -7.33"/><polygon class="cls-179" points="36.49 -7.33 127.23 83.41 127.23 83.91 35.99 -7.33 36.49 -7.33"/><polygon class="cls-180" points="36.99 -7.33 127.23 82.91 127.23 83.41 36.49 -7.33 36.99 -7.33"/><polygon class="cls-181" points="37.48 -7.33 127.23 82.42 127.23 82.91 36.99 -7.33 37.48 -7.33"/><polygon class="cls-182" points="37.98 -7.33 127.23 81.92 127.23 82.42 37.48 -7.33 37.98 -7.33"/><polygon class="cls-183" points="38.48 -7.33 127.23 81.42 127.23 81.92 37.98 -7.33 38.48 -7.33"/><polygon class="cls-184" points="38.98 -7.33 127.23 80.92 127.23 81.42 38.48 -7.33 38.98 -7.33"/><polygon class="cls-185" points="39.48 -7.33 127.23 80.42 127.23 80.92 38.98 -7.33 39.48 -7.33"/><polygon class="cls-186" points="39.98 -7.33 127.23 79.92 127.23 80.42 39.48 -7.33 39.98 -7.33"/><polygon class="cls-187" points="40.48 -7.33 127.23 79.42 127.23 79.92 39.98 -7.33 40.48 -7.33"/><polygon class="cls-188" points="40.98 -7.33 127.23 78.92 127.23 79.42 40.48 -7.33 40.98 -7.33"/><polygon class="cls-189" points="41.48 -7.33 127.23 78.42 127.23 78.92 40.98 -7.33 41.48 -7.33"/><polygon class="cls-190" points="41.98 -7.33 127.23 77.92 127.23 78.42 41.48 -7.33 41.98 -7.33"/><polygon class="cls-191" points="42.48 -7.33 127.23 77.42 127.23 77.92 41.98 -7.33 42.48 -7.33"/><polygon class="cls-192" points="42.97 -7.33 127.23 76.93 127.23 77.42 42.48 -7.33 42.97 -7.33"/><polygon class="cls-193" points="43.47 -7.33 127.23 76.43 127.23 76.93 42.97 -7.33 43.47 -7.33"/><polygon class="cls-194" points="43.97 -7.33 127.23 75.93 127.23 76.43 43.47 -7.33 43.97 -7.33"/><polygon class="cls-195" points="44.47 -7.33 127.23 75.43 127.23 75.93 43.97 -7.33 44.47 -7.33"/><polygon class="cls-196" points="44.97 -7.33 127.23 74.93 127.23 75.43 44.47 -7.33 44.97 -7.33"/><polygon class="cls-197" points="45.47 -7.33 127.23 74.43 127.23 74.93 44.97 -7.33 45.47 -7.33"/><polygon class="cls-198" points="45.97 -7.33 127.23 73.93 127.23 74.43 45.47 -7.33 45.97 -7.33"/><polygon class="cls-199" points="46.47 -7.33 127.23 73.43 127.23 73.93 45.97 -7.33 46.47 -7.33"/><polygon class="cls-200" points="46.97 -7.33 127.23 72.93 127.23 73.43 46.47 -7.33 46.97 -7.33"/><polygon class="cls-201" points="47.46 -7.33 127.23 72.44 127.23 72.93 46.97 -7.33 47.46 -7.33"/><polygon class="cls-202" points="47.96 -7.33 127.23 71.94 127.23 72.44 47.46 -7.33 47.96 -7.33"/><polygon class="cls-203" points="48.46 -7.33 127.23 71.44 127.23 71.94 47.96 -7.33 48.46 -7.33"/><polygon class="cls-204" points="48.96 -7.33 127.23 70.94 127.23 71.44 48.46 -7.33 48.96 -7.33"/><polygon class="cls-205" points="49.46 -7.33 127.23 70.44 127.23 70.94 48.96 -7.33 49.46 -7.33"/><polygon class="cls-206" points="49.96 -7.33 127.23 69.94 127.23 70.44 49.46 -7.33 49.96 -7.33"/><polygon class="cls-207" points="50.46 -7.33 127.23 69.44 127.23 69.94 49.96 -7.33 50.46 -7.33"/><polygon class="cls-208" points="50.96 -7.33 127.23 68.94 127.23 69.44 50.46 -7.33 50.96 -7.33"/><polygon class="cls-209" points="51.46 -7.33 127.23 68.44 127.23 68.94 50.96 -7.33 51.46 -7.33"/><polygon class="cls-210" points="51.95 -7.33 127.23 67.94 127.23 68.44 51.46 -7.33 51.95 -7.33"/><polygon class="cls-211" points="52.45 -7.33 127.23 67.44 127.23 67.94 51.95 -7.33 52.45 -7.33"/><polygon class="cls-212" points="52.95 -7.33 127.23 66.95 127.23 67.44 52.45 -7.33 52.95 -7.33"/><polygon class="cls-213" points="53.45 -7.33 127.23 66.45 127.23 66.95 52.95 -7.33 53.45 -7.33"/><polygon class="cls-214" points="53.95 -7.33 127.23 65.95 127.23 66.45 53.45 -7.33 53.95 -7.33"/><polygon class="cls-215" points="54.45 -7.33 127.23 65.45 127.23 65.95 53.95 -7.33 54.45 -7.33"/><polygon class="cls-216" points="54.95 -7.33 127.23 64.95 127.23 65.45 54.45 -7.33 54.95 -7.33"/><polygon class="cls-217" points="55.45 -7.33 127.23 64.45 127.23 64.95 54.95 -7.33 55.45 -7.33"/><polygon class="cls-218" points="55.95 -7.33 127.23 63.95 127.23 64.45 55.45 -7.33 55.95 -7.33"/><polygon class="cls-219" points="56.45 -7.33 127.23 63.45 127.23 63.95 55.95 -7.33 56.45 -7.33"/><polygon class="cls-220" points="56.95 -7.33 127.23 62.95 127.23 63.45 56.45 -7.33 56.95 -7.33"/><polygon class="cls-221" points="57.44 -7.33 127.23 62.46 127.23 62.95 56.95 -7.33 57.44 -7.33"/><polygon class="cls-222" points="57.94 -7.33 127.23 61.96 127.23 62.46 57.44 -7.33 57.94 -7.33"/><polygon class="cls-223" points="58.44 -7.33 127.23 61.46 127.23 61.96 57.94 -7.33 58.44 -7.33"/><polygon class="cls-224" points="58.94 -7.33 127.23 60.96 127.23 61.46 58.44 -7.33 58.94 -7.33"/><polygon class="cls-225" points="59.44 -7.33 127.23 60.46 127.23 60.96 58.94 -7.33 59.44 -7.33"/><polygon class="cls-226" points="59.94 -7.33 127.23 59.96 127.23 60.46 59.44 -7.33 59.94 -7.33"/><polygon class="cls-227" points="60.44 -7.33 127.23 59.46 127.23 59.96 59.94 -7.33 60.44 -7.33"/><polygon class="cls-228" points="60.94 -7.33 127.23 58.96 127.23 59.46 60.44 -7.33 60.94 -7.33"/><polygon class="cls-229" points="61.44 -7.33 127.23 58.46 127.23 58.96 60.94 -7.33 61.44 -7.33"/><polygon class="cls-230" points="61.94 -7.33 127.23 57.97 127.23 58.46 61.44 -7.33 61.94 -7.33"/><polygon class="cls-231" points="62.43 -7.33 127.23 57.47 127.23 57.97 61.94 -7.33 62.43 -7.33"/><polygon class="cls-232" points="62.93 -7.33 127.23 56.97 127.23 57.47 62.43 -7.33 62.93 -7.33"/><polygon class="cls-233" points="63.43 -7.33 127.23 56.47 127.23 56.97 62.93 -7.33 63.43 -7.33"/><polygon class="cls-234" points="63.93 -7.33 127.23 55.97 127.23 56.47 63.43 -7.33 63.93 -7.33"/><polygon class="cls-235" points="64.43 -7.33 127.23 55.47 127.23 55.97 63.93 -7.33 64.43 -7.33"/><polygon class="cls-236" points="64.93 -7.33 127.23 54.97 127.23 55.47 64.43 -7.33 64.93 -7.33"/><polygon class="cls-237" points="65.43 -7.33 127.23 54.47 127.23 54.97 64.93 -7.33 65.43 -7.33"/><polygon class="cls-238" points="65.93 -7.33 127.23 53.97 127.23 54.47 65.43 -7.33 65.93 -7.33"/><polygon class="cls-239" points="66.43 -7.33 127.23 53.47 127.23 53.97 65.93 -7.33 66.43 -7.33"/><polygon class="cls-240" points="66.92 -7.33 127.23 52.98 127.23 53.47 66.43 -7.33 66.92 -7.33"/><polygon class="cls-241" points="67.42 -7.33 127.23 52.48 127.23 52.98 66.92 -7.33 67.42 -7.33"/><polygon class="cls-242" points="67.92 -7.33 127.23 51.98 127.23 52.48 67.42 -7.33 67.92 -7.33"/><polygon class="cls-243" points="68.42 -7.33 127.23 51.48 127.23 51.98 67.92 -7.33 68.42 -7.33"/><polygon class="cls-244" points="68.92 -7.33 127.23 50.98 127.23 51.48 68.42 -7.33 68.92 -7.33"/><polygon class="cls-245" points="69.42 -7.33 127.23 50.48 127.23 50.98 68.92 -7.33 69.42 -7.33"/><polygon class="cls-246" points="69.92 -7.33 127.23 49.98 127.23 50.48 69.42 -7.33 69.92 -7.33"/><polygon class="cls-247" points="70.42 -7.33 127.23 49.48 127.23 49.98 69.92 -7.33 70.42 -7.33"/><polygon class="cls-248" points="70.92 -7.33 127.23 48.98 127.23 49.48 70.42 -7.33 70.92 -7.33"/><polygon class="cls-249" points="71.42 -7.33 127.23 48.48 127.23 48.98 70.92 -7.33 71.42 -7.33"/><polygon class="cls-250" points="71.91 -7.33 127.23 47.98 127.23 48.48 71.42 -7.33 71.91 -7.33"/><polygon class="cls-251" points="72.41 -7.33 127.23 47.49 127.23 47.98 71.91 -7.33 72.41 -7.33"/><polygon class="cls-252" points="72.91 -7.33 127.23 46.99 127.23 47.49 72.41 -7.33 72.91 -7.33"/><polygon class="cls-253" points="73.41 -7.33 127.23 46.49 127.23 46.99 72.91 -7.33 73.41 -7.33"/><polygon class="cls-254" points="73.91 -7.33 127.23 45.99 127.23 46.49 73.41 -7.33 73.91 -7.33"/><polygon class="cls-255" points="74.41 -7.33 127.23 45.49 127.23 45.99 73.91 -7.33 74.41 -7.33"/><polygon class="cls-256" points="74.91 -7.33 127.23 44.99 127.23 45.49 74.41 -7.33 74.91 -7.33"/><polygon class="cls-257" points="75.41 -7.33 127.23 44.49 127.23 44.99 74.91 -7.33 75.41 -7.33"/><polygon class="cls-258" points="75.91 -7.33 127.23 43.99 127.23 44.49 75.41 -7.33 75.91 -7.33"/><polygon class="cls-259" points="76.41 -7.33 127.23 43.49 127.23 43.99 75.91 -7.33 76.41 -7.33"/><polygon class="cls-260" points="76.9 -7.33 127.23 42.99 127.23 43.49 76.41 -7.33 76.9 -7.33"/><polygon class="cls-261" points="77.4 -7.33 127.23 42.5 127.23 42.99 76.9 -7.33 77.4 -7.33"/><polygon class="cls-262" points="77.9 -7.33 127.23 42 127.23 42.5 77.4 -7.33 77.9 -7.33"/><polygon class="cls-263" points="78.4 -7.33 127.23 41.5 127.23 42 77.9 -7.33 78.4 -7.33"/><polygon class="cls-264" points="78.9 -7.33 127.23 41 127.23 41.5 78.4 -7.33 78.9 -7.33"/><polygon class="cls-265" points="79.4 -7.33 127.23 40.5 127.23 41 78.9 -7.33 79.4 -7.33"/><polygon class="cls-266" points="79.9 -7.33 127.23 40 127.23 40.5 79.4 -7.33 79.9 -7.33"/><polygon class="cls-267" points="80.4 -7.33 127.23 39.5 127.23 40 79.9 -7.33 80.4 -7.33"/><polygon class="cls-268" points="80.9 -7.33 127.23 39 127.23 39.5 80.4 -7.33 80.9 -7.33"/><polygon class="cls-269" points="81.39 -7.33 127.23 38.51 127.23 39 80.9 -7.33 81.39 -7.33"/><polygon class="cls-270" points="81.89 -7.33 127.23 38.01 127.23 38.51 81.39 -7.33 81.89 -7.33"/><polygon class="cls-271" points="82.39 -7.33 127.23 37.51 127.23 38.01 81.89 -7.33 82.39 -7.33"/><polygon class="cls-272" points="82.89 -7.33 127.23 37.01 127.23 37.51 82.39 -7.33 82.89 -7.33"/><polygon class="cls-273" points="83.39 -7.33 127.23 36.51 127.23 37.01 82.89 -7.33 83.39 -7.33"/><polygon class="cls-274" points="83.89 -7.33 127.23 36.01 127.23 36.51 83.39 -7.33 83.89 -7.33"/><polygon class="cls-275" points="84.39 -7.33 127.23 35.51 127.23 36.01 83.89 -7.33 84.39 -7.33"/><polygon class="cls-276" points="84.89 -7.33 127.23 35.01 127.23 35.51 84.39 -7.33 84.89 -7.33"/><polygon class="cls-277" points="85.39 -7.33 127.23 34.51 127.23 35.01 84.89 -7.33 85.39 -7.33"/><polygon class="cls-278" points="85.89 -7.33 127.23 34.01 127.23 34.51 85.39 -7.33 85.89 -7.33"/><polygon class="cls-279" points="86.39 -7.33 127.23 33.52 127.23 34.01 85.89 -7.33 86.39 -7.33"/><polygon class="cls-280" points="86.88 -7.33 127.23 33.02 127.23 33.52 86.39 -7.33 86.88 -7.33"/><polygon class="cls-281" points="87.38 -7.33 127.23 32.52 127.23 33.02 86.88 -7.33 87.38 -7.33"/><polygon class="cls-282" points="87.88 -7.33 127.23 32.02 127.23 32.52 87.38 -7.33 87.88 -7.33"/><polygon class="cls-283" points="88.38 -7.33 127.23 31.52 127.23 32.02 87.88 -7.33 88.38 -7.33"/><polygon class="cls-284" points="88.88 -7.33 127.23 31.02 127.23 31.52 88.38 -7.33 88.88 -7.33"/><polygon class="cls-285" points="89.38 -7.33 127.23 30.52 127.23 31.02 88.88 -7.33 89.38 -7.33"/><polygon class="cls-286" points="89.88 -7.33 127.23 30.02 127.23 30.52 89.38 -7.33 89.88 -7.33"/><polygon class="cls-287" points="90.38 -7.33 127.23 29.52 127.23 30.02 89.88 -7.33 90.38 -7.33"/><polygon class="cls-288" points="90.88 -7.33 127.23 29.02 127.23 29.52 90.38 -7.33 90.88 -7.33"/><polygon class="cls-289" points="91.38 -7.33 127.23 28.52 127.23 29.02 90.88 -7.33 91.38 -7.33"/><polygon class="cls-290" points="91.87 -7.33 127.23 28.03 127.23 28.52 91.38 -7.33 91.87 -7.33"/><polygon class="cls-291" points="92.37 -7.33 127.23 27.53 127.23 28.03 91.87 -7.33 92.37 -7.33"/><polygon class="cls-292" points="92.87 -7.33 127.23 27.03 127.23 27.53 92.37 -7.33 92.87 -7.33"/><polygon class="cls-293" points="93.37 -7.33 127.23 26.53 127.23 27.03 92.87 -7.33 93.37 -7.33"/><polygon class="cls-294" points="93.87 -7.33 127.23 26.03 127.23 26.53 93.37 -7.33 93.87 -7.33"/><polygon class="cls-295" points="94.37 -7.33 127.23 25.53 127.23 26.03 93.87 -7.33 94.37 -7.33"/><polygon class="cls-296" points="94.87 -7.33 127.23 25.03 127.23 25.53 94.37 -7.33 94.87 -7.33"/><polygon class="cls-297" points="95.37 -7.33 127.23 24.53 127.23 25.03 94.87 -7.33 95.37 -7.33"/><polygon class="cls-298" points="95.86 -7.33 127.23 24.03 127.23 24.53 95.37 -7.33 95.86 -7.33"/><polygon class="cls-299" points="96.36 -7.33 127.23 23.54 127.23 24.03 95.86 -7.33 96.36 -7.33"/><polygon class="cls-300" points="96.86 -7.33 127.23 23.04 127.23 23.54 96.36 -7.33 96.86 -7.33"/><polygon class="cls-300" points="127.23 23.04 96.86 -7.33 127.23 -7.33 127.23 23.04"/></g></g><path class="cls-301" d="M83.41,95.36a2,2,0,0,1-2-2L83,59.58a2,2,0,0,1,1.13-1.68,2,2,0,0,1,2,.22l5.36,4.07c.08-.82.12-1.64.12-2.45A27.37,27.37,0,0,0,76.15,35.21a2,2,0,0,1-.28-3.36l12.71-9a9.92,9.92,0,0,0,.77-.68c.8-.74,2.45-2.29,4.15-1a48.32,48.32,0,0,1,16.34,54.94l6.84,5.19a2,2,0,0,1,.74,1.88,1.94,1.94,0,0,1-1.32,1.53L84,95.26A1.86,1.86,0,0,1,83.41,95.36Zm3.31-31.88L85.49,90.67l25.86-8.49-5-3.82a2,2,0,0,1-.64-2.27A44.43,44.43,0,0,0,92.06,25l0,0a12.33,12.33,0,0,1-1.19,1L80.68,33.24a31.14,31.14,0,0,1,14.16,32.9,2,2,0,0,1-3.09,1.16Z"/><g class="cls-302"><g class="cls-303"><polygon class="cls-4" points="2.67 69.78 56.48 123.6 2.67 123.6 2.67 69.78"/><polygon class="cls-4" points="2.67 69.14 57.13 123.6 56.48 123.6 2.67 69.78 2.67 69.14"/><polygon class="cls-5" points="2.67 68.49 57.77 123.6 57.13 123.6 2.67 69.14 2.67 68.49"/><polygon class="cls-6" points="2.67 67.85 58.42 123.6 57.77 123.6 2.67 68.49 2.67 67.85"/><polygon class="cls-7" points="2.67 67.2 59.06 123.6 58.42 123.6 2.67 67.85 2.67 67.2"/><polygon class="cls-8" points="2.67 66.56 59.71 123.6 59.06 123.6 2.67 67.2 2.67 66.56"/><polygon class="cls-9" points="2.67 65.91 60.35 123.6 59.71 123.6 2.67 66.56 2.67 65.91"/><polygon class="cls-10" points="2.67 65.27 60.99 123.6 60.35 123.6 2.67 65.91 2.67 65.27"/><polygon class="cls-11" points="2.67 64.63 61.64 123.6 60.99 123.6 2.67 65.27 2.67 64.63"/><polygon class="cls-12" points="2.67 63.98 62.28 123.6 61.64 123.6 2.67 64.63 2.67 63.98"/><polygon class="cls-13" points="2.67 63.34 62.93 123.6 62.28 123.6 2.67 63.98 2.67 63.34"/><polygon class="cls-14" points="2.67 62.69 63.57 123.6 62.93 123.6 2.67 63.34 2.67 62.69"/><polygon class="cls-15" points="2.67 62.05 64.22 123.6 63.57 123.6 2.67 62.69 2.67 62.05"/><polygon class="cls-16" points="2.67 61.4 64.86 123.6 64.22 123.6 2.67 62.05 2.67 61.4"/><polygon class="cls-17" points="2.67 60.76 65.51 123.6 64.86 123.6 2.67 61.4 2.67 60.76"/><polygon class="cls-18" points="2.67 60.12 66.15 123.6 65.51 123.6 2.67 60.76 2.67 60.12"/><polygon class="cls-19" points="2.67 59.47 66.8 123.6 66.15 123.6 2.67 60.12 2.67 59.47"/><polygon class="cls-20" points="2.67 58.83 67.44 123.6 66.8 123.6 2.67 59.47 2.67 58.83"/><polygon class="cls-21" points="2.67 58.18 68.08 123.6 67.44 123.6 2.67 58.83 2.67 58.18"/><polygon class="cls-22" points="2.67 57.54 68.73 123.6 68.08 123.6 2.67 58.18 2.67 57.54"/><polygon class="cls-23" points="2.67 56.89 69.37 123.6 68.73 123.6 2.67 57.54 2.67 56.89"/><polygon class="cls-24" points="2.67 56.25 70.02 123.6 69.37 123.6 2.67 56.89 2.67 56.25"/><polygon class="cls-25" points="2.67 55.6 70.66 123.6 70.02 123.6 2.67 56.25 2.67 55.6"/><polygon class="cls-26" points="2.67 54.96 71.31 123.6 70.66 123.6 2.67 55.6 2.67 54.96"/><polygon class="cls-27" points="2.67 54.31 71.95 123.6 71.31 123.6 2.67 54.96 2.67 54.31"/><polygon class="cls-28" points="2.67 53.67 72.59 123.6 71.95 123.6 2.67 54.31 2.67 53.67"/><polygon class="cls-29" points="2.67 53.03 73.24 123.6 72.59 123.6 2.67 53.67 2.67 53.03"/><polygon class="cls-30" points="2.67 52.38 73.88 123.6 73.24 123.6 2.67 53.03 2.67 52.38"/><polygon class="cls-31" points="2.67 51.74 74.53 123.6 73.88 123.6 2.67 52.38 2.67 51.74"/><polygon class="cls-32" points="2.67 51.09 75.17 123.6 74.53 123.6 2.67 51.74 2.67 51.09"/><polygon class="cls-33" points="2.67 50.45 75.82 123.6 75.17 123.6 2.67 51.09 2.67 50.45"/><polygon class="cls-34" points="2.67 49.8 76.46 123.6 75.82 123.6 2.67 50.45 2.67 49.8"/><polygon class="cls-35" points="2.67 49.16 77.11 123.6 76.46 123.6 2.67 49.8 2.67 49.16"/><polygon class="cls-36" points="2.67 48.52 77.75 123.6 77.11 123.6 2.67 49.16 2.67 48.52"/><polygon class="cls-37" points="2.67 47.87 78.39 123.6 77.75 123.6 2.67 48.52 2.67 47.87"/><polygon class="cls-38" points="2.67 47.23 79.04 123.6 78.39 123.6 2.67 47.87 2.67 47.23"/><polygon class="cls-39" points="2.67 46.58 79.68 123.6 79.04 123.6 2.67 47.23 2.67 46.58"/><polygon class="cls-40" points="2.67 45.94 80.33 123.6 79.68 123.6 2.67 46.58 2.67 45.94"/><polygon class="cls-41" points="2.67 45.29 80.97 123.6 80.33 123.6 2.67 45.94 2.67 45.29"/><polygon class="cls-42" points="2.67 44.65 81.62 123.6 80.97 123.6 2.67 45.29 2.67 44.65"/><polygon class="cls-43" points="2.67 44.01 82.26 123.6 81.62 123.6 2.67 44.65 2.67 44.01"/><polygon class="cls-44" points="2.67 43.36 82.91 123.6 82.26 123.6 2.67 44.01 2.67 43.36"/><polygon class="cls-45" points="2.67 42.72 83.55 123.6 82.91 123.6 2.67 43.36 2.67 42.72"/><polygon class="cls-46" points="2.67 42.07 84.19 123.6 83.55 123.6 2.67 42.72 2.67 42.07"/><polygon class="cls-47" points="2.67 41.43 84.84 123.6 84.19 123.6 2.67 42.07 2.67 41.43"/><polygon class="cls-48" points="2.67 40.78 85.48 123.6 84.84 123.6 2.67 41.43 2.67 40.78"/><polygon class="cls-49" points="2.67 40.14 86.13 123.6 85.48 123.6 2.67 40.78 2.67 40.14"/><polygon class="cls-50" points="2.67 39.49 86.77 123.6 86.13 123.6 2.67 40.14 2.67 39.49"/><polygon class="cls-51" points="2.67 38.85 87.42 123.6 86.77 123.6 2.67 39.49 2.67 38.85"/><polygon class="cls-52" points="2.67 38.2 88.06 123.6 87.42 123.6 2.67 38.85 2.67 38.2"/><polygon class="cls-53" points="2.67 37.56 88.7 123.6 88.06 123.6 2.67 38.2 2.67 37.56"/><polygon class="cls-54" points="2.67 36.92 89.35 123.6 88.7 123.6 2.67 37.56 2.67 36.92"/><polygon class="cls-55" points="2.67 36.27 89.99 123.6 89.35 123.6 2.67 36.92 2.67 36.27"/><polygon class="cls-56" points="2.67 35.63 90.64 123.6 89.99 123.6 2.67 36.27 2.67 35.63"/><polygon class="cls-57" points="2.67 34.98 91.28 123.6 90.64 123.6 2.67 35.63 2.67 34.98"/><polygon class="cls-58" points="2.67 34.34 91.93 123.6 91.28 123.6 2.67 34.98 2.67 34.34"/><polygon class="cls-59" points="2.67 33.69 92.57 123.6 91.93 123.6 2.67 34.34 2.67 33.69"/><polygon class="cls-60" points="2.67 33.05 93.22 123.6 92.57 123.6 2.67 33.69 2.67 33.05"/><polygon class="cls-61" points="2.67 32.41 93.86 123.6 93.22 123.6 2.67 33.05 2.67 32.41"/><polygon class="cls-62" points="2.67 31.76 94.5 123.6 93.86 123.6 2.67 32.41 2.67 31.76"/><polygon class="cls-63" points="2.67 31.12 95.15 123.6 94.5 123.6 2.67 31.76 2.67 31.12"/><polygon class="cls-64" points="2.67 30.47 95.79 123.6 95.15 123.6 2.67 31.12 2.67 30.47"/><polygon class="cls-65" points="2.67 29.83 96.44 123.6 95.79 123.6 2.67 30.47 2.67 29.83"/><polygon class="cls-66" points="2.67 29.18 97.08 123.6 96.44 123.6 2.67 29.83 2.67 29.18"/><polygon class="cls-67" points="2.67 28.54 97.73 123.6 97.08 123.6 2.67 29.18 2.67 28.54"/><polygon class="cls-68" points="2.67 27.89 98.37 123.6 97.73 123.6 2.67 28.54 2.67 27.89"/><polygon class="cls-69" points="2.67 27.25 99.02 123.6 98.37 123.6 2.67 27.89 2.67 27.25"/><polygon class="cls-70" points="2.67 26.61 99.66 123.6 99.02 123.6 2.67 27.25 2.67 26.61"/><polygon class="cls-71" points="2.67 25.96 100.3 123.6 99.66 123.6 2.67 26.61 2.67 25.96"/><polygon class="cls-72" points="2.67 25.32 100.95 123.6 100.3 123.6 2.67 25.96 2.67 25.32"/><polygon class="cls-73" points="2.67 24.67 101.59 123.6 100.95 123.6 2.67 25.32 2.67 24.67"/><polygon class="cls-74" points="2.67 24.03 102.24 123.6 101.59 123.6 2.67 24.67 2.67 24.03"/><polygon class="cls-75" points="2.67 23.38 102.88 123.6 102.24 123.6 2.67 24.03 2.67 23.38"/><polygon class="cls-76" points="2.67 22.74 103.53 123.6 102.88 123.6 2.67 23.38 2.67 22.74"/><polygon class="cls-77" points="2.67 22.09 104.17 123.6 103.53 123.6 2.67 22.74 2.67 22.09"/><polygon class="cls-78" points="2.67 21.45 104.81 123.6 104.17 123.6 2.67 22.09 2.67 21.45"/><polygon class="cls-79" points="2.67 20.81 105.46 123.6 104.81 123.6 2.67 21.45 2.67 20.81"/><polygon class="cls-80" points="2.67 20.16 106.1 123.6 105.46 123.6 2.67 20.81 2.67 20.16"/><polygon class="cls-81" points="2.67 19.52 106.75 123.6 106.1 123.6 2.67 20.16 2.67 19.52"/><polygon class="cls-82" points="2.67 18.87 107.39 123.6 106.75 123.6 2.67 19.52 2.67 18.87"/><polygon class="cls-83" points="2.67 18.23 108.04 123.6 107.39 123.6 2.67 18.87 2.67 18.23"/><polygon class="cls-84" points="2.67 17.58 108.68 123.6 108.04 123.6 2.67 18.23 2.67 17.58"/><polygon class="cls-85" points="2.67 16.94 109.33 123.6 108.68 123.6 2.67 17.58 2.67 16.94"/><polygon class="cls-86" points="2.67 16.3 109.97 123.6 109.33 123.6 2.67 16.94 2.67 16.3"/><polygon class="cls-87" points="2.67 15.65 110.61 123.6 109.97 123.6 2.67 16.3 2.67 15.65"/><polygon class="cls-88" points="2.67 15.01 111.26 123.6 110.61 123.6 2.67 15.65 2.67 15.01"/><polygon class="cls-89" points="2.67 14.36 111.9 123.6 111.26 123.6 2.67 15.01 2.67 14.36"/><polygon class="cls-90" points="2.67 13.72 112.55 123.6 111.9 123.6 2.67 14.36 2.67 13.72"/><polygon class="cls-91" points="2.67 13.07 113.19 123.6 112.55 123.6 2.67 13.72 2.67 13.07"/><polygon class="cls-92" points="2.67 12.43 113.84 123.6 113.19 123.6 2.67 13.07 2.67 12.43"/><polygon class="cls-93" points="2.67 11.78 114.48 123.6 113.84 123.6 2.67 12.43 2.67 11.78"/><polygon class="cls-94" points="2.67 11.14 115.13 123.6 114.48 123.6 2.67 11.78 2.67 11.14"/><polygon class="cls-95" points="2.67 10.5 115.77 123.6 115.13 123.6 2.67 11.14 2.67 10.5"/><polygon class="cls-96" points="2.67 9.85 116.41 123.6 115.77 123.6 2.67 10.5 2.67 9.85"/><polygon class="cls-97" points="2.67 9.21 117.06 123.6 116.41 123.6 2.67 9.85 2.67 9.21"/><polygon class="cls-98" points="2.67 8.56 117.7 123.6 117.06 123.6 2.67 9.21 2.67 8.56"/><polygon class="cls-99" points="2.67 7.92 118.35 123.6 117.7 123.6 2.67 8.56 2.67 7.92"/><polygon class="cls-100" points="2.67 7.27 118.99 123.6 118.35 123.6 2.67 7.92 2.67 7.27"/><polygon class="cls-101" points="2.67 6.63 119.64 123.6 118.99 123.6 2.67 7.27 2.67 6.63"/><polygon class="cls-102" points="2.67 5.99 120.28 123.6 119.64 123.6 2.67 6.63 2.67 5.99"/><polygon class="cls-103" points="2.67 5.34 120.92 123.6 120.28 123.6 2.67 5.99 2.67 5.34"/><polygon class="cls-104" points="2.67 4.7 121.57 123.6 120.92 123.6 2.67 5.34 2.67 4.7"/><polygon class="cls-105" points="2.67 4.05 122.21 123.6 121.57 123.6 2.67 4.7 2.67 4.05"/><polygon class="cls-106" points="2.67 3.41 122.86 123.6 122.21 123.6 2.67 4.05 2.67 3.41"/><polygon class="cls-107" points="2.67 2.76 123.5 123.6 122.86 123.6 2.67 3.41 2.67 2.76"/><polygon class="cls-108" points="2.67 2.12 124.15 123.6 123.5 123.6 2.67 2.76 2.67 2.12"/><polygon class="cls-109" points="2.67 1.47 124.79 123.6 124.15 123.6 2.67 2.12 2.67 1.47"/><polygon class="cls-110" points="2.67 0.83 125.44 123.6 124.79 123.6 2.67 1.47 2.67 0.83"/><polygon class="cls-111" points="2.67 0.18 126.08 123.6 125.44 123.6 2.67 0.83 2.67 0.18"/><polygon class="cls-112" points="2.67 -0.46 126.72 123.6 126.08 123.6 2.67 0.18 2.67 -0.46"/><polygon class="cls-113" points="2.67 -1.1 127.37 123.6 126.72 123.6 2.67 -0.46 2.67 -1.1"/><polygon class="cls-114" points="2.67 -1.75 128.01 123.6 127.37 123.6 2.67 -1.1 2.67 -1.75"/><polygon class="cls-115" points="2.67 -2.39 128.66 123.6 128.01 123.6 2.67 -1.75 2.67 -2.39"/><polygon class="cls-116" points="3.22 -2.48 128.75 123.05 128.75 123.6 128.66 123.6 2.67 -2.39 2.67 -2.48 3.22 -2.48"/><polygon class="cls-117" points="3.86 -2.48 128.75 122.4 128.75 123.05 3.22 -2.48 3.86 -2.48"/><polygon class="cls-118" points="4.51 -2.48 128.75 121.76 128.75 122.4 3.86 -2.48 4.51 -2.48"/><polygon class="cls-119" points="5.15 -2.48 128.75 121.11 128.75 121.76 4.51 -2.48 5.15 -2.48"/><polygon class="cls-120" points="5.8 -2.48 128.75 120.47 128.75 121.11 5.15 -2.48 5.8 -2.48"/><polygon class="cls-121" points="6.44 -2.48 128.75 119.82 128.75 120.47 5.8 -2.48 6.44 -2.48"/><polygon class="cls-122" points="7.09 -2.48 128.75 119.18 128.75 119.82 6.44 -2.48 7.09 -2.48"/><polygon class="cls-123" points="7.73 -2.48 128.75 118.53 128.75 119.18 7.09 -2.48 7.73 -2.48"/><polygon class="cls-124" points="8.38 -2.48 128.75 117.89 128.75 118.53 7.73 -2.48 8.38 -2.48"/><polygon class="cls-125" points="9.02 -2.48 128.75 117.25 128.75 117.89 8.38 -2.48 9.02 -2.48"/><polygon class="cls-126" points="9.66 -2.48 128.75 116.6 128.75 117.25 9.02 -2.48 9.66 -2.48"/><polygon class="cls-127" points="10.31 -2.48 128.75 115.96 128.75 116.6 9.66 -2.48 10.31 -2.48"/><polygon class="cls-128" points="10.95 -2.48 128.75 115.31 128.75 115.96 10.31 -2.48 10.95 -2.48"/><polygon class="cls-129" points="11.6 -2.48 128.75 114.67 128.75 115.31 10.95 -2.48 11.6 -2.48"/><polygon class="cls-130" points="12.24 -2.48 128.75 114.02 128.75 114.67 11.6 -2.48 12.24 -2.48"/><polygon class="cls-131" points="12.89 -2.48 128.75 113.38 128.75 114.02 12.24 -2.48 12.89 -2.48"/><polygon class="cls-132" points="13.53 -2.48 128.75 112.73 128.75 113.38 12.89 -2.48 13.53 -2.48"/><polygon class="cls-133" points="14.17 -2.48 128.75 112.09 128.75 112.73 13.53 -2.48 14.17 -2.48"/><polygon class="cls-134" points="14.82 -2.48 128.75 111.45 128.75 112.09 14.17 -2.48 14.82 -2.48"/><polygon class="cls-135" points="15.46 -2.48 128.75 110.8 128.75 111.45 14.82 -2.48 15.46 -2.48"/><polygon class="cls-136" points="16.11 -2.48 128.75 110.16 128.75 110.8 15.46 -2.48 16.11 -2.48"/><polygon class="cls-137" points="16.75 -2.48 128.75 109.51 128.75 110.16 16.11 -2.48 16.75 -2.48"/><polygon class="cls-138" points="17.4 -2.48 128.75 108.87 128.75 109.51 16.75 -2.48 17.4 -2.48"/><polygon class="cls-139" points="18.04 -2.48 128.75 108.22 128.75 108.87 17.4 -2.48 18.04 -2.48"/><polygon class="cls-140" points="18.68 -2.48 128.75 107.58 128.75 108.22 18.04 -2.48 18.68 -2.48"/><polygon class="cls-141" points="19.33 -2.48 128.75 106.94 128.75 107.58 18.68 -2.48 19.33 -2.48"/><polygon class="cls-142" points="19.97 -2.48 128.75 106.29 128.75 106.94 19.33 -2.48 19.97 -2.48"/><polygon class="cls-143" points="20.62 -2.48 128.75 105.65 128.75 106.29 19.97 -2.48 20.62 -2.48"/><polygon class="cls-144" points="21.26 -2.48 128.75 105 128.75 105.65 20.62 -2.48 21.26 -2.48"/><polygon class="cls-145" points="21.91 -2.48 128.75 104.36 128.75 105 21.26 -2.48 21.91 -2.48"/><polygon class="cls-146" points="22.55 -2.48 128.75 103.71 128.75 104.36 21.91 -2.48 22.55 -2.48"/><polygon class="cls-147" points="23.2 -2.48 128.75 103.07 128.75 103.71 22.55 -2.48 23.2 -2.48"/><polygon class="cls-148" points="23.84 -2.48 128.75 102.42 128.75 103.07 23.2 -2.48 23.84 -2.48"/><polygon class="cls-149" points="24.48 -2.48 128.75 101.78 128.75 102.42 23.84 -2.48 24.48 -2.48"/><polygon class="cls-150" points="25.13 -2.48 128.75 101.14 128.75 101.78 24.48 -2.48 25.13 -2.48"/><polygon class="cls-151" points="25.77 -2.48 128.75 100.49 128.75 101.14 25.13 -2.48 25.77 -2.48"/><polygon class="cls-152" points="26.42 -2.48 128.75 99.85 128.75 100.49 25.77 -2.48 26.42 -2.48"/><polygon class="cls-153" points="27.06 -2.48 128.75 99.2 128.75 99.85 26.42 -2.48 27.06 -2.48"/><polygon class="cls-154" points="27.71 -2.48 128.75 98.56 128.75 99.2 27.06 -2.48 27.71 -2.48"/><polygon class="cls-154" points="28.19 -2.48 128.75 98.07 128.75 98.56 27.71 -2.48 28.19 -2.48"/><polygon class="cls-155" points="28.68 -2.48 128.75 97.59 128.75 98.07 28.19 -2.48 28.68 -2.48"/><polygon class="cls-156" points="29.16 -2.48 128.75 97.1 128.75 97.59 28.68 -2.48 29.16 -2.48"/><polygon class="cls-157" points="29.65 -2.48 128.75 96.61 128.75 97.1 29.16 -2.48 29.65 -2.48"/><polygon class="cls-158" points="30.14 -2.48 128.75 96.13 128.75 96.61 29.65 -2.48 30.14 -2.48"/><polygon class="cls-159" points="30.62 -2.48 128.75 95.64 128.75 96.13 30.14 -2.48 30.62 -2.48"/><polygon class="cls-160" points="31.11 -2.48 128.75 95.16 128.75 95.64 30.62 -2.48 31.11 -2.48"/><polygon class="cls-161" points="31.6 -2.48 128.75 94.67 128.75 95.16 31.11 -2.48 31.6 -2.48"/><polygon class="cls-162" points="32.08 -2.48 128.75 94.18 128.75 94.67 31.6 -2.48 32.08 -2.48"/><polygon class="cls-163" points="32.57 -2.48 128.75 93.7 128.75 94.18 32.08 -2.48 32.57 -2.48"/><polygon class="cls-164" points="33.05 -2.48 128.75 93.21 128.75 93.7 32.57 -2.48 33.05 -2.48"/><polygon class="cls-165" points="33.54 -2.48 128.75 92.72 128.75 93.21 33.05 -2.48 33.54 -2.48"/><polygon class="cls-166" points="34.03 -2.48 128.75 92.24 128.75 92.72 33.54 -2.48 34.03 -2.48"/><polygon class="cls-167" points="34.51 -2.48 128.75 91.75 128.75 92.24 34.03 -2.48 34.51 -2.48"/><polygon class="cls-168" points="35 -2.48 128.75 91.27 128.75 91.75 34.51 -2.48 35 -2.48"/><polygon class="cls-169" points="35.48 -2.48 128.75 90.78 128.75 91.27 35 -2.48 35.48 -2.48"/><polygon class="cls-170" points="35.97 -2.48 128.75 90.29 128.75 90.78 35.48 -2.48 35.97 -2.48"/><polygon class="cls-171" points="36.46 -2.48 128.75 89.81 128.75 90.29 35.97 -2.48 36.46 -2.48"/><polygon class="cls-172" points="36.94 -2.48 128.75 89.32 128.75 89.81 36.46 -2.48 36.94 -2.48"/><polygon class="cls-173" points="37.43 -2.48 128.75 88.84 128.75 89.32 36.94 -2.48 37.43 -2.48"/><polygon class="cls-174" points="37.92 -2.48 128.75 88.35 128.75 88.84 37.43 -2.48 37.92 -2.48"/><polygon class="cls-175" points="38.4 -2.48 128.75 87.86 128.75 88.35 37.92 -2.48 38.4 -2.48"/><polygon class="cls-176" points="38.89 -2.48 128.75 87.38 128.75 87.86 38.4 -2.48 38.89 -2.48"/><polygon class="cls-177" points="39.37 -2.48 128.75 86.89 128.75 87.38 38.89 -2.48 39.37 -2.48"/><polygon class="cls-178" points="39.86 -2.48 128.75 86.41 128.75 86.89 39.37 -2.48 39.86 -2.48"/><polygon class="cls-179" points="40.35 -2.48 128.75 85.92 128.75 86.41 39.86 -2.48 40.35 -2.48"/><polygon class="cls-180" points="40.83 -2.48 128.75 85.43 128.75 85.92 40.35 -2.48 40.83 -2.48"/><polygon class="cls-181" points="41.32 -2.48 128.75 84.95 128.75 85.43 40.83 -2.48 41.32 -2.48"/><polygon class="cls-182" points="41.8 -2.48 128.75 84.46 128.75 84.95 41.32 -2.48 41.8 -2.48"/><polygon class="cls-183" points="42.29 -2.48 128.75 83.97 128.75 84.46 41.8 -2.48 42.29 -2.48"/><polygon class="cls-184" points="42.78 -2.48 128.75 83.49 128.75 83.97 42.29 -2.48 42.78 -2.48"/><polygon class="cls-185" points="43.26 -2.48 128.75 83 128.75 83.49 42.78 -2.48 43.26 -2.48"/><polygon class="cls-186" points="43.75 -2.48 128.75 82.52 128.75 83 43.26 -2.48 43.75 -2.48"/><polygon class="cls-187" points="44.23 -2.48 128.75 82.03 128.75 82.52 43.75 -2.48 44.23 -2.48"/><polygon class="cls-188" points="44.72 -2.48 128.75 81.54 128.75 82.03 44.23 -2.48 44.72 -2.48"/><polygon class="cls-189" points="45.21 -2.48 128.75 81.06 128.75 81.54 44.72 -2.48 45.21 -2.48"/><polygon class="cls-190" points="45.69 -2.48 128.75 80.57 128.75 81.06 45.21 -2.48 45.69 -2.48"/><polygon class="cls-191" points="46.18 -2.48 128.75 80.08 128.75 80.57 45.69 -2.48 46.18 -2.48"/><polygon class="cls-192" points="46.67 -2.48 128.75 79.6 128.75 80.08 46.18 -2.48 46.67 -2.48"/><polygon class="cls-193" points="47.15 -2.48 128.75 79.11 128.75 79.6 46.67 -2.48 47.15 -2.48"/><polygon class="cls-194" points="47.64 -2.48 128.75 78.63 128.75 79.11 47.15 -2.48 47.64 -2.48"/><polygon class="cls-195" points="48.13 -2.48 128.75 78.14 128.75 78.63 47.64 -2.48 48.13 -2.48"/><polygon class="cls-196" points="48.61 -2.48 128.75 77.66 128.75 78.14 48.13 -2.48 48.61 -2.48"/><polygon class="cls-197" points="49.1 -2.48 128.75 77.17 128.75 77.66 48.61 -2.48 49.1 -2.48"/><polygon class="cls-198" points="49.58 -2.48 128.75 76.68 128.75 77.17 49.1 -2.48 49.58 -2.48"/><polygon class="cls-199" points="50.07 -2.48 128.75 76.2 128.75 76.68 49.58 -2.48 50.07 -2.48"/><polygon class="cls-200" points="50.55 -2.48 128.75 75.71 128.75 76.2 50.07 -2.48 50.55 -2.48"/><polygon class="cls-201" points="51.04 -2.48 128.75 75.22 128.75 75.71 50.55 -2.48 51.04 -2.48"/><polygon class="cls-202" points="51.53 -2.48 128.75 74.74 128.75 75.22 51.04 -2.48 51.53 -2.48"/><polygon class="cls-203" points="52.01 -2.48 128.75 74.25 128.75 74.74 51.53 -2.48 52.01 -2.48"/><polygon class="cls-204" points="52.5 -2.48 128.75 73.77 128.75 74.25 52.01 -2.48 52.5 -2.48"/><polygon class="cls-205" points="52.99 -2.48 128.75 73.28 128.75 73.77 52.5 -2.48 52.99 -2.48"/><polygon class="cls-206" points="53.47 -2.48 128.75 72.79 128.75 73.28 52.99 -2.48 53.47 -2.48"/><polygon class="cls-207" points="53.96 -2.48 128.75 72.31 128.75 72.79 53.47 -2.48 53.96 -2.48"/><polygon class="cls-208" points="54.44 -2.48 128.75 71.82 128.75 72.31 53.96 -2.48 54.44 -2.48"/><polygon class="cls-209" points="54.93 -2.48 128.75 71.33 128.75 71.82 54.44 -2.48 54.93 -2.48"/><polygon class="cls-210" points="55.42 -2.48 128.75 70.85 128.75 71.33 54.93 -2.48 55.42 -2.48"/><polygon class="cls-211" points="55.9 -2.48 128.75 70.36 128.75 70.85 55.42 -2.48 55.9 -2.48"/><polygon class="cls-212" points="56.39 -2.48 128.75 69.88 128.75 70.36 55.9 -2.48 56.39 -2.48"/><polygon class="cls-213" points="56.88 -2.48 128.75 69.39 128.75 69.88 56.39 -2.48 56.88 -2.48"/><polygon class="cls-214" points="57.36 -2.48 128.75 68.9 128.75 69.39 56.88 -2.48 57.36 -2.48"/><polygon class="cls-215" points="57.85 -2.48 128.75 68.42 128.75 68.9 57.36 -2.48 57.85 -2.48"/><polygon class="cls-216" points="58.33 -2.48 128.75 67.93 128.75 68.42 57.85 -2.48 58.33 -2.48"/><polygon class="cls-217" points="58.82 -2.48 128.75 67.45 128.75 67.93 58.33 -2.48 58.82 -2.48"/><polygon class="cls-218" points="59.31 -2.48 128.75 66.96 128.75 67.45 58.82 -2.48 59.31 -2.48"/><polygon class="cls-219" points="59.79 -2.48 128.75 66.47 128.75 66.96 59.31 -2.48 59.79 -2.48"/><polygon class="cls-220" points="60.28 -2.48 128.75 65.99 128.75 66.47 59.79 -2.48 60.28 -2.48"/><polygon class="cls-221" points="60.76 -2.48 128.75 65.5 128.75 65.99 60.28 -2.48 60.76 -2.48"/><polygon class="cls-222" points="61.25 -2.48 128.75 65.02 128.75 65.5 60.76 -2.48 61.25 -2.48"/><polygon class="cls-223" points="61.74 -2.48 128.75 64.53 128.75 65.02 61.25 -2.48 61.74 -2.48"/><polygon class="cls-224" points="62.22 -2.48 128.75 64.04 128.75 64.53 61.74 -2.48 62.22 -2.48"/><polygon class="cls-225" points="62.71 -2.48 128.75 63.56 128.75 64.04 62.22 -2.48 62.71 -2.48"/><polygon class="cls-226" points="63.2 -2.48 128.75 63.07 128.75 63.56 62.71 -2.48 63.2 -2.48"/><polygon class="cls-227" points="63.68 -2.48 128.75 62.58 128.75 63.07 63.2 -2.48 63.68 -2.48"/><polygon class="cls-228" points="64.17 -2.48 128.75 62.1 128.75 62.58 63.68 -2.48 64.17 -2.48"/><polygon class="cls-229" points="64.65 -2.48 128.75 61.61 128.75 62.1 64.17 -2.48 64.65 -2.48"/><polygon class="cls-230" points="65.14 -2.48 128.75 61.13 128.75 61.61 64.65 -2.48 65.14 -2.48"/><polygon class="cls-231" points="65.63 -2.48 128.75 60.64 128.75 61.13 65.14 -2.48 65.63 -2.48"/><polygon class="cls-232" points="66.11 -2.48 128.75 60.15 128.75 60.64 65.63 -2.48 66.11 -2.48"/><polygon class="cls-233" points="66.6 -2.48 128.75 59.67 128.75 60.15 66.11 -2.48 66.6 -2.48"/><polygon class="cls-234" points="67.08 -2.48 128.75 59.18 128.75 59.67 66.6 -2.48 67.08 -2.48"/><polygon class="cls-235" points="67.57 -2.48 128.75 58.7 128.75 59.18 67.08 -2.48 67.57 -2.48"/><polygon class="cls-236" points="68.06 -2.48 128.75 58.21 128.75 58.7 67.57 -2.48 68.06 -2.48"/><polygon class="cls-237" points="68.54 -2.48 128.75 57.72 128.75 58.21 68.06 -2.48 68.54 -2.48"/><polygon class="cls-238" points="69.03 -2.48 128.75 57.24 128.75 57.72 68.54 -2.48 69.03 -2.48"/><polygon class="cls-239" points="69.52 -2.48 128.75 56.75 128.75 57.24 69.03 -2.48 69.52 -2.48"/><polygon class="cls-240" points="70 -2.48 128.75 56.27 128.75 56.75 69.52 -2.48 70 -2.48"/><polygon class="cls-241" points="70.49 -2.48 128.75 55.78 128.75 56.27 70 -2.48 70.49 -2.48"/><polygon class="cls-242" points="70.97 -2.48 128.75 55.29 128.75 55.78 70.49 -2.48 70.97 -2.48"/><polygon class="cls-243" points="71.46 -2.48 128.75 54.81 128.75 55.29 70.97 -2.48 71.46 -2.48"/><polygon class="cls-244" points="71.94 -2.48 128.75 54.32 128.75 54.81 71.46 -2.48 71.94 -2.48"/><polygon class="cls-245" points="72.43 -2.48 128.75 53.83 128.75 54.32 71.94 -2.48 72.43 -2.48"/><polygon class="cls-246" points="72.92 -2.48 128.75 53.35 128.75 53.83 72.43 -2.48 72.92 -2.48"/><polygon class="cls-247" points="73.4 -2.48 128.75 52.86 128.75 53.35 72.92 -2.48 73.4 -2.48"/><polygon class="cls-248" points="73.89 -2.48 128.75 52.38 128.75 52.86 73.4 -2.48 73.89 -2.48"/><polygon class="cls-249" points="74.38 -2.48 128.75 51.89 128.75 52.38 73.89 -2.48 74.38 -2.48"/><polygon class="cls-250" points="74.86 -2.48 128.75 51.4 128.75 51.89 74.38 -2.48 74.86 -2.48"/><polygon class="cls-251" points="75.35 -2.48 128.75 50.92 128.75 51.4 74.86 -2.48 75.35 -2.48"/><polygon class="cls-252" points="75.83 -2.48 128.75 50.43 128.75 50.92 75.35 -2.48 75.83 -2.48"/><polygon class="cls-253" points="76.32 -2.48 128.75 49.95 128.75 50.43 75.83 -2.48 76.32 -2.48"/><polygon class="cls-254" points="76.81 -2.48 128.75 49.46 128.75 49.95 76.32 -2.48 76.81 -2.48"/><polygon class="cls-255" points="77.29 -2.48 128.75 48.97 128.75 49.46 76.81 -2.48 77.29 -2.48"/><polygon class="cls-256" points="77.78 -2.48 128.75 48.49 128.75 48.97 77.29 -2.48 77.78 -2.48"/><polygon class="cls-257" points="78.27 -2.48 128.75 48 128.75 48.49 77.78 -2.48 78.27 -2.48"/><polygon class="cls-258" points="78.75 -2.48 128.75 47.51 128.75 48 78.27 -2.48 78.75 -2.48"/><polygon class="cls-259" points="79.24 -2.48 128.75 47.03 128.75 47.51 78.75 -2.48 79.24 -2.48"/><polygon class="cls-260" points="79.72 -2.48 128.75 46.54 128.75 47.03 79.24 -2.48 79.72 -2.48"/><polygon class="cls-261" points="80.21 -2.48 128.75 46.06 128.75 46.54 79.72 -2.48 80.21 -2.48"/><polygon class="cls-262" points="80.7 -2.48 128.75 45.57 128.75 46.06 80.21 -2.48 80.7 -2.48"/><polygon class="cls-263" points="81.18 -2.48 128.75 45.08 128.75 45.57 80.7 -2.48 81.18 -2.48"/><polygon class="cls-264" points="81.67 -2.48 128.75 44.6 128.75 45.08 81.18 -2.48 81.67 -2.48"/><polygon class="cls-265" points="82.15 -2.48 128.75 44.11 128.75 44.6 81.67 -2.48 82.15 -2.48"/><polygon class="cls-266" points="82.64 -2.48 128.75 43.63 128.75 44.11 82.15 -2.48 82.64 -2.48"/><polygon class="cls-267" points="83.13 -2.48 128.75 43.14 128.75 43.63 82.64 -2.48 83.13 -2.48"/><polygon class="cls-268" points="83.61 -2.48 128.75 42.65 128.75 43.14 83.13 -2.48 83.61 -2.48"/><polygon class="cls-269" points="84.1 -2.48 128.75 42.17 128.75 42.65 83.61 -2.48 84.1 -2.48"/><polygon class="cls-270" points="84.58 -2.48 128.75 41.68 128.75 42.17 84.1 -2.48 84.58 -2.48"/><polygon class="cls-271" points="85.07 -2.48 128.75 41.19 128.75 41.68 84.58 -2.48 85.07 -2.48"/><polygon class="cls-272" points="85.56 -2.48 128.75 40.71 128.75 41.19 85.07 -2.48 85.56 -2.48"/><polygon class="cls-273" points="86.04 -2.48 128.75 40.22 128.75 40.71 85.56 -2.48 86.04 -2.48"/><polygon class="cls-274" points="86.53 -2.48 128.75 39.74 128.75 40.22 86.04 -2.48 86.53 -2.48"/><polygon class="cls-275" points="87.02 -2.48 128.75 39.25 128.75 39.74 86.53 -2.48 87.02 -2.48"/><polygon class="cls-276" points="87.5 -2.48 128.75 38.76 128.75 39.25 87.02 -2.48 87.5 -2.48"/><polygon class="cls-277" points="87.99 -2.48 128.75 38.28 128.75 38.76 87.5 -2.48 87.99 -2.48"/><polygon class="cls-278" points="88.47 -2.48 128.75 37.79 128.75 38.28 87.99 -2.48 88.47 -2.48"/><polygon class="cls-279" points="88.96 -2.48 128.75 37.3 128.75 37.79 88.47 -2.48 88.96 -2.48"/><polygon class="cls-280" points="89.45 -2.48 128.75 36.82 128.75 37.3 88.96 -2.48 89.45 -2.48"/><polygon class="cls-281" points="89.93 -2.48 128.75 36.33 128.75 36.82 89.45 -2.48 89.93 -2.48"/><polygon class="cls-282" points="90.42 -2.48 128.75 35.85 128.75 36.33 89.93 -2.48 90.42 -2.48"/><polygon class="cls-283" points="90.91 -2.48 128.75 35.36 128.75 35.85 90.42 -2.48 90.91 -2.48"/><polygon class="cls-284" points="91.39 -2.48 128.75 34.88 128.75 35.36 90.91 -2.48 91.39 -2.48"/><polygon class="cls-285" points="91.88 -2.48 128.75 34.39 128.75 34.88 91.39 -2.48 91.88 -2.48"/><polygon class="cls-286" points="92.36 -2.48 128.75 33.9 128.75 34.39 91.88 -2.48 92.36 -2.48"/><polygon class="cls-287" points="92.85 -2.48 128.75 33.42 128.75 33.9 92.36 -2.48 92.85 -2.48"/><polygon class="cls-288" points="93.33 -2.48 128.75 32.93 128.75 33.42 92.85 -2.48 93.33 -2.48"/><polygon class="cls-289" points="93.82 -2.48 128.75 32.44 128.75 32.93 93.33 -2.48 93.82 -2.48"/><polygon class="cls-290" points="94.31 -2.48 128.75 31.96 128.75 32.44 93.82 -2.48 94.31 -2.48"/><polygon class="cls-291" points="94.79 -2.48 128.75 31.47 128.75 31.96 94.31 -2.48 94.79 -2.48"/><polygon class="cls-292" points="95.28 -2.48 128.75 30.99 128.75 31.47 94.79 -2.48 95.28 -2.48"/><polygon class="cls-293" points="95.77 -2.48 128.75 30.5 128.75 30.99 95.28 -2.48 95.77 -2.48"/><polygon class="cls-294" points="96.25 -2.48 128.75 30.01 128.75 30.5 95.77 -2.48 96.25 -2.48"/><polygon class="cls-295" points="96.74 -2.48 128.75 29.53 128.75 30.01 96.25 -2.48 96.74 -2.48"/><polygon class="cls-296" points="97.22 -2.48 128.75 29.04 128.75 29.53 96.74 -2.48 97.22 -2.48"/><polygon class="cls-297" points="97.71 -2.48 128.75 28.55 128.75 29.04 97.22 -2.48 97.71 -2.48"/><polygon class="cls-298" points="98.2 -2.48 128.75 28.07 128.75 28.55 97.71 -2.48 98.2 -2.48"/><polygon class="cls-299" points="98.68 -2.48 128.75 27.58 128.75 28.07 98.2 -2.48 98.68 -2.48"/><polygon class="cls-300" points="99.17 -2.48 128.75 27.1 128.75 27.58 98.68 -2.48 99.17 -2.48"/><polygon class="cls-300" points="128.75 27.1 99.17 -2.48 128.75 -2.48 128.75 27.1"/></g></g><g class="cls-304"><g class="cls-305"><polygon class="cls-4" points="2.67 64.72 56.48 118.54 2.67 118.54 2.67 64.72"/><polygon class="cls-4" points="2.67 64.08 57.13 118.54 56.48 118.54 2.67 64.72 2.67 64.08"/><polygon class="cls-5" points="2.67 63.44 57.77 118.54 57.13 118.54 2.67 64.08 2.67 63.44"/><polygon class="cls-6" points="2.67 62.79 58.42 118.54 57.77 118.54 2.67 63.44 2.67 62.79"/><polygon class="cls-7" points="2.67 62.15 59.06 118.54 58.42 118.54 2.67 62.79 2.67 62.15"/><polygon class="cls-8" points="2.67 61.5 59.71 118.54 59.06 118.54 2.67 62.15 2.67 61.5"/><polygon class="cls-9" points="2.67 60.86 60.35 118.54 59.71 118.54 2.67 61.5 2.67 60.86"/><polygon class="cls-10" points="2.67 60.21 60.99 118.54 60.35 118.54 2.67 60.86 2.67 60.21"/><polygon class="cls-11" points="2.67 59.57 61.64 118.54 60.99 118.54 2.67 60.21 2.67 59.57"/><polygon class="cls-12" points="2.67 58.92 62.28 118.54 61.64 118.54 2.67 59.57 2.67 58.92"/><polygon class="cls-13" points="2.67 58.28 62.93 118.54 62.28 118.54 2.67 58.92 2.67 58.28"/><polygon class="cls-14" points="2.67 57.64 63.57 118.54 62.93 118.54 2.67 58.28 2.67 57.64"/><polygon class="cls-15" points="2.67 56.99 64.22 118.54 63.57 118.54 2.67 57.64 2.67 56.99"/><polygon class="cls-16" points="2.67 56.35 64.86 118.54 64.22 118.54 2.67 56.99 2.67 56.35"/><polygon class="cls-17" points="2.67 55.7 65.51 118.54 64.86 118.54 2.67 56.35 2.67 55.7"/><polygon class="cls-18" points="2.67 55.06 66.15 118.54 65.51 118.54 2.67 55.7 2.67 55.06"/><polygon class="cls-19" points="2.67 54.41 66.8 118.54 66.15 118.54 2.67 55.06 2.67 54.41"/><polygon class="cls-20" points="2.67 53.77 67.44 118.54 66.8 118.54 2.67 54.41 2.67 53.77"/><polygon class="cls-21" points="2.67 53.13 68.08 118.54 67.44 118.54 2.67 53.77 2.67 53.13"/><polygon class="cls-22" points="2.67 52.48 68.73 118.54 68.08 118.54 2.67 53.13 2.67 52.48"/><polygon class="cls-23" points="2.67 51.84 69.37 118.54 68.73 118.54 2.67 52.48 2.67 51.84"/><polygon class="cls-24" points="2.67 51.19 70.02 118.54 69.37 118.54 2.67 51.84 2.67 51.19"/><polygon class="cls-25" points="2.67 50.55 70.66 118.54 70.02 118.54 2.67 51.19 2.67 50.55"/><polygon class="cls-26" points="2.67 49.9 71.31 118.54 70.66 118.54 2.67 50.55 2.67 49.9"/><polygon class="cls-27" points="2.67 49.26 71.95 118.54 71.31 118.54 2.67 49.9 2.67 49.26"/><polygon class="cls-28" points="2.67 48.62 72.59 118.54 71.95 118.54 2.67 49.26 2.67 48.62"/><polygon class="cls-29" points="2.67 47.97 73.24 118.54 72.59 118.54 2.67 48.62 2.67 47.97"/><polygon class="cls-30" points="2.67 47.33 73.88 118.54 73.24 118.54 2.67 47.97 2.67 47.33"/><polygon class="cls-31" points="2.67 46.68 74.53 118.54 73.88 118.54 2.67 47.33 2.67 46.68"/><polygon class="cls-32" points="2.67 46.04 75.17 118.54 74.53 118.54 2.67 46.68 2.67 46.04"/><polygon class="cls-33" points="2.67 45.39 75.82 118.54 75.17 118.54 2.67 46.04 2.67 45.39"/><polygon class="cls-34" points="2.67 44.75 76.46 118.54 75.82 118.54 2.67 45.39 2.67 44.75"/><polygon class="cls-35" points="2.67 44.1 77.11 118.54 76.46 118.54 2.67 44.75 2.67 44.1"/><polygon class="cls-36" points="2.67 43.46 77.75 118.54 77.11 118.54 2.67 44.1 2.67 43.46"/><polygon class="cls-37" points="2.67 42.81 78.39 118.54 77.75 118.54 2.67 43.46 2.67 42.81"/><polygon class="cls-38" points="2.67 42.17 79.04 118.54 78.39 118.54 2.67 42.81 2.67 42.17"/><polygon class="cls-39" points="2.67 41.53 79.68 118.54 79.04 118.54 2.67 42.17 2.67 41.53"/><polygon class="cls-40" points="2.67 40.88 80.33 118.54 79.68 118.54 2.67 41.53 2.67 40.88"/><polygon class="cls-41" points="2.67 40.24 80.97 118.54 80.33 118.54 2.67 40.88 2.67 40.24"/><polygon class="cls-42" points="2.67 39.59 81.62 118.54 80.97 118.54 2.67 40.24 2.67 39.59"/><polygon class="cls-43" points="2.67 38.95 82.26 118.54 81.62 118.54 2.67 39.59 2.67 38.95"/><polygon class="cls-44" points="2.67 38.3 82.91 118.54 82.26 118.54 2.67 38.95 2.67 38.3"/><polygon class="cls-45" points="2.67 37.66 83.55 118.54 82.91 118.54 2.67 38.3 2.67 37.66"/><polygon class="cls-46" points="2.67 37.02 84.19 118.54 83.55 118.54 2.67 37.66 2.67 37.02"/><polygon class="cls-47" points="2.67 36.37 84.84 118.54 84.19 118.54 2.67 37.02 2.67 36.37"/><polygon class="cls-48" points="2.67 35.73 85.48 118.54 84.84 118.54 2.67 36.37 2.67 35.73"/><polygon class="cls-49" points="2.67 35.08 86.13 118.54 85.48 118.54 2.67 35.73 2.67 35.08"/><polygon class="cls-50" points="2.67 34.44 86.77 118.54 86.13 118.54 2.67 35.08 2.67 34.44"/><polygon class="cls-51" points="2.67 33.79 87.42 118.54 86.77 118.54 2.67 34.44 2.67 33.79"/><polygon class="cls-52" points="2.67 33.15 88.06 118.54 87.42 118.54 2.67 33.79 2.67 33.15"/><polygon class="cls-53" points="2.67 32.51 88.7 118.54 88.06 118.54 2.67 33.15 2.67 32.51"/><polygon class="cls-54" points="2.67 31.86 89.35 118.54 88.7 118.54 2.67 32.51 2.67 31.86"/><polygon class="cls-55" points="2.67 31.22 89.99 118.54 89.35 118.54 2.67 31.86 2.67 31.22"/><polygon class="cls-56" points="2.67 30.57 90.64 118.54 89.99 118.54 2.67 31.22 2.67 30.57"/><polygon class="cls-57" points="2.67 29.93 91.28 118.54 90.64 118.54 2.67 30.57 2.67 29.93"/><polygon class="cls-58" points="2.67 29.28 91.93 118.54 91.28 118.54 2.67 29.93 2.67 29.28"/><polygon class="cls-59" points="2.67 28.64 92.57 118.54 91.93 118.54 2.67 29.28 2.67 28.64"/><polygon class="cls-60" points="2.67 27.99 93.22 118.54 92.57 118.54 2.67 28.64 2.67 27.99"/><polygon class="cls-61" points="2.67 27.35 93.86 118.54 93.22 118.54 2.67 27.99 2.67 27.35"/><polygon class="cls-62" points="2.67 26.7 94.5 118.54 93.86 118.54 2.67 27.35 2.67 26.7"/><polygon class="cls-63" points="2.67 26.06 95.15 118.54 94.5 118.54 2.67 26.7 2.67 26.06"/><polygon class="cls-64" points="2.67 25.42 95.79 118.54 95.15 118.54 2.67 26.06 2.67 25.42"/><polygon class="cls-65" points="2.67 24.77 96.44 118.54 95.79 118.54 2.67 25.42 2.67 24.77"/><polygon class="cls-66" points="2.67 24.13 97.08 118.54 96.44 118.54 2.67 24.77 2.67 24.13"/><polygon class="cls-67" points="2.67 23.48 97.73 118.54 97.08 118.54 2.67 24.13 2.67 23.48"/><polygon class="cls-68" points="2.67 22.84 98.37 118.54 97.73 118.54 2.67 23.48 2.67 22.84"/><polygon class="cls-69" points="2.67 22.19 99.02 118.54 98.37 118.54 2.67 22.84 2.67 22.19"/><polygon class="cls-70" points="2.67 21.55 99.66 118.54 99.02 118.54 2.67 22.19 2.67 21.55"/><polygon class="cls-71" points="2.67 20.91 100.3 118.54 99.66 118.54 2.67 21.55 2.67 20.91"/><polygon class="cls-72" points="2.67 20.26 100.95 118.54 100.3 118.54 2.67 20.91 2.67 20.26"/><polygon class="cls-73" points="2.67 19.62 101.59 118.54 100.95 118.54 2.67 20.26 2.67 19.62"/><polygon class="cls-74" points="2.67 18.97 102.24 118.54 101.59 118.54 2.67 19.62 2.67 18.97"/><polygon class="cls-75" points="2.67 18.33 102.88 118.54 102.24 118.54 2.67 18.97 2.67 18.33"/><polygon class="cls-76" points="2.67 17.68 103.53 118.54 102.88 118.54 2.67 18.33 2.67 17.68"/><polygon class="cls-77" points="2.67 17.04 104.17 118.54 103.53 118.54 2.67 17.68 2.67 17.04"/><polygon class="cls-78" points="2.67 16.39 104.81 118.54 104.17 118.54 2.67 17.04 2.67 16.39"/><polygon class="cls-79" points="2.67 15.75 105.46 118.54 104.81 118.54 2.67 16.39 2.67 15.75"/><polygon class="cls-80" points="2.67 15.11 106.1 118.54 105.46 118.54 2.67 15.75 2.67 15.11"/><polygon class="cls-81" points="2.67 14.46 106.75 118.54 106.1 118.54 2.67 15.11 2.67 14.46"/><polygon class="cls-82" points="2.67 13.82 107.39 118.54 106.75 118.54 2.67 14.46 2.67 13.82"/><polygon class="cls-83" points="2.67 13.17 108.04 118.54 107.39 118.54 2.67 13.82 2.67 13.17"/><polygon class="cls-84" points="2.67 12.53 108.68 118.54 108.04 118.54 2.67 13.17 2.67 12.53"/><polygon class="cls-85" points="2.67 11.88 109.33 118.54 108.68 118.54 2.67 12.53 2.67 11.88"/><polygon class="cls-86" points="2.67 11.24 109.97 118.54 109.33 118.54 2.67 11.88 2.67 11.24"/><polygon class="cls-87" points="2.67 10.6 110.61 118.54 109.97 118.54 2.67 11.24 2.67 10.6"/><polygon class="cls-88" points="2.67 9.95 111.26 118.54 110.61 118.54 2.67 10.6 2.67 9.95"/><polygon class="cls-89" points="2.67 9.31 111.9 118.54 111.26 118.54 2.67 9.95 2.67 9.31"/><polygon class="cls-90" points="2.67 8.66 112.55 118.54 111.9 118.54 2.67 9.31 2.67 8.66"/><polygon class="cls-91" points="2.67 8.02 113.19 118.54 112.55 118.54 2.67 8.66 2.67 8.02"/><polygon class="cls-92" points="2.67 7.37 113.84 118.54 113.19 118.54 2.67 8.02 2.67 7.37"/><polygon class="cls-93" points="2.67 6.73 114.48 118.54 113.84 118.54 2.67 7.37 2.67 6.73"/><polygon class="cls-94" points="2.67 6.08 115.13 118.54 114.48 118.54 2.67 6.73 2.67 6.08"/><polygon class="cls-95" points="2.67 5.44 115.77 118.54 115.13 118.54 2.67 6.08 2.67 5.44"/><polygon class="cls-96" points="2.67 4.8 116.41 118.54 115.77 118.54 2.67 5.44 2.67 4.8"/><polygon class="cls-97" points="2.67 4.15 117.06 118.54 116.41 118.54 2.67 4.8 2.67 4.15"/><polygon class="cls-98" points="2.67 3.51 117.7 118.54 117.06 118.54 2.67 4.15 2.67 3.51"/><polygon class="cls-99" points="2.67 2.86 118.35 118.54 117.7 118.54 2.67 3.51 2.67 2.86"/><polygon class="cls-100" points="2.67 2.22 118.99 118.54 118.35 118.54 2.67 2.86 2.67 2.22"/><polygon class="cls-101" points="2.67 1.57 119.64 118.54 118.99 118.54 2.67 2.22 2.67 1.57"/><polygon class="cls-102" points="2.67 0.93 120.28 118.54 119.64 118.54 2.67 1.57 2.67 0.93"/><polygon class="cls-103" points="2.67 0.28 120.92 118.54 120.28 118.54 2.67 0.93 2.67 0.28"/><polygon class="cls-104" points="2.67 -0.36 121.57 118.54 120.92 118.54 2.67 0.28 2.67 -0.36"/><polygon class="cls-105" points="2.67 -1 122.21 118.54 121.57 118.54 2.67 -0.36 2.67 -1"/><polygon class="cls-106" points="2.67 -1.65 122.86 118.54 122.21 118.54 2.67 -1 2.67 -1.65"/><polygon class="cls-107" points="2.67 -2.29 123.5 118.54 122.86 118.54 2.67 -1.65 2.67 -2.29"/><polygon class="cls-108" points="2.67 -2.94 124.15 118.54 123.5 118.54 2.67 -2.29 2.67 -2.94"/><polygon class="cls-109" points="2.67 -3.58 124.79 118.54 124.15 118.54 2.67 -2.94 2.67 -3.58"/><polygon class="cls-110" points="2.67 -4.23 125.44 118.54 124.79 118.54 2.67 -3.58 2.67 -4.23"/><polygon class="cls-111" points="2.67 -4.87 126.08 118.54 125.44 118.54 2.67 -4.23 2.67 -4.87"/><polygon class="cls-112" points="2.67 -5.51 126.72 118.54 126.08 118.54 2.67 -4.87 2.67 -5.51"/><polygon class="cls-113" points="2.67 -6.16 127.37 118.54 126.72 118.54 2.67 -5.51 2.67 -6.16"/><polygon class="cls-114" points="2.67 -6.8 128.01 118.54 127.37 118.54 2.67 -6.16 2.67 -6.8"/><polygon class="cls-115" points="2.67 -7.45 128.66 118.54 128.01 118.54 2.67 -6.8 2.67 -7.45"/><polygon class="cls-116" points="3.22 -7.54 128.75 117.99 128.75 118.54 128.66 118.54 2.67 -7.45 2.67 -7.54 3.22 -7.54"/><polygon class="cls-117" points="3.86 -7.54 128.75 117.35 128.75 117.99 3.22 -7.54 3.86 -7.54"/><polygon class="cls-118" points="4.51 -7.54 128.75 116.7 128.75 117.35 3.86 -7.54 4.51 -7.54"/><polygon class="cls-119" points="5.15 -7.54 128.75 116.06 128.75 116.7 4.51 -7.54 5.15 -7.54"/><polygon class="cls-120" points="5.8 -7.54 128.75 115.41 128.75 116.06 5.15 -7.54 5.8 -7.54"/><polygon class="cls-121" points="6.44 -7.54 128.75 114.77 128.75 115.41 5.8 -7.54 6.44 -7.54"/><polygon class="cls-122" points="7.09 -7.54 128.75 114.12 128.75 114.77 6.44 -7.54 7.09 -7.54"/><polygon class="cls-123" points="7.73 -7.54 128.75 113.48 128.75 114.12 7.09 -7.54 7.73 -7.54"/><polygon class="cls-124" points="8.38 -7.54 128.75 112.83 128.75 113.48 7.73 -7.54 8.38 -7.54"/><polygon class="cls-125" points="9.02 -7.54 128.75 112.19 128.75 112.83 8.38 -7.54 9.02 -7.54"/><polygon class="cls-126" points="9.66 -7.54 128.75 111.55 128.75 112.19 9.02 -7.54 9.66 -7.54"/><polygon class="cls-127" points="10.31 -7.54 128.75 110.9 128.75 111.55 9.66 -7.54 10.31 -7.54"/><polygon class="cls-128" points="10.95 -7.54 128.75 110.26 128.75 110.9 10.31 -7.54 10.95 -7.54"/><polygon class="cls-129" points="11.6 -7.54 128.75 109.61 128.75 110.26 10.95 -7.54 11.6 -7.54"/><polygon class="cls-130" points="12.24 -7.54 128.75 108.97 128.75 109.61 11.6 -7.54 12.24 -7.54"/><polygon class="cls-131" points="12.89 -7.54 128.75 108.32 128.75 108.97 12.24 -7.54 12.89 -7.54"/><polygon class="cls-132" points="13.53 -7.54 128.75 107.68 128.75 108.32 12.89 -7.54 13.53 -7.54"/><polygon class="cls-133" points="14.17 -7.54 128.75 107.03 128.75 107.68 13.53 -7.54 14.17 -7.54"/><polygon class="cls-134" points="14.82 -7.54 128.75 106.39 128.75 107.03 14.17 -7.54 14.82 -7.54"/><polygon class="cls-135" points="15.46 -7.54 128.75 105.75 128.75 106.39 14.82 -7.54 15.46 -7.54"/><polygon class="cls-136" points="16.11 -7.54 128.75 105.1 128.75 105.75 15.46 -7.54 16.11 -7.54"/><polygon class="cls-137" points="16.75 -7.54 128.75 104.46 128.75 105.1 16.11 -7.54 16.75 -7.54"/><polygon class="cls-138" points="17.4 -7.54 128.75 103.81 128.75 104.46 16.75 -7.54 17.4 -7.54"/><polygon class="cls-139" points="18.04 -7.54 128.75 103.17 128.75 103.81 17.4 -7.54 18.04 -7.54"/><polygon class="cls-140" points="18.68 -7.54 128.75 102.52 128.75 103.17 18.04 -7.54 18.68 -7.54"/><polygon class="cls-141" points="19.33 -7.54 128.75 101.88 128.75 102.52 18.68 -7.54 19.33 -7.54"/><polygon class="cls-142" points="19.97 -7.54 128.75 101.24 128.75 101.88 19.33 -7.54 19.97 -7.54"/><polygon class="cls-143" points="20.62 -7.54 128.75 100.59 128.75 101.24 19.97 -7.54 20.62 -7.54"/><polygon class="cls-144" points="21.26 -7.54 128.75 99.95 128.75 100.59 20.62 -7.54 21.26 -7.54"/><polygon class="cls-145" points="21.91 -7.54 128.75 99.3 128.75 99.95 21.26 -7.54 21.91 -7.54"/><polygon class="cls-146" points="22.55 -7.54 128.75 98.66 128.75 99.3 21.91 -7.54 22.55 -7.54"/><polygon class="cls-147" points="23.2 -7.54 128.75 98.01 128.75 98.66 22.55 -7.54 23.2 -7.54"/><polygon class="cls-148" points="23.84 -7.54 128.75 97.37 128.75 98.01 23.2 -7.54 23.84 -7.54"/><polygon class="cls-149" points="24.48 -7.54 128.75 96.72 128.75 97.37 23.84 -7.54 24.48 -7.54"/><polygon class="cls-150" points="25.13 -7.54 128.75 96.08 128.75 96.72 24.48 -7.54 25.13 -7.54"/><polygon class="cls-151" points="25.77 -7.54 128.75 95.44 128.75 96.08 25.13 -7.54 25.77 -7.54"/><polygon class="cls-152" points="26.42 -7.54 128.75 94.79 128.75 95.44 25.77 -7.54 26.42 -7.54"/><polygon class="cls-153" points="27.06 -7.54 128.75 94.15 128.75 94.79 26.42 -7.54 27.06 -7.54"/><polygon class="cls-154" points="27.71 -7.54 128.75 93.5 128.75 94.15 27.06 -7.54 27.71 -7.54"/><polygon class="cls-154" points="28.19 -7.54 128.75 93.02 128.75 93.5 27.71 -7.54 28.19 -7.54"/><polygon class="cls-155" points="28.68 -7.54 128.75 92.53 128.75 93.02 28.19 -7.54 28.68 -7.54"/><polygon class="cls-156" points="29.16 -7.54 128.75 92.04 128.75 92.53 28.68 -7.54 29.16 -7.54"/><polygon class="cls-157" points="29.65 -7.54 128.75 91.56 128.75 92.04 29.16 -7.54 29.65 -7.54"/><polygon class="cls-158" points="30.14 -7.54 128.75 91.07 128.75 91.56 29.65 -7.54 30.14 -7.54"/><polygon class="cls-159" points="30.62 -7.54 128.75 90.59 128.75 91.07 30.14 -7.54 30.62 -7.54"/><polygon class="cls-160" points="31.11 -7.54 128.75 90.1 128.75 90.59 30.62 -7.54 31.11 -7.54"/><polygon class="cls-161" points="31.6 -7.54 128.75 89.61 128.75 90.1 31.11 -7.54 31.6 -7.54"/><polygon class="cls-162" points="32.08 -7.54 128.75 89.13 128.75 89.61 31.6 -7.54 32.08 -7.54"/><polygon class="cls-163" points="32.57 -7.54 128.75 88.64 128.75 89.13 32.08 -7.54 32.57 -7.54"/><polygon class="cls-164" points="33.05 -7.54 128.75 88.16 128.75 88.64 32.57 -7.54 33.05 -7.54"/><polygon class="cls-165" points="33.54 -7.54 128.75 87.67 128.75 88.16 33.05 -7.54 33.54 -7.54"/><polygon class="cls-166" points="34.03 -7.54 128.75 87.18 128.75 87.67 33.54 -7.54 34.03 -7.54"/><polygon class="cls-167" points="34.51 -7.54 128.75 86.7 128.75 87.18 34.03 -7.54 34.51 -7.54"/><polygon class="cls-168" points="35 -7.54 128.75 86.21 128.75 86.7 34.51 -7.54 35 -7.54"/><polygon class="cls-169" points="35.48 -7.54 128.75 85.72 128.75 86.21 35 -7.54 35.48 -7.54"/><polygon class="cls-170" points="35.97 -7.54 128.75 85.24 128.75 85.72 35.48 -7.54 35.97 -7.54"/><polygon class="cls-171" points="36.46 -7.54 128.75 84.75 128.75 85.24 35.97 -7.54 36.46 -7.54"/><polygon class="cls-172" points="36.94 -7.54 128.75 84.27 128.75 84.75 36.46 -7.54 36.94 -7.54"/><polygon class="cls-173" points="37.43 -7.54 128.75 83.78 128.75 84.27 36.94 -7.54 37.43 -7.54"/><polygon class="cls-174" points="37.92 -7.54 128.75 83.29 128.75 83.78 37.43 -7.54 37.92 -7.54"/><polygon class="cls-175" points="38.4 -7.54 128.75 82.81 128.75 83.29 37.92 -7.54 38.4 -7.54"/><polygon class="cls-176" points="38.89 -7.54 128.75 82.32 128.75 82.81 38.4 -7.54 38.89 -7.54"/><polygon class="cls-177" points="39.37 -7.54 128.75 81.84 128.75 82.32 38.89 -7.54 39.37 -7.54"/><polygon class="cls-178" points="39.86 -7.54 128.75 81.35 128.75 81.84 39.37 -7.54 39.86 -7.54"/><polygon class="cls-179" points="40.35 -7.54 128.75 80.86 128.75 81.35 39.86 -7.54 40.35 -7.54"/><polygon class="cls-180" points="40.83 -7.54 128.75 80.38 128.75 80.86 40.35 -7.54 40.83 -7.54"/><polygon class="cls-181" points="41.32 -7.54 128.75 79.89 128.75 80.38 40.83 -7.54 41.32 -7.54"/><polygon class="cls-182" points="41.8 -7.54 128.75 79.41 128.75 79.89 41.32 -7.54 41.8 -7.54"/><polygon class="cls-183" points="42.29 -7.54 128.75 78.92 128.75 79.41 41.8 -7.54 42.29 -7.54"/><polygon class="cls-184" points="42.78 -7.54 128.75 78.43 128.75 78.92 42.29 -7.54 42.78 -7.54"/><polygon class="cls-185" points="43.26 -7.54 128.75 77.95 128.75 78.43 42.78 -7.54 43.26 -7.54"/><polygon class="cls-186" points="43.75 -7.54 128.75 77.46 128.75 77.95 43.26 -7.54 43.75 -7.54"/><polygon class="cls-187" points="44.23 -7.54 128.75 76.97 128.75 77.46 43.75 -7.54 44.23 -7.54"/><polygon class="cls-188" points="44.72 -7.54 128.75 76.49 128.75 76.97 44.23 -7.54 44.72 -7.54"/><polygon class="cls-189" points="45.21 -7.54 128.75 76 128.75 76.49 44.72 -7.54 45.21 -7.54"/><polygon class="cls-190" points="45.69 -7.54 128.75 75.52 128.75 76 45.21 -7.54 45.69 -7.54"/><polygon class="cls-191" points="46.18 -7.54 128.75 75.03 128.75 75.52 45.69 -7.54 46.18 -7.54"/><polygon class="cls-192" points="46.67 -7.54 128.75 74.54 128.75 75.03 46.18 -7.54 46.67 -7.54"/><polygon class="cls-193" points="47.15 -7.54 128.75 74.06 128.75 74.54 46.67 -7.54 47.15 -7.54"/><polygon class="cls-194" points="47.64 -7.54 128.75 73.57 128.75 74.06 47.15 -7.54 47.64 -7.54"/><polygon class="cls-195" points="48.13 -7.54 128.75 73.08 128.75 73.57 47.64 -7.54 48.13 -7.54"/><polygon class="cls-196" points="48.61 -7.54 128.75 72.6 128.75 73.08 48.13 -7.54 48.61 -7.54"/><polygon class="cls-197" points="49.1 -7.54 128.75 72.11 128.75 72.6 48.61 -7.54 49.1 -7.54"/><polygon class="cls-198" points="49.58 -7.54 128.75 71.63 128.75 72.11 49.1 -7.54 49.58 -7.54"/><polygon class="cls-199" points="50.07 -7.54 128.75 71.14 128.75 71.63 49.58 -7.54 50.07 -7.54"/><polygon class="cls-200" points="50.55 -7.54 128.75 70.65 128.75 71.14 50.07 -7.54 50.55 -7.54"/><polygon class="cls-201" points="51.04 -7.54 128.75 70.17 128.75 70.65 50.55 -7.54 51.04 -7.54"/><polygon class="cls-202" points="51.53 -7.54 128.75 69.68 128.75 70.17 51.04 -7.54 51.53 -7.54"/><polygon class="cls-203" points="52.01 -7.54 128.75 69.2 128.75 69.68 51.53 -7.54 52.01 -7.54"/><polygon class="cls-204" points="52.5 -7.54 128.75 68.71 128.75 69.2 52.01 -7.54 52.5 -7.54"/><polygon class="cls-205" points="52.99 -7.54 128.75 68.22 128.75 68.71 52.5 -7.54 52.99 -7.54"/><polygon class="cls-206" points="53.47 -7.54 128.75 67.74 128.75 68.22 52.99 -7.54 53.47 -7.54"/><polygon class="cls-207" points="53.96 -7.54 128.75 67.25 128.75 67.74 53.47 -7.54 53.96 -7.54"/><polygon class="cls-208" points="54.44 -7.54 128.75 66.77 128.75 67.25 53.96 -7.54 54.44 -7.54"/><polygon class="cls-209" points="54.93 -7.54 128.75 66.28 128.75 66.77 54.44 -7.54 54.93 -7.54"/><polygon class="cls-210" points="55.42 -7.54 128.75 65.79 128.75 66.28 54.93 -7.54 55.42 -7.54"/><polygon class="cls-211" points="55.9 -7.54 128.75 65.31 128.75 65.79 55.42 -7.54 55.9 -7.54"/><polygon class="cls-212" points="56.39 -7.54 128.75 64.82 128.75 65.31 55.9 -7.54 56.39 -7.54"/><polygon class="cls-213" points="56.88 -7.54 128.75 64.33 128.75 64.82 56.39 -7.54 56.88 -7.54"/><polygon class="cls-214" points="57.36 -7.54 128.75 63.85 128.75 64.33 56.88 -7.54 57.36 -7.54"/><polygon class="cls-215" points="57.85 -7.54 128.75 63.36 128.75 63.85 57.36 -7.54 57.85 -7.54"/><polygon class="cls-216" points="58.33 -7.54 128.75 62.88 128.75 63.36 57.85 -7.54 58.33 -7.54"/><polygon class="cls-217" points="58.82 -7.54 128.75 62.39 128.75 62.88 58.33 -7.54 58.82 -7.54"/><polygon class="cls-218" points="59.31 -7.54 128.75 61.9 128.75 62.39 58.82 -7.54 59.31 -7.54"/><polygon class="cls-219" points="59.79 -7.54 128.75 61.42 128.75 61.9 59.31 -7.54 59.79 -7.54"/><polygon class="cls-220" points="60.28 -7.54 128.75 60.93 128.75 61.42 59.79 -7.54 60.28 -7.54"/><polygon class="cls-221" points="60.76 -7.54 128.75 60.45 128.75 60.93 60.28 -7.54 60.76 -7.54"/><polygon class="cls-222" points="61.25 -7.54 128.75 59.96 128.75 60.45 60.76 -7.54 61.25 -7.54"/><polygon class="cls-223" points="61.74 -7.54 128.75 59.47 128.75 59.96 61.25 -7.54 61.74 -7.54"/><polygon class="cls-224" points="62.22 -7.54 128.75 58.99 128.75 59.47 61.74 -7.54 62.22 -7.54"/><polygon class="cls-225" points="62.71 -7.54 128.75 58.5 128.75 58.99 62.22 -7.54 62.71 -7.54"/><polygon class="cls-226" points="63.2 -7.54 128.75 58.02 128.75 58.5 62.71 -7.54 63.2 -7.54"/><polygon class="cls-227" points="63.68 -7.54 128.75 57.53 128.75 58.02 63.2 -7.54 63.68 -7.54"/><polygon class="cls-228" points="64.17 -7.54 128.75 57.04 128.75 57.53 63.68 -7.54 64.17 -7.54"/><polygon class="cls-229" points="64.65 -7.54 128.75 56.56 128.75 57.04 64.17 -7.54 64.65 -7.54"/><polygon class="cls-230" points="65.14 -7.54 128.75 56.07 128.75 56.56 64.65 -7.54 65.14 -7.54"/><polygon class="cls-231" points="65.63 -7.54 128.75 55.58 128.75 56.07 65.14 -7.54 65.63 -7.54"/><polygon class="cls-232" points="66.11 -7.54 128.75 55.1 128.75 55.58 65.63 -7.54 66.11 -7.54"/><polygon class="cls-233" points="66.6 -7.54 128.75 54.61 128.75 55.1 66.11 -7.54 66.6 -7.54"/><polygon class="cls-234" points="67.08 -7.54 128.75 54.13 128.75 54.61 66.6 -7.54 67.08 -7.54"/><polygon class="cls-235" points="67.57 -7.54 128.75 53.64 128.75 54.13 67.08 -7.54 67.57 -7.54"/><polygon class="cls-236" points="68.06 -7.54 128.75 53.15 128.75 53.64 67.57 -7.54 68.06 -7.54"/><polygon class="cls-237" points="68.54 -7.54 128.75 52.67 128.75 53.15 68.06 -7.54 68.54 -7.54"/><polygon class="cls-238" points="69.03 -7.54 128.75 52.18 128.75 52.67 68.54 -7.54 69.03 -7.54"/><polygon class="cls-239" points="69.52 -7.54 128.75 51.7 128.75 52.18 69.03 -7.54 69.52 -7.54"/><polygon class="cls-240" points="70 -7.54 128.75 51.21 128.75 51.7 69.52 -7.54 70 -7.54"/><polygon class="cls-241" points="70.49 -7.54 128.75 50.72 128.75 51.21 70 -7.54 70.49 -7.54"/><polygon class="cls-242" points="70.97 -7.54 128.75 50.24 128.75 50.72 70.49 -7.54 70.97 -7.54"/><polygon class="cls-243" points="71.46 -7.54 128.75 49.75 128.75 50.24 70.97 -7.54 71.46 -7.54"/><polygon class="cls-244" points="71.94 -7.54 128.75 49.26 128.75 49.75 71.46 -7.54 71.94 -7.54"/><polygon class="cls-245" points="72.43 -7.54 128.75 48.78 128.75 49.26 71.94 -7.54 72.43 -7.54"/><polygon class="cls-246" points="72.92 -7.54 128.75 48.29 128.75 48.78 72.43 -7.54 72.92 -7.54"/><polygon class="cls-247" points="73.4 -7.54 128.75 47.81 128.75 48.29 72.92 -7.54 73.4 -7.54"/><polygon class="cls-248" points="73.89 -7.54 128.75 47.32 128.75 47.81 73.4 -7.54 73.89 -7.54"/><polygon class="cls-249" points="74.38 -7.54 128.75 46.83 128.75 47.32 73.89 -7.54 74.38 -7.54"/><polygon class="cls-250" points="74.86 -7.54 128.75 46.35 128.75 46.83 74.38 -7.54 74.86 -7.54"/><polygon class="cls-251" points="75.35 -7.54 128.75 45.86 128.75 46.35 74.86 -7.54 75.35 -7.54"/><polygon class="cls-252" points="75.83 -7.54 128.75 45.38 128.75 45.86 75.35 -7.54 75.83 -7.54"/><polygon class="cls-253" points="76.32 -7.54 128.75 44.89 128.75 45.38 75.83 -7.54 76.32 -7.54"/><polygon class="cls-254" points="76.81 -7.54 128.75 44.4 128.75 44.89 76.32 -7.54 76.81 -7.54"/><polygon class="cls-255" points="77.29 -7.54 128.75 43.92 128.75 44.4 76.81 -7.54 77.29 -7.54"/><polygon class="cls-256" points="77.78 -7.54 128.75 43.43 128.75 43.92 77.29 -7.54 77.78 -7.54"/><polygon class="cls-257" points="78.27 -7.54 128.75 42.95 128.75 43.43 77.78 -7.54 78.27 -7.54"/><polygon class="cls-258" points="78.75 -7.54 128.75 42.46 128.75 42.95 78.27 -7.54 78.75 -7.54"/><polygon class="cls-259" points="79.24 -7.54 128.75 41.97 128.75 42.46 78.75 -7.54 79.24 -7.54"/><polygon class="cls-260" points="79.72 -7.54 128.75 41.49 128.75 41.97 79.24 -7.54 79.72 -7.54"/><polygon class="cls-261" points="80.21 -7.54 128.75 41 128.75 41.49 79.72 -7.54 80.21 -7.54"/><polygon class="cls-262" points="80.7 -7.54 128.75 40.51 128.75 41 80.21 -7.54 80.7 -7.54"/><polygon class="cls-263" points="81.18 -7.54 128.75 40.03 128.75 40.51 80.7 -7.54 81.18 -7.54"/><polygon class="cls-264" points="81.67 -7.54 128.75 39.54 128.75 40.03 81.18 -7.54 81.67 -7.54"/><polygon class="cls-265" points="82.15 -7.54 128.75 39.06 128.75 39.54 81.67 -7.54 82.15 -7.54"/><polygon class="cls-266" points="82.64 -7.54 128.75 38.57 128.75 39.06 82.15 -7.54 82.64 -7.54"/><polygon class="cls-267" points="83.13 -7.54 128.75 38.08 128.75 38.57 82.64 -7.54 83.13 -7.54"/><polygon class="cls-268" points="83.61 -7.54 128.75 37.6 128.75 38.08 83.13 -7.54 83.61 -7.54"/><polygon class="cls-269" points="84.1 -7.54 128.75 37.11 128.75 37.6 83.61 -7.54 84.1 -7.54"/><polygon class="cls-270" points="84.58 -7.54 128.75 36.63 128.75 37.11 84.1 -7.54 84.58 -7.54"/><polygon class="cls-271" points="85.07 -7.54 128.75 36.14 128.75 36.63 84.58 -7.54 85.07 -7.54"/><polygon class="cls-272" points="85.56 -7.54 128.75 35.65 128.75 36.14 85.07 -7.54 85.56 -7.54"/><polygon class="cls-273" points="86.04 -7.54 128.75 35.17 128.75 35.65 85.56 -7.54 86.04 -7.54"/><polygon class="cls-274" points="86.53 -7.54 128.75 34.68 128.75 35.17 86.04 -7.54 86.53 -7.54"/><polygon class="cls-275" points="87.02 -7.54 128.75 34.19 128.75 34.68 86.53 -7.54 87.02 -7.54"/><polygon class="cls-276" points="87.5 -7.54 128.75 33.71 128.75 34.19 87.02 -7.54 87.5 -7.54"/><polygon class="cls-277" points="87.99 -7.54 128.75 33.22 128.75 33.71 87.5 -7.54 87.99 -7.54"/><polygon class="cls-278" points="88.47 -7.54 128.75 32.74 128.75 33.22 87.99 -7.54 88.47 -7.54"/><polygon class="cls-279" points="88.96 -7.54 128.75 32.25 128.75 32.74 88.47 -7.54 88.96 -7.54"/><polygon class="cls-280" points="89.45 -7.54 128.75 31.76 128.75 32.25 88.96 -7.54 89.45 -7.54"/><polygon class="cls-281" points="89.93 -7.54 128.75 31.28 128.75 31.76 89.45 -7.54 89.93 -7.54"/><polygon class="cls-282" points="90.42 -7.54 128.75 30.79 128.75 31.28 89.93 -7.54 90.42 -7.54"/><polygon class="cls-283" points="90.91 -7.54 128.75 30.3 128.75 30.79 90.42 -7.54 90.91 -7.54"/><polygon class="cls-284" points="91.39 -7.54 128.75 29.82 128.75 30.3 90.91 -7.54 91.39 -7.54"/><polygon class="cls-285" points="91.88 -7.54 128.75 29.33 128.75 29.82 91.39 -7.54 91.88 -7.54"/><polygon class="cls-286" points="92.36 -7.54 128.75 28.85 128.75 29.33 91.88 -7.54 92.36 -7.54"/><polygon class="cls-287" points="92.85 -7.54 128.75 28.36 128.75 28.85 92.36 -7.54 92.85 -7.54"/><polygon class="cls-288" points="93.33 -7.54 128.75 27.87 128.75 28.36 92.85 -7.54 93.33 -7.54"/><polygon class="cls-289" points="93.82 -7.54 128.75 27.39 128.75 27.87 93.33 -7.54 93.82 -7.54"/><polygon class="cls-290" points="94.31 -7.54 128.75 26.9 128.75 27.39 93.82 -7.54 94.31 -7.54"/><polygon class="cls-291" points="94.79 -7.54 128.75 26.42 128.75 26.9 94.31 -7.54 94.79 -7.54"/><polygon class="cls-292" points="95.28 -7.54 128.75 25.93 128.75 26.42 94.79 -7.54 95.28 -7.54"/><polygon class="cls-293" points="95.77 -7.54 128.75 25.44 128.75 25.93 95.28 -7.54 95.77 -7.54"/><polygon class="cls-294" points="96.25 -7.54 128.75 24.96 128.75 25.44 95.77 -7.54 96.25 -7.54"/><polygon class="cls-295" points="96.74 -7.54 128.75 24.47 128.75 24.96 96.25 -7.54 96.74 -7.54"/><polygon class="cls-296" points="97.22 -7.54 128.75 23.98 128.75 24.47 96.74 -7.54 97.22 -7.54"/><polygon class="cls-297" points="97.71 -7.54 128.75 23.5 128.75 23.98 97.22 -7.54 97.71 -7.54"/><polygon class="cls-298" points="98.2 -7.54 128.75 23.01 128.75 23.5 97.71 -7.54 98.2 -7.54"/><polygon class="cls-299" points="98.68 -7.54 128.75 22.53 128.75 23.01 98.2 -7.54 98.68 -7.54"/><polygon class="cls-300" points="99.17 -7.54 128.75 22.04 128.75 22.53 98.68 -7.54 99.17 -7.54"/><polygon class="cls-300" points="128.75 22.04 99.17 -7.54 128.75 -7.54 128.75 22.04"/></g></g><path class="cls-301" d="M64.39,108.05A48.56,48.56,0,0,1,23.48,85.44l-9,2.32a2,2,0,0,1-2.32-2.57L23.82,53.5a1.94,1.94,0,0,1,3.11-.8L52.44,74.82a1.94,1.94,0,0,1-.79,3.36l-5.77,1.49A27.2,27.2,0,0,0,78.54,83a2,2,0,0,1,3,1.81l-.83,11.4a.55.55,0,0,0,.2.47.54.54,0,0,0,.5.1h0L94.12,93A2,2,0,0,1,96,96.3,48.24,48.24,0,0,1,64.39,108.05Zm-40-26.81a2,2,0,0,1,1.69,1,44.41,44.41,0,0,0,55.54,18.46,4.47,4.47,0,0,1-4.85-4.76L77.35,88a31.1,31.1,0,0,1-36.67-8.14,1.95,1.95,0,0,1,1-3.16l5.39-1.39L26.51,57.5,17.12,83.05l6.79-1.75A2,2,0,0,1,24.39,81.24Z"/><path class="cls-301" d="M18.05,62.84a1.87,1.87,0,0,1-.34,0,2,2,0,0,1-1.62-1.87c0-.4,0-.8,0-1.2A48.34,48.34,0,0,1,53.64,12.63l-.1-9.35a1.93,1.93,0,0,1,1-1.74,2,2,0,0,1,2,.1l28,18.88a2,2,0,0,1,0,3.22L57,43.22A1.95,1.95,0,0,1,54,41.65l-.08-7A27.07,27.07,0,0,0,37.31,57.1a2,2,0,0,1-3.26,1.26l-9-8.09a.55.55,0,0,0-.88.2L19.86,61.6A1.93,1.93,0,0,1,18.05,62.84Zm6.67-16.62a4.42,4.42,0,0,1,3,1.15L34,53.05A31,31,0,0,1,55.22,30a2,2,0,0,1,1.73.29,2,2,0,0,1,.8,1.56l.07,6.05L80,22.18l-9.9-6.68h0L57.48,7l.08,7.23A2,2,0,0,1,56,16.13,44.41,44.41,0,0,0,21.74,47.37a4.31,4.31,0,0,1,2-1A4.44,4.44,0,0,1,24.72,46.22Z"/><path class="cls-306" d="M47.64,27.94a2,2,0,0,1-.94-3.67,16.77,16.77,0,0,1,2.53-1.15l.82-.31a2,2,0,0,1,1.41,3.64l-.86.33a11.8,11.8,0,0,0-2,.93A1.91,1.91,0,0,1,47.64,27.94Z"/><path class="cls-306" d="M40.91,32.2a1.95,1.95,0,0,1-1.26-3.44,28.36,28.36,0,0,1,2.45-1.9,2,2,0,0,1,2.24,3.21,24.85,24.85,0,0,0-2.17,1.67A2,2,0,0,1,40.91,32.2Z"/><path class="cls-306" d="M31,44.15a1.86,1.86,0,0,1-.91-.23,1.94,1.94,0,0,1-.81-2.64,54.19,54.19,0,0,1,6.08-8.54,1.95,1.95,0,1,1,2.95,2.55,50.79,50.79,0,0,0-5.58,7.82A2,2,0,0,1,31,44.15Z"/><path class="cls-306" d="M40.53,91.14a2,2,0,0,1-1.23-.44,40.48,40.48,0,0,1-3.48-3.19,2,2,0,1,1,2.81-2.72,38.83,38.83,0,0,0,3.13,2.88,2,2,0,0,1-1.23,3.47Z"/><path class="cls-306" d="M48.47,96.11a2,2,0,0,1-.83-.18,31.5,31.5,0,0,1-3.84-2.06,2,2,0,1,1,2.08-3.31,25.08,25.08,0,0,0,3.41,1.82,2,2,0,0,1-.82,3.73Z"/><path class="cls-306" d="M64.38,99.61a39.84,39.84,0,0,1-10.56-1.42,2,2,0,0,1,1-3.76,36.17,36.17,0,0,0,9.52,1.27,2,2,0,0,1,0,3.91Z"/><path class="cls-306" d="M101.92,66h-.21A2,2,0,0,1,100,63.87c.06-.54.11-1.08.14-1.63,0-.78.08-1.58.08-2.36,0-.59,0-1.17,0-1.75a2,2,0,0,1,3.9-.19c0,.65,0,1.29,0,1.94,0,.87,0,1.75-.09,2.61,0,.61-.09,1.21-.16,1.82A2,2,0,0,1,101.92,66Z"/><path class="cls-306" d="M101.48,54.71a1.94,1.94,0,0,1-1.91-1.58c-.21-1.08-.87-3.79-1.17-4.81a2,2,0,1,1,3.76-1.08c.32,1.13,1,3.94,1.24,5.16a2,2,0,0,1-1.55,2.28A2.31,2.31,0,0,1,101.48,54.71Z"/><path class="cls-306" d="M98.19,45a2,2,0,0,1-1.75-1.08A36.09,36.09,0,0,0,91.1,36,2,2,0,1,1,94,33.42a39.27,39.27,0,0,1,5.92,8.71A2,2,0,0,1,98.19,45Z"/></svg>