<svg id="Layer_1" data-name="Layer 1" xmlns="http://www.w3.org/2000/svg" xmlns:xlink="http://www.w3.org/1999/xlink" viewBox="0 0 136 110"><defs><style>.cls-1,.cls-9{fill:none;}.cls-2{clip-path:url(#clip-path);}.cls-3{fill:url(#linear-gradient);}.cls-4{clip-path:url(#clip-path-2);}.cls-5{clip-path:url(#clip-path-3);}.cls-6{clip-path:url(#clip-path-4);}.cls-7{fill:url(#linear-gradient-5);}.cls-8{fill:#fff;}.cls-9{stroke:#843e39;stroke-linecap:round;stroke-linejoin:round;stroke-width:5px;}.cls-10{fill:url(#linear-gradient-6);}.cls-11{fill:#843e39;}</style><clipPath id="clip-path"><polygon class="cls-1" points="60.92 -108.8 76.16 -94.94 89.06 -98.66 73.82 -112.52 60.92 -108.8"/></clipPath><linearGradient id="linear-gradient" x1="7.25" y1="1.08" x2="126.15" y2="-117.82" gradientUnits="userSpaceOnUse"><stop offset="0" stop-color="#00f260"/><stop offset="1" stop-color="#4ca2cd"/></linearGradient><clipPath id="clip-path-2"><path class="cls-1" d="M111.34-108.94l-2.79-9.7a3.73,3.73,0,0,0-4.61-2.55l-15,4.32L104.19-103l4.6-1.32A3.73,3.73,0,0,0,111.34-108.94Z"/></clipPath><clipPath id="clip-path-3"><path class="cls-1" d="M12.28-91l2.85,9.91a3.62,3.62,0,0,0,4.47,2.47L33-82.52,17.76-96.38l-3,.87A3.6,3.6,0,0,0,12.28-91Z"/></clipPath><clipPath id="clip-path-4"><polygon class="cls-1" points="32.89 -100.73 48.13 -86.87 61.03 -90.59 45.79 -104.45 32.89 -100.73"/></clipPath><linearGradient id="linear-gradient-5" x1="72.26" y1="79.45" x2="124.99" y2="26.72" gradientUnits="userSpaceOnUse"><stop offset="0" stop-color="#f45c43"/><stop offset="0.31" stop-color="#eb3349"/></linearGradient><linearGradient id="linear-gradient-6" x1="27.6" y1="92.37" x2="106.16" y2="13.81" gradientUnits="userSpaceOnUse"><stop offset="0" stop-color="#eb3349"/><stop offset="1" stop-color="#f45c43"/></linearGradient></defs><title>pdf</title><g class="cls-2"><rect class="cls-3" x="11.32" y="-125.93" width="110.75" height="135.12" rx="6.89" ry="6.89"/></g><g class="cls-4"><rect class="cls-3" x="11.32" y="-125.93" width="110.75" height="135.12" rx="6.89" ry="6.89"/></g><g class="cls-5"><rect class="cls-3" x="11.32" y="-125.93" width="110.75" height="135.12" rx="6.89" ry="6.89"/></g><g class="cls-6"><rect class="cls-3" x="11.32" y="-125.93" width="110.75" height="135.12" rx="6.89" ry="6.89"/></g><path class="cls-7" d="M88.62,10.37h18.19a4.43,4.43,0,0,1,4.43,4.43V91.38a4.43,4.43,0,0,1-4.43,4.43H88.62a0,0,0,0,1,0,0V10.37A0,0,0,0,1,88.62,10.37Z"/><path class="cls-8" d="M79.69,17.68H99.56a3.91,3.91,0,0,1,3.91,3.91V77.26a3.91,3.91,0,0,1-3.91,3.91H79.69a0,0,0,0,1,0,0V17.68A0,0,0,0,1,79.69,17.68Z"/><path class="cls-9" d="M88.62,11.83h15.45c2,0,3.63,1.32,3.63,2.94V73.32"/><path class="cls-10" d="M93.69,102.67,27.91,91.77a3.4,3.4,0,0,1-2.85-3.36V17.77a3.41,3.41,0,0,1,2.85-3.37L93.69,3.5a3.66,3.66,0,0,1,4.25,3.61v92A3.65,3.65,0,0,1,93.69,102.67Z"/><path class="cls-8" d="M42.24,44.39A10.45,10.45,0,0,0,39.3,45c-1.41.57-1.44,1.7-1.44,2.77V61.18c0,1.1.57,1.68,1.74,1.75s1.77-.47,1.77-1.59V57.72a4.08,4.08,0,0,0,1.3.2c3.27.08,6.55-1.92,6.55-7C49.22,46.14,46.24,44.16,42.24,44.39Zm.12,9.85a4.41,4.41,0,0,1-1-.11v-5.9a4.14,4.14,0,0,1,.87-.11c1.74-.06,3,.81,3,3C45.27,53.13,44.24,54.25,42.36,54.24Z"/><path class="cls-8" d="M57.73,43.58a14,14,0,0,0-3.58.62c-1.66.63-1.69,1.85-1.69,3v13.1c0,1.16,0,2.38,1.69,3a12.93,12.93,0,0,0,3.46.62c6.55.37,10.58-3.46,10.58-10.24S64.34,43.2,57.73,43.58ZM57.9,59.9a10.21,10.21,0,0,1-1.32-.14v-12a10,10,0,0,1,1.29-.14c3.56-.12,5.54,2.25,5.54,6.17S61.45,60,57.9,59.9Z"/><path class="cls-8" d="M82.58,47.12c1.46,0,2.2-.88,2.2-2.47s-.74-2.32-2.2-2.24l-9,.5A2.29,2.29,0,0,0,71,45.56V62.65c0,1.32.82,2,2.5,2.11s2.56-.53,2.56-1.88V57.57l5.58.11c1.45,0,2.19-.76,2.19-2.35S83.12,53,81.67,53l-5.58,0V47.33Z"/><path class="cls-9" d="M26.11,59.9V17.74a2.18,2.18,0,0,1,1.82-2.15L90.86,5.11A2.68,2.68,0,0,1,94,7.76v91"/><g id="_5Yi3QO.tif" data-name="5Yi3QO.tif"><path class="cls-8" d="M104.33,75.05h.94a2.51,2.51,0,0,0,.27,0,12.24,12.24,0,0,1,2.26.36,11.8,11.8,0,0,1,8.78,10.83.59.59,0,0,0,0,.14v.89a.29.29,0,0,0,0,.09l0,.36a11.1,11.1,0,0,1-.4,2.29,11.79,11.79,0,0,1-10.71,8.58A11.66,11.66,0,0,1,98.73,97l-.15-.09L98.5,97l-6.6,6.6a1,1,0,0,1-.33.24h-.39c-.13,0-.27-.08-.4-.14a2.79,2.79,0,0,1-.87-.61c-.38-.37-.76-.74-1.12-1.12A2.66,2.66,0,0,1,88,100.7a0,0,0,0,0,0,0v-.36a1,1,0,0,1,.29-.39l6.5-6.5.11-.11s0-.07-.06-.1A11.71,11.71,0,0,1,93,86,11,11,0,0,1,93.35,84a11.76,11.76,0,0,1,6.24-7.69,11.51,11.51,0,0,1,4.46-1.19A2.36,2.36,0,0,0,104.33,75.05ZM104.8,79a7.88,7.88,0,1,0,7.87,7.88A7.87,7.87,0,0,0,104.8,79Z"/></g><g id="_5Yi3QO.tif-2" data-name="5Yi3QO.tif"><path class="cls-11" d="M105.27,75.05a2.51,2.51,0,0,0,.27,0,12.24,12.24,0,0,1,2.26.36,11.8,11.8,0,0,1,8.78,10.83.59.59,0,0,0,0,.14v.89a.29.29,0,0,0,0,.09l0,.36a11.1,11.1,0,0,1-.4,2.29,11.79,11.79,0,0,1-10.71,8.58l-.66,0a11.65,11.65,0,0,1-6-1.67l-.15-.09L98.5,97l-6.6,6.6a1,1,0,0,1-.33.24h-.39c-.13,0-.27-.08-.4-.14a2.79,2.79,0,0,1-.87-.61c-.38-.37-.76-.74-1.12-1.12A2.66,2.66,0,0,1,88,100.7a0,0,0,0,0,0,0v-.36a1,1,0,0,1,.29-.39l6.49-6.5.12-.11s0-.07-.06-.1A11.71,11.71,0,0,1,93,86,11,11,0,0,1,93.35,84a11.76,11.76,0,0,1,6.24-7.69,11.51,11.51,0,0,1,4.46-1.19,2.36,2.36,0,0,0,.28,0h.94m-.48,19.68a7.88,7.88,0,1,0-7.87-7.89,7.86,7.86,0,0,0,7.87,7.89h0m.48-22.38h-.94a2.69,2.69,0,0,0-.4,0l-.14,0A14.47,14.47,0,0,0,90.74,83.31a13.72,13.72,0,0,0-.41,2.54,14.32,14.32,0,0,0,1.26,7L86.4,98a3.63,3.63,0,0,0-.91,1.36,2.52,2.52,0,0,0-.17.94v.36a2.58,2.58,0,0,0,.16.92,5.27,5.27,0,0,0,1.37,2.26c.38.4.77.78,1.16,1.17a5.64,5.64,0,0,0,1.69,1.15,4.81,4.81,0,0,0,.57.21l.07,0a2.69,2.69,0,0,0,.84.14h.39a2.69,2.69,0,0,0,.84-.14,3.42,3.42,0,0,0,1.4-.9L97.37,102l1.75-1.75a14.62,14.62,0,0,0,5.66,1.15l.81,0a14.48,14.48,0,0,0,13.16-10.55,14.75,14.75,0,0,0,.5-2.83v-.2a3.13,3.13,0,0,0,0-.44v-.89a2.53,2.53,0,0,0,0-.38h0A14.5,14.5,0,0,0,105.81,72.4l-.12,0a3,3,0,0,0-.42,0Zm-.49,22.38V92A5.18,5.18,0,1,1,110,86.86,5.17,5.17,0,0,1,104.79,92v2.7Z"/></g><path class="cls-11" d="M42.85,44.37c3.69,0,6.37,2,6.37,6.57,0,5-3.15,7-6.36,7h-.19a4.08,4.08,0,0,1-1.3-.2v3.62a1.4,1.4,0,0,1-1.58,1.59H39.6c-1.17-.07-1.74-.65-1.74-1.75V47.72c0-1.07,0-2.2,1.44-2.77a10.45,10.45,0,0,1,2.94-.56l.61,0m-.47,9.87c1.87,0,2.89-1.12,2.89-3.1,0-2.14-1.21-3-2.86-3h-.17a4.14,4.14,0,0,0-.87.11v5.9a4.41,4.41,0,0,0,1,.11h0m.47-11.89-.72,0a12.24,12.24,0,0,0-3.61.71,4.45,4.45,0,0,0-2.68,4.64V61.18A3.57,3.57,0,0,0,39.48,65h.31a3.38,3.38,0,0,0,3.6-3.62V59.93c4-.22,7.85-3,7.85-9,0-5.3-3.21-8.59-8.39-8.59Z"/><path class="cls-11" d="M58.6,43.55c6.08,0,9.59,3.79,9.59,10.14S64.51,64,58.47,64l-.86,0a12.93,12.93,0,0,1-3.46-.62c-1.66-.62-1.69-1.84-1.69-3V47.21c0-1.16,0-2.38,1.69-3a14,14,0,0,1,3.58-.62l.87,0M58.15,59.9c3.4,0,5.26-2.35,5.26-6.11s-1.89-6.17-5.28-6.17h-.26a10,10,0,0,0-1.29.14v12a10.21,10.21,0,0,0,1.32.14h.25m.45-18.37-1,0a15.93,15.93,0,0,0-4.2.76c-3,1.12-3,3.67-3,4.89v13.1c0,1.22,0,3.77,3,4.9A15.57,15.57,0,0,0,57.5,66l1,0c7.25,0,11.75-4.71,11.75-12.29S65.77,41.53,58.6,41.53Zm0,16.33v-8.2a2.65,2.65,0,0,1,1.88.91,5,5,0,0,1,.89,3.22c0,3.48-1.76,4-2.77,4.07Z"/><path class="cls-11" d="M82.79,42.4c1.32,0,2,.74,2,2.25s-.74,2.42-2.2,2.47l-6.49.21V53l5.58,0h0c1.44,0,2.17.77,2.17,2.34s-.71,2.35-2.12,2.35h-.07l-5.58-.11v5.31c0,1.26-.74,1.89-2.23,1.89h-.33C71.85,64.67,71,64,71,62.65V45.56a2.29,2.29,0,0,1,2.5-2.65l9-.5h.21m0-2h-.33l-9,.5A4.28,4.28,0,0,0,69,45.56V62.65c0,.91.32,3.91,4.4,4.14h.45c2.58,0,4.25-1.54,4.25-3.92V59.64l3.52.06h.11c2.52,0,4.14-1.72,4.14-4.38S84.27,51,81.69,51H78.11V49.29l4.53-.14c2.57-.09,4.17-1.81,4.17-4.5s-1.58-4.27-4-4.27Z"/><path class="cls-9" d="M66.84,96.82,28.19,90.41a2.3,2.3,0,0,1-1.93-2.27v-7"/></svg>